<?xml version="1.0" standalone="no"?>
<!DOCTYPE svg PUBLIC "-//W3C//DTD SVG 1.1//EN" "http://www.w3.org/Graphics/SVG/1.1/DTD/svg11.dtd" >
<svg xmlns="http://www.w3.org/2000/svg">
<metadata>Generated by IcoMoon</metadata>
<defs>
<font id="font-shey" horiz-adv-x="1024">
<font-face units-per-em="1024" ascent="960" descent="-64" />
<missing-glyph horiz-adv-x="1024" />
<glyph unicode="&#x20;" horiz-adv-x="512" d="" />
<glyph unicode="&#xe900;" glyph-name="star" d="M981.333 576c-4.267 17.067-17.067 25.6-34.133 29.867l-273.067 38.4-123.733 247.467c-12.8 29.867-64 29.867-76.8 0l-123.733-243.2-268.8-42.667c-17.067 0-29.867-12.8-38.4-29.867-4.267-17.067 0-34.133 12.8-42.667l196.267-192-46.933-273.067c-4.267-17.067 4.267-34.133 17.067-42.667s29.867-12.8 46.933-4.267l243.2 128 243.2-128c8.533 0 12.8 0 21.333 0s17.067 4.267 25.6 8.533c12.8 8.533 21.333 25.6 17.067 42.667l-46.933 273.067 196.267 192c12.8 8.533 17.067 25.6 12.8 38.4zM695.467 388.267c-8.533-12.8-12.8-25.6-12.8-38.4l34.133-209.067-187.733 98.133c-12.8 8.533-25.6 8.533-38.4 0l-187.733-98.133 38.4 209.067c0 12.8-4.267 25.6-12.8 38.4l-153.6 145.067 209.067 29.867c12.8 0 25.6 12.8 34.133 21.333l93.867 192 93.867-187.733c4.267-12.8 17.067-21.333 34.133-21.333l209.067-29.867-153.6-149.333z" />
<glyph unicode="&#xe901;" glyph-name="sort" d="M905.851 192c22.845 0 41.748-18.76 41.748-41.605 0-23.603-18.903-42.373-41.748-42.373h-604.836c-22.825 0-41.728 18.76-41.728 42.373 0 22.835 18.893 41.605 41.728 41.605h604.836zM139.561 785.469c29.932 0 53.555-24.402 53.555-53.545 0-29.921-23.634-53.555-53.555-53.555-29.143 0-53.545 23.634-53.545 53.555 0 29.143 24.402 53.545 53.545 53.545v0zM301.015 683.52c-22.825 0-41.728 19.139-41.728 41.984s18.893 41.984 41.728 41.984h604.836c22.845 0 41.748-19.139 41.748-41.984s-18.903-41.984-41.748-41.984h-604.836zM301.015 390.656c-22.825 0-41.728 19.139-41.728 41.984s18.893 41.984 41.728 41.984h604.836c22.845 0 41.748-19.139 41.748-41.984 0-22.835-18.903-41.984-41.748-41.984h-604.836zM139.561 501.166c29.932 0 53.555-23.634 53.555-53.555 0-29.143-23.634-53.555-53.555-53.555-29.143 0-53.545 24.412-53.545 53.555 0 29.921 24.402 53.555 53.545 53.555v0zM139.561 197.151c29.932 0 53.555-24.422 53.555-53.545 0-29.932-23.634-53.545-53.555-53.545-29.143 0-53.545 23.613-53.545 53.545 0 29.123 24.402 53.545 53.545 53.545v0z" />
<glyph unicode="&#xe902;" glyph-name="clock" d="M512 917.333c-260.267 0-469.333-209.067-469.333-469.333s209.067-469.333 469.333-469.333 469.333 209.067 469.333 469.333-209.067 469.333-469.333 469.333zM512 64c-213.333 0-384 170.667-384 384s170.667 384 384 384 384-170.667 384-384-170.667-384-384-384zM768 490.667h-213.333v256c0 25.6-17.067 42.667-42.667 42.667s-42.667-17.067-42.667-42.667v-298.667c0-12.8 4.267-21.333 12.8-29.867s17.067-12.8 29.867-12.8h256c25.6 0 42.667 17.067 42.667 42.667s-17.067 42.667-42.667 42.667z" />
<glyph unicode="&#xe903;" glyph-name="search" d="M925.867 93.867l-192 192c46.933 59.733 76.8 140.8 76.8 226.133 0 200.533-162.133 362.667-362.667 362.667s-362.667-162.133-362.667-362.667 162.133-362.667 362.667-362.667c85.333 0 162.133 29.867 226.133 76.8l192-192c8.533-8.533 21.333-12.8 29.867-12.8s21.333 4.267 29.867 12.8c17.067 17.067 17.067 42.667 0 59.733v0zM170.667 512c0 153.6 123.733 277.333 277.333 277.333s277.333-123.733 277.333-277.333c0-76.8-29.867-145.067-81.067-196.267v0 0c-51.2-51.2-119.467-81.067-196.267-81.067-153.6 0-277.333 123.733-277.333 277.333z" />
<glyph unicode="&#xe904;" glyph-name="menu" d="M256 768c0-35.346-28.654-64-64-64s-64 28.654-64 64c0 35.346 28.654 64 64 64s64-28.654 64-64zM576 768c0-35.346-28.654-64-64-64s-64 28.654-64 64c0 35.346 28.654 64 64 64s64-28.654 64-64zM576 448c0-35.346-28.654-64-64-64s-64 28.654-64 64c0 35.346 28.654 64 64 64s64-28.654 64-64zM576 128c0-35.346-28.654-64-64-64s-64 28.654-64 64c0 35.346 28.654 64 64 64s64-28.654 64-64zM256 448c0-35.346-28.654-64-64-64s-64 28.654-64 64c0 35.346 28.654 64 64 64s64-28.654 64-64zM896 448c0-35.346-28.654-64-64-64s-64 28.654-64 64c0 35.346 28.654 64 64 64s64-28.654 64-64zM896 768c0-35.346-28.654-64-64-64s-64 28.654-64 64c0 35.346 28.654 64 64 64s64-28.654 64-64zM896 128c0-35.346-28.654-64-64-64s-64 28.654-64 64c0 35.346 28.654 64 64 64s64-28.654 64-64zM256 128c0-35.346-28.654-64-64-64s-64 28.654-64 64c0 35.346 28.654 64 64 64s64-28.654 64-64z" />
<glyph unicode="&#xe905;" glyph-name="user" d="M746.667 662c0-129.603-105.064-234.667-234.667-234.667s-234.667 105.064-234.667 234.667c0 129.603 105.064 234.667 234.667 234.667s234.667-105.064 234.667-234.667zM960-43.333c-97.333 0-704 0-896 0 0 247.467 200.533 448 448 448s448-200.533 448-448z" />
<glyph unicode="&#xe906;" glyph-name="cog" d="M511.12 644.639c-108.428 0-196.64-88.212-196.64-196.64s88.212-196.64 196.64-196.64 196.64 88.212 196.64 196.64-88.212 196.64-196.64 196.64zM511.12 313.32c-74.264 0-134.681 60.417-134.681 134.679 0 74.264 60.417 134.681 134.681 134.681s134.679-60.417 134.679-134.681c0.001-74.263-60.416-134.679-134.679-134.679zM846.096 314.084l138.571 59.113v151.529l-138.575 57.788c-0.961 2.587-1.959 5.1-2.976 7.499l56.037 139.357-107.115 107.116-138.205-56.933c-2.697 1.124-5.405 2.248-8.189 3.371l-58.843 137.741h-151.528l-57.364-137.437c-0.609-0.237-1.215-0.472-1.817-0.705-2.583-1-5.045-1.953-7.431-2.967l-138.035 55.451-107.116-107.116 56.339-136.715c-1.647-3.836-3.009-7.176-4.136-10.139l-136.38-58.237v-151.532l136.569-56.781c0.257-0.648 0.513-1.295 0.767-1.936 1.124-2.848 2.195-5.559 3.331-8.195l-55.152-137.584 107.112-107.112 137.316 56.487c2.908-1.213 5.727-2.291 8.464-3.336l0.923-0.353 58.536-137.124h151.531l57.512 138.176c2.619 1.041 5.288 2.147 7.905 3.237l139.229-55.749 107.115 107.112-57.243 138.683c0.216 0.547 0.431 1.091 0.645 1.632 0.768 1.937 1.503 3.791 2.203 5.66zM792.805 347.913c-2.527-7.119-6.417-17.721-11.027-27.572l-5.751-12.325 51.632-125.285-49.088-49.087-126.037 50.473-12.296-5.901c-10.309-4.843-21.032-8.956-28.211-11.632l-12.643-4.761-51.912-124.679h-69.347l-53.107 124.74-12.988 4.441c-8.092 2.785-18.701 6.604-28.973 11.437l-12.339 5.925-123.985-51.053-49.085 49.084 50.033 124.573-5.908 12.309c-4.269 8.992-8.144 18.448-12.195 29.763l-4.604 12.823-123.533 51.485v69.351l123.54 52.8 4.601 12.82c2.937 8.275 6.959 19.133 12.029 29.723l6.080 12.491-50.911 123.849 49.087 49.085 124.856-50.175 12.193 5.767c7.993 3.855 16.937 7.475 28.999 11.74l12.98 4.6 51.927 124.276h69.351l53.239-124.705 12.663-4.604c11.003-3.961 19.851-7.601 27.831-11.448l12.489-6.080 125.168 51.497 49.085-49.087-50.765-126.332 5.92-12.335c4.361-8.996 7.868-18.339 11.004-27.085l4.599-12.98 125.596-52.368v-69.349l-125.585-53.531-4.612-12.679z" />
<glyph unicode="&#xe907;" glyph-name="global" d="M86.267 430.267c9.467-227.067 196.533-408.933 425.733-408.933s416.4 181.867 425.733 408.933c0.533 1.467 0.933 2.933 0.933 4.4 0 1.067-0.4 1.733-0.533 2.667 0.133 3.6 0.533 7.067 0.533 10.667 0 235.2-191.467 426.667-426.667 426.667s-426.667-191.467-426.667-426.667c0-3.6 0.4-7.067 0.533-10.667-0.267-0.933-0.533-1.733-0.533-2.667 0-1.6 0.4-3.067 0.933-4.4v0zM749.867 268.267c-35.2 14.667-72.933 26.133-112.4 33.867 4.267 38.8 6.667 79.067 7.467 119.2h132.8c-2.4-54.8-12.133-106.533-27.867-153.067zM804.4 421.333h106.267c-5.067-74.8-30.4-144.133-71.067-202.133-20.267 14.267-42 27.2-65.6 38.4 17.333 49.867 27.867 105.2 30.4 163.733zM415.733 280.267c31.467 4.933 63.6 7.733 96.4 7.733s64.933-2.667 96.267-7.733c-18.667-142.133-59.067-232.267-96.4-232.267s-77.733 90.133-96.267 232.267zM456.267 56.933c-73.333 23.6-135.467 92.533-172.933 186.267 33.2 14 69.067 24.933 106.4 32.4 12.267-93.2 34.667-174.4 66.533-218.667v0zM412.667 589.067c32.4-5.067 65.733-7.733 99.333-7.733s66.933 2.8 99.333 7.733c4.533-43.2 7.333-90.4 7.333-141.067h-213.333c0 50.8 2.667 97.867 7.333 141.067zM618.267 421.333c-0.8-40.667-3.067-79.067-6.933-114.4-32.4 5.067-65.733 7.733-99.333 7.733s-66.933-2.8-99.333-7.733c-4.667 43.333-6.4 81.6-6.933 114.4h212.533zM634.267 275.6c37.467-7.6 73.067-18.4 106.4-32.4-37.467-93.733-99.467-162.667-172.933-186.267 32 44.267 54.267 125.467 66.533 218.667v0zM645.333 448c0 49.067-2.667 98.533-7.867 145.867 39.467 7.733 77.2 19.2 112.4 33.867 18.267-54.133 28.8-115.067 28.8-179.733h-133.333zM634.267 620.267c-12.267 93.2-34.667 174.4-66.4 218.667 73.333-23.6 135.467-92.533 172.933-186.267-33.333-13.867-69.067-24.8-106.533-32.4zM608.4 615.6c-31.467-4.933-63.6-7.733-96.4-7.733s-64.933 2.667-96.4 7.733c18.667 142.267 59.067 232.4 96.4 232.4s77.733-90.133 96.4-232.4zM389.733 620.267c-37.467 7.6-73.067 18.4-106.4 32.4 37.467 93.733 99.467 162.667 172.933 186.267-31.867-44.133-54.267-125.333-66.533-218.667v0zM386.533 593.867c-5.067-47.333-7.867-96.933-7.867-145.867h-133.333c0 64.667 10.533 125.733 28.8 179.733 35.2-14.667 72.933-26.133 112.4-33.867zM379.067 421.333c0.8-40.267 3.2-80.4 7.467-119.2-39.467-7.733-77.2-19.2-112.4-33.867-15.733 46.667-25.467 98.4-27.867 153.067h132.8zM249.867 257.6c-23.467-11.2-45.2-24.267-65.467-38.4-40.667 58-66 127.2-71.067 202.133h106.267c2.533-58.533 13.067-113.867 30.267-163.733zM200.4 197.867c18.267 12.8 37.733 24.533 58.933 34.8 26.8-66.267 65.333-121.333 111.6-158.4-67.467 25.467-126.267 68.4-170.533 123.6zM653.2 74.267c46.267 37.2 84.933 92.267 111.6 158.4 21.067-10.267 40.533-22 58.933-34.8-44.4-55.2-103.2-98.133-170.533-123.6v0zM805.333 448c0 68.4-11.467 133.067-31.2 190.4 23.467 11.2 45.333 24.267 65.6 38.4 45.333-64.933 72.267-143.733 72.267-228.8h-106.667zM823.733 698.133c-18.267-12.8-37.733-24.533-58.933-34.8-26.8 66.267-65.2 121.333-111.6 158.4 67.333-25.467 126.133-68.4 170.533-123.6zM370.8 821.733c-46.267-37.2-84.933-92.267-111.6-158.4-21.067 10.267-40.533 22-58.933 34.8 44.4 55.2 103.2 98.133 170.533 123.6v0zM184.4 676.8c20.267-14.267 42-27.067 65.467-38.4-19.6-57.333-31.067-121.867-31.067-190.267h-106.8c0 84.933 26.933 163.733 72.4 228.667z" />
<glyph unicode="&#xe908;" glyph-name="log-out" d="M426.667 64h-213.333c-25.6 0-42.667 17.067-42.667 42.667v682.667c0 25.6 17.067 42.667 42.667 42.667h213.333c25.6 0 42.667 17.067 42.667 42.667s-17.067 42.667-42.667 42.667h-213.333c-72.533 0-128-55.467-128-128v-682.667c0-72.533 55.467-128 128-128h213.333c25.6 0 42.667 17.067 42.667 42.667s-17.067 42.667-42.667 42.667zM934.4 430.933c4.267 8.533 4.267 21.333 0 34.133-4.267 4.267-4.267 8.533-8.533 12.8l-170.667 170.667c-17.067 17.067-42.667 17.067-59.733 0s-17.067-42.667 0-59.733l98.133-98.133h-409.6c-25.6 0-42.667-17.067-42.667-42.667s17.067-42.667 42.667-42.667h409.6l-98.133-98.133c-17.067-17.067-17.067-42.667 0-59.733 8.533-8.533 21.333-12.8 29.867-12.8s21.333 4.267 29.867 12.8l170.667 170.667c4.267 4.267 8.533 8.533 8.533 12.8z" />
<glyph unicode="&#xe909;" glyph-name="edit" d="M296 358v-164.4h164.4l383.467 383.467-164.4 164.4-383.467-383.467zM437.6 248.4h-32v54.8h-54.8v32l66.267 66.267 86.8-86.8-66.267-66.267zM688.133 640.533l-199.733-199.733c-5.2-5.2-13.733-5.733-18.8-0.533-5.2 5.2-4.533 13.733 0.533 18.8l199.733 199.733c5.2 5.2 13.733 5.733 18.8 0.533s4.533-13.733-0.533-18.8zM932.933 743.733l-86.8 86.8c-21.067 21.067-52.8 24.933-77.6 0l-52.533-52.533 164.4-164.4 52.533 52.533c21.067 21.2 21.067 56.533 0 77.6zM850.4 422.8c-4.533-4.533-7.067-10.8-7.067-17.2v-184.533c0-19.2-18.267-48-32-61.733s-53.2-32-72.4-32h-496.533c-19.2 0-48 18.267-61.733 32s-32 42.533-32 61.733v453.867c0 19.2 7.6 53.333 21.333 67.067s53.2 26.667 72.4 26.667h291.2c6.4 0 12.533 2.533 17.2 7.067l59.067 37.733c6.8 6.8 2 18.533-7.6 18.533h-359.867c-86.4 0-157.067-70.667-157.067-157.067v-453.733c0-86.533 70.667-157.2 157.067-157.2h496.4c86.533 0 157.2 70.667 157.2 157.067v252.933c0 9.733-11.733 14.533-18.667 7.733l-26.933-58.933z" />
<glyph unicode="&#xe90a;" glyph-name="arrow-left" d="M666.667 490.667h-393.6l183.467 183.467c17.067 17.067 17.067 42.667 0 59.733s-42.667 17.067-59.733 0l-256-256c-4.267-4.267-8.533-8.533-8.533-12.8-4.267-8.533-4.267-21.333 0-34.133 4.267-4.267 4.267-8.533 8.533-12.8l256-256c8.533-8.533 17.067-12.8 29.867-12.8s21.333 4.267 29.867 12.8c17.067 17.067 17.067 42.667 0 59.733l-183.467 183.467h393.6c25.6 0 42.667 17.067 42.667 42.667s-17.067 42.667-42.667 42.667v0z" />
<glyph unicode="&#xe90b;" glyph-name="chevron-down" d="M797.867 605.867c-17.067 17.067-42.667 17.067-59.733 0l-226.133-226.133-226.133 226.133c-17.067 17.067-42.667 17.067-59.733 0s-17.067-42.667 0-59.733l256-256c8.533-8.533 21.333-12.8 29.867-12.8s21.333 4.267 29.867 12.8l256 256c17.067 17.067 17.067 42.667 0 59.733z" />
<glyph unicode="&#xe90c;" glyph-name="repeat" d="M128 405.333c25.6 0 42.667 17.067 42.667 42.667v85.333c0 72.533 55.467 128 128 128h494.933l-98.133-98.133c-17.067-17.067-17.067-42.667 0-59.733 8.533-8.533 17.067-12.8 29.867-12.8s21.333 4.267 29.867 12.8l170.667 170.667c4.267 4.267 8.533 8.533 8.533 12.8 4.267 8.533 4.267 21.333 0 34.133-4.267 4.267-4.267 8.533-8.533 12.8l-170.667 170.667c-17.067 17.067-42.667 17.067-59.733 0s-17.067-42.667 0-59.733l98.133-98.133h-494.933c-119.467 0-213.333-93.867-213.333-213.333v-85.333c0-25.6 17.067-42.667 42.667-42.667v0zM896 490.667c-25.6 0-42.667-17.067-42.667-42.667v-85.333c0-72.533-55.467-128-128-128h-494.933l98.133 98.133c17.067 17.067 17.067 42.667 0 59.733s-42.667 17.067-59.733 0l-170.667-170.667c-4.267-4.267-8.533-8.533-8.533-12.8-4.267-8.533-4.267-21.333 0-34.133 4.267-4.267 4.267-8.533 8.533-12.8l170.667-170.667c8.533-8.533 17.067-12.8 29.867-12.8s21.333 4.267 29.867 12.8c17.067 17.067 17.067 42.667 0 59.733l-98.133 98.133h494.933c119.467 0 213.333 93.867 213.333 213.333v85.333c0 25.6-17.067 42.667-42.667 42.667v0z" />
<glyph unicode="&#xe90d;" glyph-name="message-square" d="M810.667 874.667h-597.333c-72.533 0-128-55.467-128-128v-682.667c0-17.067 8.533-34.133 25.6-38.4 4.267-4.267 12.8-4.267 17.067-4.267 12.8 0 21.333 4.267 29.867 12.8l157.867 157.867h494.933c72.533 0 128 55.467 128 128v426.667c0 72.533-55.467 128-128 128zM853.333 320c0-25.6-17.067-42.667-42.667-42.667h-512c-12.8 0-21.333-4.267-29.867-12.8l-98.133-98.133v580.267c0 25.6 17.067 42.667 42.667 42.667h597.333c25.6 0 42.667-17.067 42.667-42.667v-426.667z" />
<glyph unicode="&#xe90e;" glyph-name="bell" d="M938.667 277.333c-46.933 0-85.333 38.4-85.333 85.333v213.333c0 187.733-153.6 341.333-341.333 341.333s-341.333-153.6-341.333-341.333v-213.333c0-46.933-38.4-85.333-85.333-85.333-25.6 0-42.667-17.067-42.667-42.667s17.067-42.667 42.667-42.667h853.333c25.6 0 42.667 17.067 42.667 42.667s-17.067 42.667-42.667 42.667zM234.667 277.333c12.8 25.6 21.333 55.467 21.333 85.333v213.333c0 140.8 115.2 256 256 256s256-115.2 256-256v-213.333c0-29.867 8.533-59.733 21.333-85.333h-554.667zM605.867 102.4c-21.333 12.8-46.933 4.267-59.733-17.067s-38.4-25.6-59.733-17.067c-8.533 4.267-12.8 8.533-17.067 17.067-12.8 21.333-38.4 25.6-59.733 17.067-21.333-12.8-25.6-38.4-17.067-59.733 12.8-21.333 25.6-34.133 46.933-46.933s42.667-17.067 64-17.067c42.667 0 85.333 21.333 110.933 64 21.333 21.333 12.8 46.933-8.533 59.733v0z" />
<glyph unicode="&#xe90f;" glyph-name="circle" d="M512 917.333c-260.267 0-469.333-209.067-469.333-469.333s209.067-469.333 469.333-469.333 469.333 209.067 469.333 469.333-209.067 469.333-469.333 469.333zM512 64c-213.333 0-384 170.667-384 384s170.667 384 384 384 384-170.667 384-384-170.667-384-384-384z" />
<glyph unicode="&#xe910;" glyph-name="circle-select" d="M512 917.333c-260.267 0-469.333-209.067-469.333-469.333s209.067-469.333 469.333-469.333 469.333 209.067 469.333 469.333-209.067 469.333-469.333 469.333zM512 64c-213.333 0-384 170.667-384 384s170.667 384 384 384 384-170.667 384-384-170.667-384-384-384zM512 653.333c-113.867 0-205.333-91.467-205.333-205.333s91.467-205.333 205.333-205.333 205.333 91.467 205.333 205.333-91.467 205.333-205.333 205.333z" />
<glyph unicode="&#xe911;" glyph-name="checkbox" d="M883.2 733.867c-17.067 17.067-42.667 17.067-59.733 0l-439.467-439.467-183.467 183.467c-17.067 17.067-42.667 17.067-59.733 0s-17.067-42.667 0-59.733l213.333-213.333c8.533-8.533 17.067-12.8 29.867-12.8s21.333 4.267 29.867 12.8l469.333 469.333c17.067 17.067 17.067 42.667 0 59.733v0z" />
<glyph unicode="&#xe912;" glyph-name="checkbox-check" d="M174.667 332.667l249.333-267.333c0 0 246.667 347.333 492 523.333 0 0-72 154.667-101.333 266.667 0 0-213.333-290.667-386.667-605.333l-153.333 181.333-100-98.667z" />
<glyph unicode="&#xe913;" glyph-name="share" d="M810.948 308.725c-52.752 0-100.483-25.124-130.632-65.323l-311.511 163.293c5.028 15.077 5.028 30.147 5.028 45.22 0 17.584-2.511 32.66-7.533 47.731l258.751 183.388c22.609-15.072 47.731-25.121 77.876-25.121 72.849 0 130.633 57.779 130.633 130.633 0 72.853-57.784 128.12-130.633 128.12-72.855 0-130.636-57.78-130.636-130.633 0-12.561 2.52-25.121 7.54-37.681l-253.727-180.877c-30.149 27.633-67.829 45.22-113.048 45.22-90.439 0-163.292-72.851-163.292-163.289s72.853-163.287 163.292-163.287c45.219 0 85.415 17.584 115.559 47.725l321.556-168.313c0-7.533-2.512-15.071-2.512-22.611 0-90.436 72.853-163.289 163.289-163.289 90.439 0 163.289 72.853 163.289 163.289s-72.851 165.805-163.289 165.805z" />
<glyph unicode="&#xe914;" glyph-name="delete" d="M899.545 801.953h-212.583v38.7c0 43.472-35.213 78.688-78.684 78.688h-194.792c-43.469 0-78.687-35.216-78.687-78.688v-38.699h-212.577c-44.667 0-80.889-36.227-80.889-80.889v-73.089c0-44.663 36.223-80.888 80.889-80.888h36.499v-481.932c0-58.051 47.048-105.005 105.007-105.005h494.215c58.057 0 105.008 47.047 105.008 105.005v482.021h36.504c44.661 0 80.887 36.227 80.887 80.889v73.089c0.089 44.663-36.133 80.797-80.796 80.797zM393.496 840.747c0 11.004 8.988 19.991 19.992 19.991h194.883c11.005 0 19.993-8.987 19.993-19.991v-38.701h-234.868v38.701zM804.352 85.343c0-25.591-20.819-46.313-46.316-46.313h-494.307c-25.585 0-46.312 20.816-46.312 46.313v481.835h117.385v-440.203c0-16.232 13.116-29.343 29.347-29.343 16.235 0 29.348 13.111 29.348 29.343v440.203h88.040v-440.203c0-16.232 13.115-29.343 29.347-29.343 16.235 0 29.351 13.111 29.351 29.343v440.203h88.039v-440.203c0-16.232 13.111-29.343 29.345-29.343 16.231 0 29.345 13.111 29.345 29.343v440.203h117.389v-481.835zM921.741 648.067c0-12.197-9.907-22.195-22.195-22.195h-777.324c-12.2 0-22.196 9.904-22.196 22.195v73.089c0 12.199 9.904 22.196 22.196 22.196h777.324c12.2 0 22.193-9.905 22.193-22.196l0.001-73.089z" />
<glyph unicode="&#xe915;" glyph-name="edit2" d="M955.211 728.492l-115.121-115.125-162.712 162.715 115.088 115.123c35.269 35.265 93.035 34.737 128.973-1.201l32.539-32.567c35.943-35.941 36.501-93.676 1.233-128.944zM319.36 92.641l-162.709 162.737 488.164 488.135 162.68-162.712-488.135-488.16zM42.699-21.308l81.385 244.091 162.711-162.704-244.096-81.387z" />
<glyph unicode="&#xe916;" glyph-name="plus" d="M932.376 496.94h-371.429v371.42c0 27.028-21.916 48.943-48.945 48.943-27.031 0-48.943-21.912-48.943-48.943v-371.419h-371.433c-27.031 0-48.944-21.911-48.944-48.94 0-27.032 21.913-48.944 48.944-48.944h371.435v-371.417c0-27.025 21.912-48.941 48.943-48.941 27.029 0 48.945 21.917 48.945 48.941v371.416h371.429c27.036 0 48.948 21.912 48.948 48.944-0.001 27.029-21.912 48.94-48.949 48.94z" />
<glyph unicode="&#xe917;" glyph-name="next" d="M740.609 407.9c-0.376-0.373-0.892-0.469-1.265-0.824l-374.421-411.487c-22.62-22.148-59.076-22.411-81.388-0.544-22.308 21.869-22.073 57.547 0.563 79.719l338.909 372.452-339.587 373.185c-22.615 22.169-22.637 58.065-0.048 80.211 22.615 22.121 59.259 22.099 81.899-0.047l375.315-412.476c22.615-22.145 22.639-58.064 0.021-80.189h0.003z" />
<glyph unicode="&#xe918;" glyph-name="previous" d="M283.396 407.9c-22.619 22.125-22.593 58.044 0.021 80.189l375.315 412.475c22.639 22.145 59.283 22.168 81.899 0.047 22.588-22.145 22.568-58.041-0.048-80.211l-339.587-373.184 338.909-372.452c22.636-22.172 22.871-57.849 0.563-79.719-22.311-21.865-58.767-21.604-81.388 0.544l-374.423 411.487c-0.373 0.356-0.889 0.451-1.265 0.824h0.004z" />
<glyph unicode="&#xe919;" glyph-name="drop-down" d="M43.839 759.504h935.412l-467.707-623.616-467.705 623.616z" />
<glyph unicode="&#xe91a;" glyph-name="drop-down2" d="M199.736-20.011v935.412l623.615-467.707-623.615-467.705z" />
<glyph unicode="&#xe91b;" glyph-name="close" d="M931.051 55.919l-393.817 393.819 393.765 393.757c7.436 7.437 7.436 19.493 0 26.925-7.429 7.435-19.493 7.439-26.929 0l-393.759-393.76-393.757 393.76c-7.437 7.439-19.493 7.439-26.927 0-7.433-7.436-7.437-19.488 0-26.925l393.761-393.757-393.813-393.819c-7.433-7.436-7.433-19.485 0-26.923 7.437-7.436 19.489-7.436 26.927 0l393.809 393.817 393.817-393.817c7.437-7.436 19.485-7.436 26.923 0 7.436 7.437 7.436 19.487 0 26.923z" />
<glyph unicode="&#xe91c;" glyph-name="transaction" d="M761.123 671.899c6.165 2.167 11.764 5.784 15.98 11.208 12.009 15.020 9.125 36.899-6.361 48.517l-200.513 145.316c-15.495 11.608-37.764 8.928-49.765-6.289-4.021-5.031-6.083-10.805-6.949-16.599l247.609-182.153zM729.664 97.845h-13.659v24.673c0 18.804-17.291 23.559-38.661 23.559h-533.137c-21.381 0-38.733-4.683-38.733-23.559v-24.673h-13.66c-25.599 0-46.384-20.197-46.384-45.328v-5.941c0-24.875 20.713-34.709 46.384-34.709h637.852c25.663 0 46.384 9.835 46.384 34.709v5.941c-0.001 25.129-20.785 45.328-46.385 45.328zM603.155 460.749l323.468-237.856c4.557-3.352 9.248-4.052 12.372-4.052 6.413 0 12.247 2.795 16.023 7.681l19.505 25.569c3.236 4.153 4.556 8.979 3.875 13.793-0.68 4.867-3.331 9.196-7.455 12.196l-324.497 238.753 108.985 141.593-253.064 187.308-109.531-142.296-31.733 23.136c-4.535 3.34-9.155 4.021-12.227 4.021-6.475 0-12.392-2.845-16.227-7.836l-19.712-25.464c-2.989-3.877-4.288-8.681-3.608-13.507 0.701-4.991 3.401-9.444 7.608-12.536l32.539-24.023-110.357-143.285 254.517-185.483 109.519 142.285zM235.192 490.577c-6.165-2.165-11.764-5.793-15.98-11.216-12.011-15.032-9.124-36.899 6.361-48.519l200.515-145.305c15.496-11.629 37.764-8.949 49.764 6.279 4.021 5.021 6.083 10.815 6.949 16.609l-247.609 182.152z" />
<glyph unicode="&#xe91d;" glyph-name="order" d="M601.273 679.413l-32.767-52.996 167.953-45.284 32.812 52.985zM468.689 645.44c24.131 0 43.761 19.608 43.761 43.709 0 24.096-19.631 43.699-43.761 43.699-24.136 0-43.772-19.604-43.772-43.699 0.001-24.101 19.636-43.709 43.772-43.709zM374.489 363.216c24.131 0 43.761 19.603 43.761 43.697 0 24.068-19.632 43.647-43.761 43.647-24.136 0-43.772-19.58-43.772-43.647 0-24.095 19.636-43.697 43.772-43.697zM117.023 174.695l388.425-167.432c25.625-7.78 49.923-11.725 72.217-11.725 48.988 0 88.183 19.38 113.363 56.049l82.839 155.017 162.72 413.171c4.225 10.484 8.463 20.491 12.56 30.167 20.035 47.315 35.861 84.687 21.925 111.437-10.097 19.384-35.275 32.771-79.235 42.128l-459.144 96.944c-18.311 0.359-35.501-7.892-52.548-25.26l-172.793-429.148c-4.252-11.431-12.167-32.711-4.557-46.74 3.444-6.349 9.963-10.639 19.375-12.751 1.304-0.288 2.637-0.435 3.952-0.435 11.643 0 21.519 11.369 25.257 22.603l0.063 0.172 168.117 425.243 477.589-119.26-202.98-491.932-31.428-61.981c-2.055-4.901-36.713-85.441-92.687-85.441-2.695 0-5.431 0.193-8.132 0.573-19.024 2.625-39.605 12.187-48.301 22.372-7.833 4.489-21.025 17.22-24.421 24.804-12.261 27.228-15.868 49.401-1.265 93.181-19.688 5.177-117.857 31.172-161.628 46.141-42.547 14.545-168.019 68.701-169.28 69.248l-3.723 1.608 0.213 0.309-101.371 41.889-3.981-39.596c-4.587-74.384 19.86-131.72 68.859-161.356zM421.585 591.729c-24.131 0-43.761-19.608-43.761-43.709 0-24.089 19.632-43.688 43.761-43.688 24.136 0 43.772 19.599 43.772 43.688-0.001 24.101-19.637 43.709-43.772 43.709zM554.105 538.285l-32.757-52.975 168.005-45.295 32.815 52.995zM651.463 351.884l-167.943 45.293-32.756-52.985 167.94-45.293z" />
<glyph unicode="&#xe91e;" glyph-name="trade-logistics" d="M924.896 16.977c-0.512 7.927-4.009 15.196-9.863 20.536l-70.22 61.72c-17.913 17.153-41.327 26.559-66.015 26.559-0.237 0-0.469 0.001-0.7-0.008-25.411-0.193-49.183-10.205-67.021-28.196l-40.371-40.692c-6.46-6.527-15.096-10.144-24.316-10.185h-0.139c-9.14 0-17.753 3.549-24.253 9.995l-41.943 41.609c-17.937 17.781-41.725 27.605-66.979 27.661h-0.193c-25.168 0-48.923-9.729-66.885-27.395l-43.38-42.707c-6.448-6.347-15.031-9.841-24.169-9.841s-17.721 3.495-24.168 9.84l-43.385 42.709c-17.957 17.664-41.712 27.393-66.885 27.393h-0.195c-24.935-0.056-48.492-9.655-66.325-27.031l-68.328-61.264c-12.5-11.205-13.551-30.497-2.34-43.004 5.771-6.432 14.040-10.123 22.687-10.123 7.508 0 14.723 2.764 20.317 7.783l68.797 61.677c0.393 0.351 0.765 0.7 1.136 1.064 6.448 6.404 15.064 9.937 24.249 9.937 9.125 0 17.707-3.495 24.161-9.84l43.393-42.709c17.94-17.665 41.695-27.395 66.885-27.395s48.941 9.729 66.88 27.393l43.404 42.709c6.449 6.347 15.028 9.841 24.155 9.841 9.183 0 17.801-3.532 24.267-9.948l41.947-41.611c17.98-17.84 41.825-27.664 67.141-27.664h0.411c25.473 0.117 49.383 10.135 67.309 28.205l40.361 40.691c6.493 6.547 15.181 10.152 24.463 10.152 9.068 0 17.611-3.467 24.057-9.759 0.391-0.392 0.772-0.739 1.152-1.069l70.408-61.873c5.559-4.887 12.695-7.579 20.095-7.579 8.773 0 17.112 3.771 22.875 10.348 5.376 6.115 8.047 13.952 7.523 22.068zM449.756 825.3l-217.54-84.373c-11.119-4.312-18.588-15.224-18.588-27.153v-150.745l-115.26-49.947c-7.208-3.124-12.608-9.241-14.813-16.784-2.205-7.545-0.952-15.611 3.44-22.128l0.079-0.12 174.512-280.111c3.087-4.557 7.875-7.756 13.147-8.781 31.989-6.173 61.292-21.621 84.733-44.673l3.197-3.157c3.944-3.884 9.171-6.027 14.712-6.027s10.768 2.141 14.717 6.029l3.185 3.14c31.277 30.783 72.661 47.735 116.532 47.735h0.333c44.013-0.1 85.445-17.215 116.675-48.193l1.265-1.264c3.949-3.915 9.199-6.076 14.772-6.076 5.639 0 10.927 2.204 14.895 6.207 24.424 24.628 55.263 40.763 89.185 46.663 5.603 0.972 10.592 4.147 13.7 8.715l174.361 279.911c4.395 6.509 5.653 14.568 3.453 22.109-2.168 7.433-7.439 13.487-14.488 16.659l-0.34 0.145-119.529 51.797v151.036c0 12.111-7.293 22.768-18.579 27.151l-211.028 81.903v24.449c0 34.939-28.427 63.363-63.367 63.363s-63.364-28.424-63.364-63.363v-24.115zM512.708 787.245l235.148-91.264v-105.861l-213.735 92.613c-7.028 3.047-14.472 4.591-22.127 4.591s-15.096-1.544-22.116-4.589l-218.013-94.469v105.571l240.843 93.409z" />
<glyph unicode="&#xe91f;" glyph-name="account-management" d="M820.244 361.635c-22.468 19.117-49.887 30.073-75.3 30.073-57.119 0-105.372-48.255-105.372-105.375 0-57.116 48.256-105.372 105.372-105.372s105.373 48.256 105.373 105.372c0.001 25.415-10.952 52.831-30.073 75.301zM744.944 232.080c-28.904 0-54.255 25.351-54.255 54.252 0 28.907 25.352 54.257 54.255 54.257 11.869 0 24.873-4.655 38.651-13.84 14.481-9.649 15.604-33.377 15.604-40.417 0.001-28.9-25.352-54.252-54.255-54.252zM403.405 387.036c40.491 0 80.421-8.745 115.683-25.312 16.067 23.608 31.627 42.933 49.827 61.867-7.135 3.748-12.401 6.991-16.015 10.605l-5.185 5.183 5.451 4.907c48.297 43.476 74.896 101.316 74.896 162.867 0 123.431-96.687 220.117-220.115 220.117s-220.116-96.687-220.116-220.117c0-65.496 26.512-123.261 74.652-162.655l8.712-7.127-10.271-4.605c-129.488-58.041-211.163-179.767-213.812-318.22h76.936c1.764 71.707 30.805 139.215 81.995 190.405 52.931 52.933 123.023 82.085 197.363 82.085zM260.209 607.156c0 39.199 14.635 75.42 41.208 101.992 26.569 26.573 62.789 41.208 101.989 41.208s75.421-14.635 101.992-41.208c26.573-26.572 41.207-62.793 41.207-101.992s-14.635-75.423-41.208-101.995c-26.571-26.573-62.792-41.208-101.991-41.208-39.197 0-75.419 14.635-101.989 41.208-26.573 26.572-41.208 62.795-41.208 101.995zM968.067 234.58l0.361 0.027c2.003 0 4.605 2.871 7.156 7.892 6.275 28.425 6.248 56.408-0.081 88.032l-0.049 0.499c0 2.005-2.639 4.765-5.139 7.284-29.941 7.713-48.209 27.273-58.281 42.387l-0.093 0.149c-12.835 22.463-16.441 48.627-9.912 71.855-0.003 2.853-0.097 8.175-2.385 10.549-23.871 20.448-49.2 35.253-75.297 44.017-2.861-0.005-8.119-0.113-10.48-2.377-15.488-18.505-41.239-29.551-68.921-29.551-26.119 0-49.283 9.919-68.845 29.479-2.332 2.332-7.665 2.443-10.556 2.448-26.097-8.761-51.431-23.571-75.305-44.021-3.135-3.129-5.003-5.049-2.647-9.761l0.173-0.439c6.66-23.307 3.081-49.623-9.82-72.197-13.157-23.029-35.885-39.417-59.315-42.763l-0.359-0.025c-2.008 0-4.609-2.872-7.16-7.892-6.273-28.427-6.247-56.408 0.080-88.033l0.048-0.5c0-2.011 2.885-4.619 7.927-7.177 27.060-6.821 46.289-20.775 58.784-42.639 12.833-22.467 16.439-48.637 9.913-71.857 0.003-2.851 0.099-8.175 2.384-10.552 23.873-20.445 49.204-35.252 75.3-44.015h2.78c2.945 0 5.277 0 7.695 2.371 15.479 18.509 41.233 29.555 68.925 29.555 26.123 0 49.284-9.917 68.845-29.479 2.296-2.293 4.268-2.44 10.557-2.447 26.099 8.761 51.432 23.572 75.304 44.023 3.133 3.129 4.999 5.048 2.647 9.757l-0.061 0.135c-9.631 22.461-6.929 52.293 6.555 72.584 13.16 22.988 35.868 39.34 59.273 42.684zM919.843 260.293l-0.304-1.524-1.492-0.424c-20.315-5.805-39.581-20.555-52.855-40.469-11.899-17.839-15.627-42.608-9.283-61.633l0.497-1.493-1.113-1.115c-13.661-13.657-30.915-20.164-48.884-26.156l-1.492-0.496-1.113 1.111c-15.991 15.991-38.029 24.796-62.056 24.796-20.812 0-42.909-8.861-62.219-24.951l-1.168-0.972-1.411 0.563c-16.184 6.476-32.487 16.261-48.251 25.725l-1.675 1.005 0.539 1.875c6.257 21.925 3.061 43.273-9.255 61.743-13.271 19.912-32.536 34.66-52.855 40.465l-1.544 0.445-0.268 1.585c-3.216 19.317-3.216 35.799 0 55.115l0.268 1.585 1.544 0.444c20.315 5.804 39.581 20.555 52.855 40.467 11.893 17.836 15.627 42.604 9.285 61.635l-0.497 1.492 1.113 1.113c13.659 13.66 30.915 20.168 48.881 26.156l1.495 0.497 1.111-1.111c15.987-15.991 38.021-24.796 62.049-24.796 20.821 0 42.917 8.86 62.228 24.948l1.165 0.972 1.408-0.563c16.156-6.461 32.472-16.253 48.256-25.72l1.671-1.005-0.535-1.88c-6.264-21.919-3.068-43.268 9.251-61.739 13.273-19.917 32.539-34.665 52.852-40.467l1.549-0.443 0.263-1.585c3.236-19.392 3.227-38.991-0.012-55.196z" />
<glyph unicode="&#xe920;" glyph-name="telephone" d="M318.433 728.125l50.093 31.877c9.115 9.109 27.333 4.549 31.876-4.56l91.089-132.076-4.552-18.219-50.101-40.995c-54.653-40.995 91.096-245.956 150.32-214.087l54.636 36.445h18.217l91.099-127.537c9.111-9.088 4.561-22.757-4.557-31.863-4.549-4.564 0-9.111 4.557-9.111 31.899-18.22 31.899-59.224 36.437-81.993 4.559-45.556-22.777-81.991-72.864-109.307-63.772-27.336-132.075-45.556-204.963-45.556-255.068 0-464.583 209.509-464.583 469.14 0 255.065 209.523 464.573 464.583 464.573v0c259.609 0 469.137-209.528 469.137-464.573 0-104.776-36.457-200.399-91.091-277.852-22.767-27.325-59.203-4.547-31.885 36.448 50.105 68.321 77.42 150.293 77.42 241.404 0 232.287-191.299 419.028-423.591 419.028-232.285 0-419.032-186.741-419.032-419.028 0-232.284 186.757-423.584 419.043-423.584 63.768 0 118.423 13.647 168.507 36.425 36.456 18.22 63.795 50.104 54.665 72.881-4.559 22.769-27.327 59.204-45.543 54.655-54.645-13.668-177.639-36.445-318.835 163.964-173.067 232.292-72.863 350.723-50.084 373.499v0z" />
<glyph unicode="&#xe921;" glyph-name="speaker" d="M231.487 649.804v28.836h-86.497c-48.092 0-86.476-38.851-86.476-86.761v-287.775c0-48.215 38.719-86.751 86.476-86.751h86.497v432.451zM278.76 228.888l230.645-184.505v807.241l-230.645-184.519zM221.109 274.984v-57.671l257.768-214.793c48.508-40.44 88.2-21.992 88.2 41.537v807.804c0 63.571-39.499 82.139-88.2 41.535l-257.768-214.803v-57.66h-57.673c-32.057 0-57.651-25.573-57.651-57.125v-231.699c0-31.127 25.805-57.125 57.651-57.125h57.673zM723.219 631.164l-33.437 33.437 237.311 237.311 33.437-33.437-237.311-237.311zM723.165 267.688l237.293-237.295-33.439-33.448-237.304 237.296zM687.568 471.64h277.919v-47.277h-277.919v47.277z" />
<glyph unicode="&#xe922;" glyph-name="confidentiality" d="M825.452 560.244h-45.751v119.861c0 0.795-0.048 1.583-0.148 2.371-8.157 63.688-39.22 122.324-87.496 165.113-48.687 43.168-111.381 66.937-176.511 66.937-71.093 0-137.929-27.688-188.213-77.96-50.263-50.275-77.96-117.123-77.96-188.209v-88.093l-50.803-0.029c-35.116 0-63.703-28.579-63.703-63.697v-451.361c0-35.137 28.587-63.703 63.703-63.703h389.165c0.569 0 1.119 0.032 1.677 0.081h234.343c0.561-0.048 1.12-0.081 1.677-0.081 35.139 0 63.703 28.577 63.703 63.703v451.371c0.039 35.12-28.545 63.697-63.684 63.697zM851.811 45.176c0-13.859-10.763-25.261-24.363-26.271-0.056 0-0.107 0-0.159 0h-245.204c-0.589 0-1.139-0.028-1.7-0.089h-381.796c-14.537 0-26.36 11.823-26.36 26.361v451.369c0 14.537 11.821 26.359 26.36 26.359l69.493 0.040c0.939 0 1.879 0.091 2.787 0.235 1.008-0.164 2.028-0.275 3.075-0.275h352.393c0.328 0 0.857-0.009 1.547-0.009 9.384 0 50.244 1.427 85.839 24.901 8.607 5.677 10.973 17.265 5.309 25.871-5.689 8.607-17.252 10.983-25.861 5.305-29.513-19.455-65.679-18.74-65.977-18.731-0.211 0-0.417 0.011-0.617 0.011h-339.841v88.125c0 61.123 23.804 118.58 67.019 161.808 43.223 43.219 100.696 67.023 161.812 67.023 56.015 0 109.88-20.439 151.748-57.532 41.208-36.544 67.837-86.487 75.067-140.769v-136.068c0-1.667 0.24-3.329 0.679-4.937l0.329-1.257c2.228-8.107 9.596-13.719 18.001-13.719h64.084c14.539 0 26.361-11.821 26.361-26.36v-451.391h-0.024z" />
<glyph unicode="&#xe923;" glyph-name="phone" d="M845.357 805.165c0 60.725-49.412 110.131-110.136 110.131h-446.447c-60.727 0-110.131-49.405-110.131-110.131v-714.315c0-60.724 49.404-110.145 110.131-110.145h446.447c60.724 0 110.136 49.421 110.136 110.145v714.315zM803.689 90.851c0-37.761-30.707-68.457-68.468-68.457h-446.447c-37.741 0-68.463 30.695-68.463 68.457v98.216h583.377v-98.216zM803.689 230.736h-583.377v494.073h583.377v-494.073zM803.689 766.479h-583.377v38.696c0 37.756 30.721 68.461 68.463 68.461h446.447c37.76 0 68.468-30.704 68.468-68.461v-38.696zM512 154.111c-25.769 0-48.392-22.632-48.392-48.38 0-25.769 22.612-48.401 48.392-48.401 25.76 0 48.392 22.632 48.392 48.401 0 25.748-22.631 48.38-48.392 48.38z" />
<glyph unicode="&#xe924;" glyph-name="mailbox" d="M918.756 770.392h-813.629c-32.375 0-58.691-26.312-58.691-58.685v-527.404c0-32.373 26.305-58.695 58.691-58.695h813.628c32.385 0 58.807 26.303 58.807 58.695v527.303c0.001 32.364-26.42 58.787-58.805 58.787zM931.581 724.411v-552.923h-839.163v552.923h839.163zM126.264 655.601v0l353.461-312.771c8.881-7.647 20.235-11.913 32.277-11.913 11.921 0 23.385 4.265 32.271 11.913l353.352 312.881c10.003 8.775 11.027 24.057 2.252 33.969-8.773 10.001-24.068 11.017-34.057 2.244l-353.143-312.771c-0.217-0.112-0.893-0.112-1.123 0l-353.469 312.648c-10.013 8.775-25.184 7.759-33.957-2.253-4.265-4.835-6.408-11.020-5.961-17.427 0.344-6.397 3.264-12.359 8.097-16.521z" />
<glyph unicode="&#xe925;" glyph-name="increase" d="M745.505 467.467h-214.039v214.039c0 11.687-7.8 19.467-19.467 19.467s-19.467-7.78-19.467-19.467v-214.039h-214.040c-11.687 0-19.467-7.779-19.467-19.467s7.78-19.467 19.467-19.467h214.040v-214.039c0-11.688 7.779-19.467 19.467-19.467s19.467 7.797 19.467 19.467v214.039h214.039c11.688 0 19.467 7.8 19.467 19.467s-7.779 19.467-19.467 19.467zM512 915.011c-258.805 0-467.011-208.205-467.011-467.011s208.205-467.011 467.011-467.011c258.805 0 467.011 208.205 467.011 467.011s-208.205 467.011-467.011 467.011zM512 19.899c-235.451 0-428.089 192.651-428.089 428.101s192.639 428.089 428.089 428.089 428.101-192.64 428.101-428.089c0-235.451-192.651-428.101-428.101-428.101z" />
<glyph unicode="&#xe926;" glyph-name="refresh" d="M125.001 293.168c38.455-89.733 93.165-153.917 167.267-196.275 72.865-42.861 147.54-64.568 222.025-64.568 32.168 0 64.336 4.165 95.608 12.392 155.215 34.511 277.559 156.847 311.979 311.759l0.653 1.841c0.524 1.056 1.912 3.821-1.548 8.7-2.605 3.64-7.283 7.383-12.515 9.977-0.965 0.492-2.091 0.745-3.349 0.745-6.86 0-14.505-6.691-14.505-11.225l-0.22-1.932c-36.161-144.704-146.755-252.916-288.584-282.468-29.251-6.879-59.165-10.4-88.768-10.4-71.004 0-140.048 20.256-199.655 58.583-70.139 40.907-125.693 107.124-156.131 186.276l-6.719 17.452 87.883-36.635c2.273-1.107 4.376-1.589 6.568-1.589 6.115 0 14.525 3.772 18.056 14.395l0.433 1.056c3.832 7.644-0.221 20.177-7.747 24.332l-121.931 40.647c-4.204 0.361-7.876 2.203-10.913 3.7-1.771 0.907-4.184 2.113-5.241 2.113h-8.429c-3.319-3.4-7.101-7.604-7.101-9.656v-1.58l-53.56-130.901c-2.052-4.135-2.063-8.843-0.272-13.147 2.223-5.361 6.86-9.473 13.056-11.528l1.047-0.441c1.789-0.885 3.892-1.368 6.084-1.368 6.116 0 14.516 3.771 18.056 14.395l30.519 83.919 7.955-18.568zM921.88 525.16l0.604 1.459 52.96 129.456c2.049 4.135 2.060 8.841 0.28 13.145-2.232 5.372-6.868 9.476-13.065 11.528l-1.047 0.444c-1.78 0.884-3.892 1.367-6.076 1.367-6.136 0-14.525-3.772-18.075-14.395l-30.519-83.94-7.957 18.599c-38.455 89.733-93.163 153.928-167.265 196.276-72.864 42.86-147.54 64.576-222.025 64.576-32.168 0-64.335-4.164-95.608-12.392-155.212-34.501-277.557-156.855-311.979-311.768l-0.643-1.841c-0.533-1.045-1.921-3.823 1.559-8.691 2.596-3.652 7.283-7.383 12.513-9.999 0.955-0.483 2.083-0.713 3.349-0.713 3.228 0 7.103 1.58 10.119 4.113 2.656 2.233 4.365 5.020 4.365 7.091l0.231 1.941c36.181 144.664 146.747 252.896 288.595 282.447 29.24 6.881 59.175 10.413 88.757 10.413 71.005 0 140.037-20.269 199.655-58.592 70.129-40.909 125.684-107.127 156.131-186.277l6.699-17.431-87.863 36.604c-2.293 1.116-4.395 1.58-6.577 1.58-6.127 0-14.525-3.752-18.067-14.375l-0.431-1.056c-3.833-7.655 0.22-20.179 7.745-24.332l121.931-40.637c4.204-0.372 7.907-2.213 10.915-3.711 1.78-0.887 4.184-2.113 5.251-2.113h8.439c3.309 3.4 7.091 7.604 7.091 9.665v1.56h0.009z" />
<glyph unicode="&#xe927;" glyph-name="note" d="M512 914.073c-256.988 0-466.072-209.085-466.072-466.073 0-256.984 209.084-466.073 466.073-466.073 256.984 0 466.073 209.088 466.073 466.073-0.001 256.988-209.089 466.073-466.075 466.073zM512 33.717c-228.429 0-414.283 185.848-414.283 414.283 0 228.429 185.853 414.283 414.283 414.283 228.436 0 414.283-185.853 414.283-414.283 0-228.435-185.847-414.283-414.283-414.283zM512 318.528c14.285 0 25.889 11.576 25.889 25.851 0 0.020 0 0.040 0 0.040v362.513c0 14.3-11.584 25.895-25.879 25.911-14.301 0-25.9-11.589-25.911-25.891 0 0 0-0.011 0-0.020v-362.513c-0.012-14.285 11.568-25.891 25.86-25.891 0.020 0 0.031 0 0.040 0zM473.16 227.913c0-21.447 17.381-38.855 38.84-38.855s38.856 17.396 38.856 38.855c0 21.439-17.387 38.835-38.845 38.835-21.459 0.011-38.851-17.355-38.851-38.835v0z" />
<glyph unicode="&#xe928;" glyph-name="table-edit" d="M880.188 620.643c0 14.387-11.697 26.093-26.089 26.093-14.383 0-26.088-11.707-26.088-26.093v-549.024c0-23.468-19.088-42.545-42.544-42.545h-617.715c-23.444 0-42.523 19.079-42.523 42.545v686.344c0 23.444 19.079 42.524 42.523 42.524h480.445c14.393 0 26.087 11.701 26.087 26.088s-11.692 26.092-26.085 26.092h-480.447c-52.249 0-94.753-42.507-94.753-94.748v-686.345c0-52.251 42.504-94.741 94.753-94.741h617.692c52.239 0 94.744 42.503 94.744 94.741v549.069zM442.276 578.087h-205.901c-14.392 0-26.097-11.701-26.097-26.088 0-14.392 11.705-26.093 26.097-26.093h205.9c14.381 0 26.088 11.701 26.088 26.093 0.001 14.388-11.705 26.088-26.087 26.088zM943.34 911.495c-4.944 4.944-11.491 7.672-18.448 7.672-6.945 0-13.493-2.728-18.445-7.663l-341.049-341.048c-10.189-10.165-10.189-26.724 0-36.889 9.843-9.892 27.072-9.86 36.873-0.011l341.069 341.059c4.945 4.939 7.661 11.492 7.661 18.453 0 6.956-2.716 13.499-7.661 18.427zM648.155 372.187h-411.78c-14.392 0-26.097-11.695-26.097-26.087s11.705-26.1 26.097-26.1h411.823c6.975 0 13.545 2.719 18.479 7.64 4.889 4.912 7.585 11.471 7.585 18.448 0.003 14.403-11.704 26.099-26.107 26.099z" />
<glyph unicode="&#xe929;" glyph-name="table-details" d="M760.733 722.627h-497.299c-14.34 0-26.019-11.679-26.019-26.019s11.668-26.020 26.019-26.020h497.299c14.349 0 26.033 11.668 26.033 26.020s-11.684 26.019-26.033 26.019zM980.089 779.119c0 75.5-61.087 136.927-136.177 136.927h-663.829c-75.101 0-136.181-61.096-136.181-136.188v-663.617c0-75.091 61.425-136.188 136.921-136.188h294.812c14.34 0 26.020 11.675 26.020 26.013 0 14.352-11.668 26.027-26.020 26.027h-294.708c-46.763 0-84.8 37.748-84.8 84.159v663.709c0 46.407 37.751 84.157 84.155 84.157h663.812c46.4 0 84.151-38.037 84.151-84.799v-662.7c0-46.604-38.075-84.539-84.907-84.539h-88.611c-14.395 0-26.109-11.705-26.109-26.099 0-14.341 11.672-26.024 26.013-26.024h88.633c36.583 0 71.008 14.284 96.924 40.235 25.787 25.807 39.952 59.995 39.911 96.224v662.703h-0.009zM263.435 449.609h497.299c14.349 0 26.033 11.668 26.033 26.019s-11.685 26.017-26.033 26.017h-497.299c-14.34 0-26.019-11.677-26.019-26.017s11.679-26.019 26.019-26.019zM484.428 280.643h-220.993c-14.34 0-26.019-11.685-26.019-26.024 0-14.352 11.668-26.024 26.019-26.024h220.993c14.345 0 26.019 11.672 26.019 26.024-0.001 14.363-11.675 26.024-26.019 26.024z" />
<glyph unicode="&#xe92a;" glyph-name="unbundled" d="M585.705 409.821v-89.408h198.637c63.825 0 115.756 51.92 115.756 115.733v11.853c0 63.824-51.931 115.755-115.756 115.755h-198.637v-77.567h198.637c19.304 0 32.275-12.971 32.275-32.268v-11.836c0-19.295-12.972-32.263-32.275-32.263h-198.637zM426.453 492.109v77.568h-186.805c-63.824 0-115.753-51.927-115.753-115.756v-11.836c0-60.804 47.508-110.285 105.895-110.285 3.171 0 6.413 0.16 9.615 0.433l187.029 0.012v83.492h-186.785c-19.292 0-32.261 12.949-32.261 32.263v11.845c0 19.299 12.969 32.263 32.261 32.263h186.805zM512 918.989c-259.707 0-470.989-211.283-470.989-470.989 0-259.705 211.283-470.989 470.989-470.989s470.989 211.284 470.989 470.989c0 259.707-211.281 470.989-470.989 470.989zM512 24.967c-233.256 0-423.032 189.784-423.032 423.033 0 233.259 189.776 423.028 423.032 423.028 233.249 0 423.032-189.769 423.032-423.028 0.001-233.249-189.783-423.033-423.032-423.033z" />
<glyph unicode="&#xe92b;" glyph-name="freeze" d="M896.159 550.012h-768.316v-189.939c0-209.532 170.479-379.991 380.023-379.991 209.536 0 380.088 167.048 388.295 380.323v189.607h-0.001zM851.847 363.092c0-179.305-155.797-330.813-340.215-330.813-184.412 0-340.212 151.499-340.212 330.813v140.707h680.436v-140.707h-0.009zM598.584 293.957c0 53.427-37.276 90.732-90.709 90.732-53.416 0-90.727-37.305-90.727-90.732v-66.117c0-43.817 36.453-90.732 90.727-90.732 53.433 0 90.709 37.305 90.709 90.732v66.117zM549.391 227.84c0-29.493-12.028-41.524-41.527-41.524-30.625 0-41.532 21.444-41.532 41.524v66.117c0 30.609 21.448 41.523 41.532 41.523 21.333 0 41.527-20.195 41.527-41.523v-66.117zM507.865 866.707c111.675 0 206.375-86.795 206.849-189.535v-132.823h49.211v133.319c-0.661 135.808-110.74 238.251-256.060 238.251-143.576 0-256.041-105.2-256.041-239.501v-132.047h49.205v132.047c0 103.144 94.732 190.289 206.836 190.289z" />
<glyph unicode="&#xe92c;" glyph-name="thaw" d="M894.599 549.593h-765.197v-189.164c0-208.683 169.788-378.448 378.479-378.448 208.687 0 378.547 166.369 386.719 378.779v188.833zM850.467 363.435c0-178.579-155.163-329.469-338.833-329.469-183.663 0-338.831 150.883-338.831 329.469v140.143h677.675v-140.143h-0.011zM598.229 294.581c0 53.211-37.123 90.364-90.337 90.364-53.199 0-90.359-37.153-90.359-90.364v-65.849c0-43.639 36.304-90.364 90.359-90.364 53.216 0 90.337 37.156 90.337 90.364v65.849zM549.24 228.732c0-29.372-11.98-41.352-41.36-41.352-30.5 0-41.363 21.355-41.363 41.352v65.849c0 30.487 21.361 41.355 41.363 41.355 21.248 0 41.36-20.109 41.36-41.355v-65.849zM507.88 865.013c111.221 0 205.537-86.448 206.012-188.772l49.011 0.484c-0.659 135.269-110.291 237.293-255.023 237.293-142.993 0-255-104.779-255-238.528v-131.516h49.005v131.516c0 102.724 94.348 189.523 205.995 189.523z" />
<glyph unicode="&#xe92d;" glyph-name="invitation-code" d="M978.147 686.167c0 63.439-51.619 115.047-115.057 115.047h-0.009c-6.508 0-12.611-2.529-17.201-7.12-4.604-4.596-7.133-10.704-7.133-17.201 0-13.417 10.915-24.333 24.335-24.333 36.579-0.040 66.361-29.813 66.401-66.377v-476.335c-0.040-36.58-29.813-66.361-66.372-66.403h-533.039c-13.421 0-24.333-10.901-24.333-24.332 0-13.411 10.912-24.332 24.333-24.332h533.019c63.439 0 115.057 51.627 115.057 115.067v476.32zM233.599 375.693l123.827 123.828c6.369 6.349 6.863 16.179 1.116 21.903-5.727 5.733-15.545 5.249-21.904-1.107l-123.836-123.836c-6.34-6.34-6.833-16.165-1.125-21.905 5.748-5.737 15.583-5.224 21.923 1.117zM336.637 375.693l-123.836 123.828c-6.36 6.349-6.853 16.179-1.125 21.903 5.748 5.733 15.564 5.249 21.923-1.107l123.827-123.836c6.349-6.34 6.843-16.165 1.116-21.905-5.727-5.737-15.564-5.224-21.904 1.117zM459.536 375.693l123.836 123.828c6.36 6.349 6.853 16.179 1.116 21.903-5.739 5.733-15.553 5.249-21.915-1.107l-123.835-123.836c-6.339-6.34-6.833-16.165-1.116-21.905 5.736-5.737 15.573-5.224 21.913 1.117zM562.573 375.693l-123.835 123.828c-6.36 6.349-6.855 16.179-1.116 21.903 5.737 5.733 15.555 5.249 21.913-1.107l123.836-123.836c6.34-6.34 6.835-16.165 1.116-21.905-5.739-5.737-15.575-5.224-21.915 1.117zM685.473 375.693l123.836 123.828c6.359 6.349 6.853 16.179 1.116 21.903-5.737 5.733-15.553 5.249-21.915-1.107l-123.837-123.836c-6.339-6.34-6.832-16.165-1.116-21.905 5.74-5.737 15.575-5.224 21.916 1.117zM788.511 375.693l-123.837 123.828c-6.359 6.349-6.852 16.179-1.116 21.903 5.74 5.733 15.555 5.249 21.916-1.107l123.836-123.836c6.339-6.34 6.833-16.165 1.116-21.905-5.737-5.737-15.575-5.224-21.915 1.117zM159.959 143.445c-36.568 0.041-66.352 29.813-66.392 66.371v476.347c0.040 36.572 29.824 66.347 66.371 66.391h533.039c13.419 0 24.333 10.917 24.333 24.333s-10.915 24.333-24.333 24.333h-533.017c-63.449-0.009-115.057-51.623-115.057-115.056v-476.324c0-63.44 51.609-115.057 115.057-115.057 13.42 0 24.333 10.913 24.333 24.332s-10.913 24.331-24.333 24.331z" />
<glyph unicode="&#xe92e;" glyph-name="department" d="M723.639 89.165c-15.587 60.123 20.625 121.708 80.741 137.305l7.343 1.908v144.309h-632.723v-136.721l0.109-9.809h9.811c9.521 0 19.035-1.217 28.269-3.612 29.117-7.56 53.551-25.999 68.803-51.931 15.247-25.933 19.487-56.244 11.931-85.367-12.893-49.68-57.687-84.369-108.94-84.369-9.517 0-19.060 1.217-28.365 3.631l-2.459 0.319c-51.255 0.036-96.052 34.715-108.931 84.34-7.553 29.123-3.316 59.441 11.931 85.373 15.251 25.932 39.685 44.372 68.801 51.931l7.348 1.908v165.153c0 11.495 9.351 20.844 20.845 20.844h674.417c11.493 0 20.849-9.349 20.849-20.844v-157.568l0.111-9.809h9.809c9.513 0 19.028-1.217 28.272-3.612 29.112-7.56 53.551-25.999 68.8-51.931 15.245-25.933 19.484-56.244 11.929-85.367-12.895-49.68-57.693-84.38-108.94-84.369-9.528 0-19.065 1.217-28.368 3.631l-2.451 0.319c-51.263 0.035-96.059 34.713-108.944 84.339zM158.153 191.208c-40.631 0-73.571-32.944-73.571-73.575 0-40.627 32.94-73.573 73.571-73.573 40.633 0 73.573 32.947 73.573 73.573 0 40.631-32.94 73.575-73.573 73.575zM906.143 117.635c0 40.631-32.944 73.575-73.573 73.575s-73.572-32.944-73.572-73.575c0-40.627 32.944-73.573 73.572-73.573s73.573 32.947 73.573 73.573zM312.292 607.82h2.109c29.367 0 53.24-25.277 53.24-56.344 0-10.295-4.624-21.469-4.624-21.588-4.453-10.964-1.139-23.548 8.135-30.891l0.468-0.353 50.781-30.072c10.093-4.179 21.723-1.58 29.081 6.497 5.905 6.729 26.387 26.091 42.825 26.091 16.44 0 36.692-19.248 43.061-26.624 4.943-5.493 11.975-8.639 19.371-8.653 3.343-0.021 6.657 0.679 9.703 2.049l0.596 0.231 52.6 30.836c9.273 7.315 12.597 19.895 8.125 30.829 0 0.119-4.617 11.293-4.617 21.592 0 31.068 23.871 56.343 53.245 56.343h1.751c8.535-0.171 15.559 7.779 17.781 20.185 0.113 0.996 4.213 24.224 4.213 42.539 0 18.312-4.1 41.537-4.272 42.529-2.223 12.405-9.188 20.365-17.791 20.127h-1.752c-29.371 0-53.244 25.339-53.244 56.405 0 10.243 4.627 21.471 4.627 21.589 4.531 10.94 1.199 23.557-8.135 30.833l-0.527 0.348-51.191 30.132-0.528 0.235c-10.011 4.2-21.573 1.752-29.017-6.145-6.253-6.845-25.98-24.572-41.949-24.572-15.979 0-35.865 18.135-42.125 25.041-4.929 5.379-11.9 8.435-19.195 8.425-3.343 0.024-6.659-0.676-9.713-2.052l-0.584-0.229-53.005-30.839-0.527-0.407c-9.328-7.255-12.679-19.839-8.192-30.775 0-0.119 4.624-11.347 4.624-21.589 0-31.067-23.873-56.405-53.24-56.405h-1.759c-8.603 0.239-15.563-7.721-17.791-20.127-2.461-14.053-3.889-28.269-4.267-42.529 0-18.315 4.096-41.543 4.267-42.539 2.227-12.227 9.073-20.124 17.44-20.124zM335.197 704.32c36.927 2.021 66.412 34.577 66.412 74.372 0 13.245-4.828 25.968-5.872 28.64l44.824 26.228h0.133c0.776 0 1.432-0.263 1.628-0.459 0.781-0.787 7.045-7.699 16.176-14.549 13.372-10.176 26.095-15.325 37.772-15.325 11.544 0 24.151 5.080 37.525 15 9.128 6.721 15.328 13.504 16.103 14.223 0.488 0.325 1.043 0.505 1.628 0.521h0.137l43.317-25.572c-1.044-2.612-5.872-15.333-5.872-28.639 0-39.739 29.42-72.291 66.361-74.372 0.573-3.137 3.447-20.684 3.447-33.865 0-13.176-2.873-30.723-3.447-33.86-36.864-2.084-66.293-34.64-66.293-74.305 0-13.305 4.827-26.028 5.871-28.639l-43.971-25.904h-0.136c-0.487-0.009-0.968 0.131-1.369 0.393-0.853 0.848-7.175 8.156-16.429 15.4-13.705 10.829-26.689 16.307-38.759 16.307-11.936 0-24.86-5.355-38.492-15.983-9.135-7.112-15.467-14.288-16.248-15.141-0.196-0.192-0.779-0.392-1.371-0.392h-0.128l-42.469 25.185c1.103 2.611 5.931 15.332 5.931 28.705 0 39.671-29.42 72.223-66.344 74.307-0.584 3.203-3.464 20.749-3.464 33.925 0.003 13.183 2.883 30.667 3.399 33.799zM433.783 669.032c-0.015-33.169 26.384-60.064 58.953-60.073 32.583-0.016 58.992 26.86 59.001 60.031 0 0.013 0 0.029 0 0.043 0.013 33.171-26.389 60.064-58.963 60.075-32.571 0.016-58.983-26.865-58.992-60.032 0-0.012 0-0.027 0-0.043z" />
<glyph unicode="&#xe92f;" glyph-name="assignment" d="M931.097 917.273h-778.545c-27.763-0.065-50.235-22.591-50.235-50.355v-114.413c0-12.343 10.004-22.347 22.347-22.347s22.345 10.004 22.345 22.347v114.413c0 3.041 2.564 5.661 5.543 5.661h778.544c2.861 0 5.484-2.681 5.484-5.661v-837.9c-0.117-2.995-2.487-5.417-5.484-5.599h-778.544c-3.056 0.065-5.509 2.541-5.543 5.599v110.781c0 12.344-10.004 22.344-22.345 22.344s-22.347-10-22.347-22.344v-110.781c0-27.705 22.525-50.292 50.235-50.292h778.544c27.732 0.065 50.177 22.568 50.177 50.292v837.84c0.032 27.765-22.411 50.316-50.176 50.415v0zM65.073 554.725h178.772c12.341 0 22.347 10.005 22.347 22.347s-10.005 22.347-22.347 22.347h-178.772c-12.341 0-22.347-10.004-22.347-22.347 0.001-12.34 10.007-22.347 22.347-22.347zM65.073 425.653h178.772c12.341 0 22.347 10.005 22.347 22.347 0 12.343-10.005 22.347-22.347 22.347h-178.772c-12.341 0-22.347-10.004-22.347-22.347 0.001-12.341 10.007-22.347 22.347-22.347zM266.192 318.927c0 12.341-10.005 22.347-22.347 22.347h-178.772c-12.341 0-22.347-10.005-22.347-22.347 0-12.344 10.005-22.347 22.347-22.347h178.772c12.341 0.001 22.347 10.003 22.347 22.347zM336.328 185.683c-4.739-11.323 0.599-24.344 11.923-29.084 2.772-1.156 5.749-1.745 8.755-1.721 9.047 0.024 17.199 5.469 20.679 13.82 37.303 90.945 125.943 150.26 224.237 150.052 97.667 0 185.325-58.101 223.401-148.021 4.888-11.305 17.953-16.584 29.32-11.861 11.328 4.864 16.623 17.951 11.857 29.317-31.492 74.211-92.833 131.677-168.937 158.273 54.172 33.096 87.287 91.932 87.481 155.411 0 101.005-82.177 183.12-183.123 183.12s-183.12-82.173-183.12-183.18c0-65.788 35.157-123.053 87.357-155.291-76.984-26.887-138.792-85.427-169.831-160.835zM463.496 501.808c0.065 76.403 61.968 138.331 138.367 138.429 76.333 0 138.429-62.095 138.429-138.429 0-76.332-62.096-138.428-138.429-138.428-76.388 0.131-138.269 62.039-138.367 138.428z" />
<glyph unicode="&#xe930;" glyph-name="side-retra" d="M495.121-10.923c5.084-6.252 12.607-9.845 20.629-9.845 4.308 0 10.695 1.021 16.647 5.884 5.619 4.56 9.063 10.927 9.791 18.001 0.725 7.036-1.329 13.923-5.784 19.396l-340.328 419.017 340.525 432.191c9.075 11.501 7.107 28.229-4.36 37.333-6.032 4.696-12.276 5.684-16.463 5.684-8.213 0-15.836-3.689-20.917-10.123l-366.941-465.623 367.201-451.916zM848.871-10.923c5.084-6.252 12.607-9.845 20.629-9.845 4.308 0 10.695 1.021 16.647 5.884 5.62 4.561 9.061 10.927 9.792 18 0.724 7.037-1.331 13.924-5.787 19.397l-340.325 419.017 340.525 432.191c4.408 5.588 6.367 12.531 5.528 19.567-0.84 7.049-4.381 13.357-9.972 17.764-6 4.72-12.249 5.717-16.431 5.717-8.189 0-15.773-3.675-20.811-10.083l-366.997-465.693 367.201-451.916z" />
<glyph unicode="&#xe931;" glyph-name="port" d="M512.643 914.849c-99.456 0-180.369-80.913-180.369-180.367 0-99.483 80.913-180.417 180.369-180.417 99.468 0 180.389 80.935 180.389 180.417 0 99.453-80.923 180.367-180.389 180.367zM512.763 603.537c-71.741 0-130.105 58.377-130.105 130.132 0 71.741 58.364 130.107 130.105 130.107 71.767 0 130.155-58.365 130.155-130.107 0-71.755-58.388-130.132-130.155-130.132zM512.024-18.849c219.083 0 411.115 148.815 469.309 360.183h-51.609c-13.123-41.841-34.117-83.752-59.107-119.951-26.172-37.913-57.967-71.299-94.497-99.228-75.976-58.087-166.677-88.791-262.299-88.791-95.616 0-186.313 30.703-262.287 88.791-36.529 27.928-68.324 61.313-94.499 99.228-24.989 36.197-44.281 78.108-57.411 119.951h-55.253c58.244-211.369 248.588-360.183 467.652-360.183zM510.075 14.753c13.545 0 24.564 11.055 24.564 24.641v525.524c0 13.329-11.251 24.591-24.564 24.591-13.543 0-24.56-11.031-24.56-24.591v-525.523c0-13.357 11.247-24.643 24.56-24.643zM733.133 478.616h-436.7c-13.6 0-24.665-11.065-24.665-24.667 0-13.599 11.064-24.661 24.665-24.661h436.7c13.588 0 24.64 11.063 24.64 24.661 0 13.601-11.052 24.667-24.64 24.667zM757.988 293.852h176.012l-4.276 47.481h-171.736c-14.087 0-25.545-10.66-25.545-23.765 0-13.077 11.459-23.716 25.545-23.716zM296.585 317.568c0 13.105-11.815 23.765-26.339 23.765h-170.621l-11.036-47.481h181.657c14.523 0 26.339 10.639 26.339 23.716z" />
<glyph unicode="&#xe932;" glyph-name="speed-calcu" d="M800.001-20h-576.003c-99.255 0-179.999 80.765-179.999 179.999v576.001c0 99.259 80.744 180 179.999 180h576.003c99.233 0 179.999-80.741 179.999-180v-576.001c0-99.233-80.765-179.999-179.999-179.999zM223.999 867.999c-72.793 0-131.999-59.201-131.999-131.999v-576.001c0-72.795 59.205-132 131.999-132h576.003c72.795 0 132 59.205 132 132v576.001c0 72.797-59.205 131.999-132 131.999h-576.003zM692.093 559.843h-360.023c-46.312 0-84 37.689-84 84 0 46.313 37.689 84 84 84h360.023c46.313 0 84-37.688 84-84s-37.687-84-84-84zM332.071 679.844c-19.851 0-35.999-16.149-35.999-36.001s16.148-36 35.999-36h360.023c19.828 0 36 16.149 36 36s-16.172 36.001-36 36.001h-360.023zM320 324.667c-37.861 0-68.665-30.804-68.665-68.667 0-37.861 30.804-68.665 68.665-68.665s68.665 30.804 68.665 68.665c0 37.863-30.803 68.667-68.665 68.667zM320 228.667c-15.072 0-27.333 12.261-27.333 27.333s12.261 27.333 27.333 27.333 27.333-12.261 27.333-27.333-12.261-27.333-27.333-27.333zM512 324.667c-37.864 0-68.668-30.804-68.668-68.667 0-37.861 30.805-68.665 68.668-68.665s68.669 30.804 68.669 68.665c0 37.863-30.804 68.667-68.669 68.667zM512 228.667c-15.072 0-27.333 12.261-27.333 27.333s12.261 27.333 27.333 27.333 27.333-12.261 27.333-27.333-12.261-27.333-27.333-27.333zM704 324.667c-37.861 0-68.665-30.804-68.665-68.667 0-37.861 30.804-68.665 68.665-68.665s68.665 30.804 68.665 68.665c0 37.863-30.803 68.667-68.665 68.667zM704 228.667c-15.072 0-27.333 12.261-27.333 27.333s12.261 27.333 27.333 27.333 27.333-12.261 27.333-27.333-12.261-27.333-27.333-27.333z" />
<glyph unicode="&#xe933;" glyph-name="historical-route" d="M323.732 709.261h376.219c40.565 0 73.565-32.315 73.565-72.033v-174.953h53.565v174.952c0 59.344-43.377 110.621-103.145 121.924l-5.427 1.027v23.984c0 68.439-57.011 124.117-127.085 124.117h-158.98c-70.1 0-127.132-55.679-127.132-124.117v-23.997l-5.444-1.016c-59.637-11.129-103.048-62.413-103.221-121.941v-174.933h53.52v174.953c0 39.72 33.001 72.035 73.565 72.035zM359.061 784.163c0 39.733 32.981 72.059 73.52 72.059h159.024c40.539 0 73.521-32.325 73.521-72.059v-22.841h-306.065v22.841zM873.841 18.241l0.175 0.085c21.467 10.232 41.74 19.896 74.492 23.639 13.607 1.472 23.839 12.609 23.839 25.912 0 14.339-11.992 26.005-26.735 26.005-1.235 0-2.211 0-3.191-0.101-35.139-3.969-59.524-13.615-80.636-23.448l-13.669-6.367 90.013 288.56c12.143 34.743-3.193 72.584-36.461 89.977l-353.155 185.876c-11.185 5.913-23.8 9.035-36.496 9.035s-25.328-3.123-36.524-9.031l-352.963-185.871c-33.292-17.385-48.624-55.228-36.477-89.988l0.071-0.213 89.924-288.281-13.631 6.295c-19.879 9.18-44.173 19.32-81.027 23.461-1.069 0.123-2.139 0.185-3.195 0.185-13.616 0-24.967-9.919-26.401-23.071l-0.028-0.221c-0.116-0.809-0.116-1.691-0.116-2.803 0-13.188 10.255-24.328 23.853-25.915 32.8-3.745 53.067-13.407 74.524-23.636 14.78-7.315 28.86-13.248 43.132-18.177 22.227-7.271 45.065-11.115 71.769-12.068 4.477-0.183 8.977-0.361 13.517-0.361 64.868 0 98.692 16.255 128.533 30.599 26.896 12.932 52.301 25.151 105.019 25.151 51.951 0 76.379-11.568 104.663-24.961l0.596-0.284c29.984-14.3 63.969-30.505 128.339-30.505 4.857 0 9.415 0.191 13.432 0.36 26.607 0.951 50.112 4.907 71.899 12.099 15.847 5.475 29.915 11.395 42.915 18.064zM487.411 94.777l-6.068-0.547c-45.58-4.109-73.372-17.375-97.892-29.081-26.925-12.948-52.373-25.188-105.001-25.188-12.576 0-24.24 0.703-35.66 2.153l-4.251 0.539-101.769 326.487c-3.624 10.505 0.98 22.057 11.029 27.561l317.46 166.983c2.167 1.132 4.6 1.725 7.053 1.725 5.544 0 10.595-2.911 13.216-7.607 1.251-2.135 1.884-4.563 1.884-7.22v-455.805zM781.213 42.116c-11.393-1.448-22.292-2.18-32.393-2.18-1.112 0-2.221 0.008-3.328 0.027-51.94 0-76.396 11.623-104.713 25.081l-0.609 0.289c-24.505 11.636-52.281 24.823-97.467 28.899l-6.068 0.547v455.971c0 8.325 6.581 14.847 14.981 14.847 2.328 0 4.656-0.553 6.919-1.645l0.208-0.104 317.36-166.905c10.044-5.247 14.708-16.741 11.195-27.457l-0.211-0.855-101.625-325.973-4.248-0.54z" />
<glyph unicode="&#xe934;" glyph-name="weather-infor" d="M517.255 190.807c-138.912 0-251.939 113.027-251.939 251.939s113.028 251.939 251.939 251.939c138.913 0 251.939-113.028 251.939-251.939 0-138.912-113.027-251.939-251.939-251.939zM517.255 642.195c-109.975 0-199.448-89.473-199.448-199.448 0-110.001 89.472-199.448 199.448-199.448 110.001 0 199.448 89.447 199.448 199.448 0 109.973-89.447 199.448-199.448 199.448zM491.009 915.148h52.491v-94.472h-52.491v94.472zM491.009 75.319h52.491v-94.468h-52.491v94.468zM44.852 468.991h94.472v-52.491h-94.472v52.491zM884.679 468.991h94.471v-52.491h-94.471v52.491zM201.776 795.334l66.791-66.791-37.111-37.111-66.791 66.791 37.111 37.111zM795.59 201.533l66.844-66.844-37.111-37.111-66.844 66.844 37.111 37.111zM803.076 691.428l-37.111 37.112 66.739 66.789 37.111-37.111zM209.188 97.568l-37.111 37.111 66.816 66.844 37.111-37.111z" />
<glyph unicode="&#xe935;" glyph-name="calendar" d="M879.095 839.423c30.411 0 55.151-27.836 55.151-62.035v-737.383c0-34.172-24.741-62.005-55.151-62.005h-734.188c-30.411 0-55.152 27.833-55.152 62.005v737.383c0 34.199 24.741 62.035 55.152 62.035h124.451v78.577h63.039v-78.577h357.431v78.577h62.985v-78.577h126.283zM886.98 40.005v737.383c0 4.897-3.557 8.867-7.885 8.867h-126.281v-67.7h-62.987v67.699h-357.429v-67.7h-63.039v67.7h-124.452c-4.356 0-7.885-3.969-7.885-8.867v-183.751h749.907v-53.167h-749.907v-500.464c0-4.844 3.529-8.863 7.885-8.863h734.187c4.329-0.001 7.887 4.019 7.887 8.863zM708.835 198.767c0 20.909 15.043 37.796 33.547 37.796 18.579 0 33.619-16.887 33.619-37.796 0-20.835-15.040-37.756-33.619-37.756-18.504 0-33.547 16.921-33.547 37.756zM708.835 388.871c0 20.909 15.043 37.796 33.547 37.796 18.579 0 33.619-16.887 33.619-37.796 0-20.835-15.040-37.756-33.619-37.756-18.504 0-33.547 16.921-33.547 37.756zM478.417 198.767c0 20.909 15.043 37.796 33.547 37.796 18.577 0 33.619-16.887 33.619-37.796 0-20.835-15.041-37.756-33.619-37.756-18.504 0-33.547 16.921-33.547 37.756zM478.417 388.871c0 20.909 15.043 37.796 33.547 37.796 18.577 0 33.619-16.887 33.619-37.796 0-20.835-15.041-37.756-33.619-37.756-18.504 0-33.547 16.921-33.547 37.756zM245.333 198.767c0 20.909 15.043 37.796 33.547 37.796 18.579 0 33.619-16.887 33.619-37.796 0-20.835-15.040-37.756-33.619-37.756-18.504 0-33.547 16.921-33.547 37.756zM245.333 388.871c0 20.909 15.043 37.796 33.547 37.796 18.579 0 33.619-16.887 33.619-37.796 0-20.835-15.040-37.756-33.619-37.756-18.504 0-33.547 16.921-33.547 37.756z" />
<glyph unicode="&#xe936;" glyph-name="broker" d="M690.693-16.367c-149.717 0-271.036 121.319-271.036 271.035s121.319 271.035 271.036 271.035c112.199 0 208.472-68.22 249.68-165.413l21.359 41.556c37.399 47.441-5.081 85.304-39.021 99.616l-74.107 41.44 4.735-1.731v139.443c0 4.156-122.244 123.283-123.86 123.86h-108.391v77.455c0 28.743-31.284 31.513-30.936 30.936h-147.985c-1.848-0.463-14.197 6.003-37.861-30.936v-77.456h-108.392c0.695 0-124.436-125.591-123.972-126.513v-134.249l-75.608-42.251c-34.053-14.312-70.184-52.291-32.783-99.616l92.347-191.504 62.564-226.709h472.232c28.628-1.5 7.735 0 7.735 0l-7.735 0.004zM233.927 649.563c0 4.503 85.075 78.611 103.197 93.039l172.917 1.269 173.379-1.269c18.237-14.428 107.927-88.536 107.927-92.923v-77.456l-232.251 108.276h-92.923l-232.251-108.391 0.004 77.455zM693.695 46.313c0.695 6.464 1.153 12.235 1.963 17.776 1.385 9.808 2.885 19.508 4.387 29.201 0.695 4.851 1.152 9.813 1.732 14.661l3 22.625c0.581 4.385 1.153 8.772 1.619 13.159 0.692 6.581 1.152 13.16 1.845 19.741 0.347 3.463 1.156 6.923 1.5 10.504 0.695 7.269-2.193 13.737-4.152 20.431-0.695 2.423-1.616 4.735-1.848 7.155-0.117 0.809 1.384 2.54 2.192 2.54 14.084 0.115 28.168 0.115 42.135 0.115 1.964 0 2.768-0.463 1.964-2.768-1.617-4.733-2.771-9.583-4.156-14.315-0.577-1.963-1.153-3.807-1.5-5.769-1.153-6.695-0.116-13.276 1.269-19.972 1.039-4.732 1.271-9.464 1.731-14.312 0.695-6.925 1.039-13.969 1.849-20.892 1.269-10.16 2.887-20.201 4.385-30.361 0.695-4.5 1.271-9.004 1.616-13.504 0.695-6.812 1.153-13.621 1.848-20.433 0.345-4.155 0.923-8.308 1.616-12.468 0.117-0.805 1.156-1.383 2.423-2.885 1.965 7.504 3.58 13.971 5.309 20.432 1.848 6.58 3.924 13.044 5.773 19.623 1.269 4.619 2.423 9.236 3.576 13.855 1.385 4.964 2.888 9.928 4.273 15.007 1.269 4.615 2.308 9.233 3.695 13.736 1.267 4.964 2.767 9.811 4.152 14.66 1.271 4.501 2.423 9.12 3.696 13.62 1.383 5.195 2.883 10.275 4.268 15.469 1.271 4.735 2.307 9.468 3.58 14.084 1.385 4.967 2.885 9.811 4.271 14.66 1.268 4.5 2.307 9.003 3.577 13.391 0.581 2.079 0.581 4.733 1.965 5.885 1.616 1.384 4.735 2.195 6.581 1.501 8.541-3 16.737-6.695 25.163-9.925 8.657-3.349 17.431-6.468 26.087-9.811 6.925-2.655 13.855-5.309 20.664-7.967 8.889-3.581 17.313-7.735 25.049-13.275 6.925-5.081 12.467-11.312 15.584-19.161 1.385-3.465 1.385-7.387 1.732-11.197 0.695-6.923 1.039-13.967 1.731-20.892 0.924-8.196 1.964-16.277 2.885-24.471l0.116-1.156c0.58-8.312 1.152-16.507 1.848-24.703 0.463-5.652 0.921-11.425 1.731-17.084 1.155-9.117-8.655-18.584-18.353-18.469-53.445 0.461-106.892 0.348-160.337 0.348-75.028 0-150.060 0-225.091-0.233-6.695 0-12.468 1.387-16.16 6.695-4.5 6.467-5.081 13.855-3.233 21.359 0.232 0.692 0.579 1.496 0.579 2.195 0.695 8.080 1.152 16.273 1.963 24.356 0.695 6.924 1.848 13.737 2.769 20.663l0.115 1.153c0.58 8.080 0.467 16.391 1.964 24.357 1.503 7.736 0.233 15.928 5.54 23.085 5.311 7.041 11.545 12.927 18.931 17.545 11.197 7.157 24.009 10.967 36.361 15.696 9.695 3.695 19.279 7.853 29.088 11.659 8.196 3.233 16.392 6.467 24.703 9.467 3.805 1.384 7.272-1.152 8.195-5.080 1.153-5.079 2.884-10.043 4.269-15.005 1.269-4.616 2.308-9.236 3.581-13.739 1.384-4.965 2.885-10.041 4.271-15.004 1.152-4.388 2.305-8.889 3.577-13.392 1.963-7.041 4.041-14.084 5.888-21.125 1.271-4.387 2.307-8.887 3.465-13.276 1.383-5.193 2.997-10.269 4.383-15.468 1.271-4.617 2.311-9.236 3.581-13.851 1.388-4.965 2.887-9.928 4.269-15.007 1.271-4.62 2.424-9.235 3.579-13.856 1.617-6.348 3.233-12.809 4.968-19.16-0.013-0.923 1.143-1.383 2.412-2.421v0zM627.092 361.904c1.497 8.084 3.229 18.128 5.193 28.167 2.308 11.893 7.733 22.625 14.313 32.669 9.465 14.776 22.624 26.893 38.205 34.861 7.159 3.695 14.661 6.695 22.861 7.964 5.997 0.924 12.004 2.424 18.004 2.424 6.236 0 12.584-1.037 18.817-2.193 5.771-1.155 11.656-2.771 17.084-4.964 15.004-6.117 28.164-15.929 38.321-28.512 7.619-9.353 13.623-19.509 18.008-30.472 2.54-6.352 3.809-13.161 5.195-19.74 1.269-6.003 2.652-12.236 2.652-18.355-0.229-8.425-1.035-16.855-2.42-25.28-0.695-4.964-2.080-9.695-3.233-14.659-2.195-9.352-6.235-17.779-10.621-26.204-7.501-14.312-17.66-26.549-30.359-36.823-8.195-6.695-17.544-11.889-27.704-15.236-9.004-2.887-18.239-4.964-27.701-4.387-15.124 0.921-29.781 5.885-42.251 14.429-11.312 7.616-21.124 16.737-28.397 28.164-5.195 7.851-9.809 16.045-13.967 24.472-3.351 7.273-5.656 15.007-7.851 22.741-1.153 3.809-1.385 7.967-1.845 12.007-0.808 5.768-1.385 11.192-2.305 18.925v0z" />
<glyph unicode="&#xe937;" glyph-name="generation" d="M693.052-22.495c-151.693 0-274.613 122.92-274.613 274.612s122.92 274.612 274.613 274.612c113.68 0 211.223-69.121 252.973-167.599l21.639 42.105c37.895 48.067-5.145 86.429-39.531 100.932l-75.084 41.987 4.793-1.753v141.284c0 4.209-123.856 124.908-125.492 125.493h-109.823v78.477c0 29.123-31.695 31.929-31.344 31.344h-149.939c-1.871-0.468-14.385 6.083-38.361-31.344v-78.477h-109.821c0.703 0-126.079-127.249-125.611-128.184v-136.020l-76.607-42.805c-34.501-14.503-71.111-52.983-33.217-100.932l93.567-194.031 63.389-229.7h478.468c29.005-1.523 7.836 0 7.836 0l-7.836-0.001zM230.257 652.223c0 4.561 86.196 79.648 104.559 94.267l175.199 1.285 175.668-1.285c18.479-14.619 109.353-89.705 109.353-94.149v-78.479l-235.315 109.704h-94.149l-235.315-109.819v78.476zM681.589 182.233v8.365c31.112 15.905 52.749 50.292 52.749 90.172 0 54.971-41.053 99.529-91.461 99.529s-91.225-44.56-91.225-99.529c0-39.997 21.753-74.267 52.981-90.172v-8.369c-53.659-15.595-92.745-62.941-92.745-118.995 0-5.264 0.468-10.293 1.052-15.44h260.111c0.584 5.029 1.053 10.293 1.053 15.44-0.001 56.143-38.924 103.424-92.515 118.999zM880.299 395.507h-160.464v-17.779h160.464c13.215 0 22.337-7.135 22.337-13.568v-284.553c0-6.432-9.239-13.565-22.337-13.565h-90.641v-17.78h90.641c22.572 0 40.116 13.803 40.116 31.58v284.085c0.232 17.545-17.544 31.58-40.116 31.58v0zM878.661 307.203c0-3.508-2.692-6.432-5.849-6.432h-122.805c-3.391 0-5.848 2.924-5.848 6.432v18.597c0 3.508 2.691 6.432 5.848 6.432h122.805c3.393 0 5.849-2.924 5.849-6.432v-18.597zM878.661 242.528c0-3.511-2.692-6.433-5.849-6.433h-122.805c-3.391 0-5.848 2.923-5.848 6.433v18.595c0 3.509 2.691 6.432 5.848 6.432h122.805c3.393 0 5.849-2.923 5.849-6.432v-18.595zM878.661 177.851c0-3.509-2.107-6.432-4.561-6.432h-94.969c-2.457 0-4.561 2.923-4.561 6.432v18.712c0 3.509 2.104 6.432 4.561 6.432h94.969c2.455 0 4.561-2.923 4.561-6.432v-18.712z" />
<glyph unicode="&#xe938;" glyph-name="owner" d="M691.701-18.983c-150.56 0-272.564 122.003-272.564 272.563 0 150.561 122.004 272.563 272.564 272.563 112.832 0 209.644-68.604 251.085-166.347l21.473 41.791c37.611 47.707-5.108 85.783-39.237 100.181l-74.525 41.673 4.757-1.741v140.227c0 4.18-122.932 123.976-124.559 124.557h-109.001v77.891c0 28.905-31.46 31.689-31.111 31.111h-148.811c-1.86-0.465-14.279 6.036-38.079-31.111v-77.891h-109.001c0.697 0-125.137-126.3-124.673-127.227v-135.007l-76.032-42.485c-34.247-14.395-70.581-52.585-32.969-100.18l92.865-192.584 62.917-227.985 474.9 0.001c28.788-1.512 7.777-0.001 7.777-0.001l-7.777 0.001zM232.36 650.699c0 4.527 85.555 79.053 103.777 93.563l173.893 1.277 174.356-1.277c18.343-14.509 108.537-89.036 108.537-93.447v-77.892l-233.56 109.001h-93.447l-233.557-109.001v77.776zM526.136 123.449c39.597-55.769 107.807-92.635 185.185-92.635 77.369 0 145.471 36.861 185.184 92.635h-370.369zM639.58 65.639c-1.393 0-2.671 0.465-3.713 1.396-2.089 1.853-2.089 4.987 0 6.731l26.813 24.844c2.088 1.857 5.224 1.857 7.312 0 2.087-1.861 2.087-4.993 0-6.735l-26.815-24.84c-0.927-1.047-2.205-1.396-3.597-1.396zM666.395 50.783c-1.392 0-2.787 0.465-3.831 1.392-2.089 1.972-2.089 5.109 0 7.084l47.475 44.113c2.089 1.972 5.575 1.972 7.663 0 2.087-1.975 2.087-5.109 0-7.084l-47.476-44.112c-1.044-0.928-2.439-1.393-3.831-1.393zM754.848 91.295l-47.475-43.995c-1.043-0.927-2.437-1.509-3.829-1.509-1.393 0-2.788 0.467-3.832 1.392-2.088 1.975-2.088 5.109 0 7.084l47.476 44.113c2.088 1.972 5.573 1.972 7.66 0 2.089-1.976 2.089-5.113 0-7.085zM854.333 307.789c-53.633 16.949-87.296 90.544-139.303 93.329-0.349 0-0.695 0-1.159 0h-1.861c-0.349 0-0.695 0-1.16 0-51.888-2.669-85.669-76.38-139.301-93.329-57.924-18.341-127.111 18.807-104.589-59.667 6.595-22.893 26.272-52.647 56.531-79.829v2.639h375.992v-4.975c31.829 27.816 52.527 58.64 59.316 82.169 22.644 78.469-46.424 41.321-104.465 59.663zM752.991 257.063c6.035-26.121-15.788-34.825-30.065-38.423-3.48-8.36-10.683-8.36-10.683-8.36s-7.081 0-10.679 8.36c-14.279 3.481-36.103 12.305-30.065 38.423 5.917 26.233 7.893 25.771 3.135 36.1-4.641 10.332-9.056 17.761-0.349 13.467 0 0 27.396-9.52 38.077 11.96 10.681-21.476 38.075-11.96 38.075-11.96 8.824 4.299 4.412-3.135-0.347-13.467-4.76-10.215-2.784-9.867 2.901-36.1zM536.264 159.087h360.323v8.241h-370.304v-40.164h9.98l0.001 31.923z" />
<glyph unicode="&#xe939;" glyph-name="goods" d="M691.404-18.064c-150.263 0-272.027 121.761-272.027 272.025s121.764 272.028 272.027 272.028c112.611 0 209.235-68.472 250.593-166.020l21.433 41.708c37.536 47.616-5.097 85.615-39.159 99.981l-74.379 41.592 4.751-1.739v139.953c0 4.171-122.691 123.732-124.312 124.312h-108.788v77.739c0 28.848-31.397 31.627-31.049 31.049h-148.643c-1.852-0.464-14.249 6.025-37.999-31.049v-77.739h-108.789c0.696 0-124.891-126.051-124.427-126.977v-134.739l-75.884-42.403c-34.177-14.367-70.44-52.481-32.904-99.981l92.685-192.203 62.793-227.537h474.076c28.732-1.508 7.763 0 7.763 0h-7.763zM232.852 650.3c0 4.52 85.384 78.899 103.573 93.38l173.552 1.276 174.012-1.276c18.305-14.481 108.323-88.86 108.323-93.263v-77.739l-233.099 108.787h-93.263l-233.099-108.787v77.621zM738.556 188.852c48.66 0 112.611 64.879 112.611 146.904s-41.012 114.465-112.611 114.465-114.464-31.513-114.464-114.465c0.001-81.447 65.807-146.904 114.464-146.904v0zM961.229 81.801c-5.445 15.411-12.049 30.701-18.305 37.421-11.815 12.513-79.707 48.659-109.829 64.184-7.877 4.171-17.609 1.159-21.897-6.72l-34.293-63.372c-4.864-8.919-18.305-6.487-19.695 3.592-0.348 2.201 0.116 4.401 1.157 6.255l7.531 14.483c1.969 3.821 1.507 8.341-1.276 11.7l-14.48 17.147c-3.129 3.705-7.647 5.793-12.512 5.793s-9.384-2.087-12.513-5.793l-14.481-17.147c-2.781-3.244-3.245-7.879-1.273-11.7l7.529-14.483c1.041-1.969 1.389-4.171 1.157-6.255-1.389-10.080-14.828-12.512-19.695-3.592l-34.295 63.489c-4.287 7.877-14.019 10.889-21.896 6.719-30.007-15.64-97.897-51.672-109.715-64.3-6.372-6.72-12.86-22.012-18.304-37.421-7.532-21.316 8.224-43.676 30.7-43.676h385.564c22.596 0 38.236 22.359 30.821 43.676v0z" />
<glyph unicode="&#xe93a;" glyph-name="sublet" d="M693.757-24.323c-152.283 0-275.683 123.396-275.683 275.679s123.4 275.68 275.683 275.68c114.123 0 212.043-69.391 253.959-168.251l21.721 42.267c38.037 48.256-5.167 86.768-39.685 101.327l-75.379 42.149 4.815-1.761v141.833c0 4.227-124.341 125.392-125.981 125.98h-110.251v78.783c0 29.236-31.813 32.052-31.464 31.467h-150.523c-1.877-0.469-14.44 6.105-38.509-31.467v-78.783h-110.248c0.701 0-126.572-127.743-126.1-128.681v-136.549l-76.904-42.972c-34.635-14.559-71.384-53.188-33.344-101.327l93.929-194.783 63.637-230.592h480.327c29.115-1.527 7.865 0 7.865 0l-7.865 0.001zM229.043 653.016c0 4.58 86.532 79.957 104.967 94.633l175.881 1.292 176.349-1.292c18.551-14.676 109.78-90.053 109.78-94.515v-78.784l-236.231 110.249h-94.515l-236.231-110.368v78.784zM706.552 210.259c15.264 0 29.94 2.936 43.323 8.22 13.504-5.167 28.061-8.22 43.327-8.22 66.219 0 119.875 53.659 119.875 119.76 0 66.221-53.656 119.876-119.875 119.876-15.265 0-29.823-2.935-43.327-8.219-13.499 5.167-28.059 8.219-43.323 8.219-66.219 0-119.875-53.655-119.875-119.876 0.116-66.101 53.656-119.76 119.875-119.76v0zM706.552 430.876c6.459 0 12.8-0.704 18.904-1.997-31.468-21.603-52.132-57.764-52.132-98.86 0-40.976 20.664-77.257 52.132-98.741-6.104-1.176-12.445-1.997-18.904-1.997-55.536 0-100.737 45.203-100.737 100.739 0.001 55.653 45.201 100.857 100.737 100.857v0zM793.203 173.979c-14.913 0-29.472-1.993-43.327-5.751-13.853 3.641-28.295 5.751-43.323 5.751-85.359 0-155.804-63.048-167.663-145.117h422.092c-11.976 82.069-82.424 145.117-167.78 145.117v0zM565.073 48.001c19.256 61.757 75.144 106.96 141.479 106.96 2.584 0 5.048-0.471 7.631-0.704-41.209-21.839-72.323-60.231-84.649-106.255h-64.46z" />
<glyph unicode="&#xe93b;" glyph-name="ships" d="M415.26 783.313h79.705v-9.601h-79.705v9.601zM402.289 796.283h105.645v-35.541h-105.645v35.541zM228.319 783.313h79.705v-9.601h-79.705v9.601zM215.348 796.283h105.645v-35.541h-105.645v35.541zM335.517 683.936h-112.656v159.391h112.656v-159.391zM242.065 703.14h74.248v120.983h-74.248v-120.983zM348.487 670.965h-138.596v185.332h138.596v-185.332zM255.035 716.109h48.308v95.043h-48.308v-95.043zM522.457 683.936h-112.655v159.391h112.655v-159.391zM429.007 703.14h74.248v120.983h-74.248v-120.983zM535.427 670.965h-138.595v185.332h138.595v-185.332zM441.976 716.109h48.307v95.043h-48.307v-95.043zM633.707 581.971h-475.36v88.183c0 18.191 14.796 32.988 32.988 32.988h409.403c18.191 0 32.969-14.797 32.969-32.988v-88.183zM177.551 601.173h436.953v68.979c0 7.612-6.172 13.783-13.765 13.783h-409.404c-7.613 0-13.784-6.171-13.784-13.783v-68.979zM646.677 569h-501.3v101.152c0 25.34 20.616 45.957 45.959 45.957h409.403c25.331 0 45.939-20.616 45.939-45.957v-101.152zM190.521 614.143h411.015v56.009c0 0.448-0.359 0.813-0.797 0.813h-409.404c-0.448 0-0.815-0.364-0.815-0.813v-56.009zM752.751 403.805c25.841 0 46.736-20.967 46.736-46.756 0-25.804-20.895-46.732-46.736-46.732-25.825 0-46.716 20.928-46.716 46.732-0.001 25.789 20.889 46.756 46.716 46.756zM752.751 297.345c-32.912 0-59.687 26.784-59.687 59.703 0 32.933 26.775 59.728 59.687 59.728 32.921 0 59.705-26.795 59.705-59.728 0-32.919-26.784-59.703-59.705-59.703zM752.751 390.836c-18.607 0-33.747-15.156-33.747-33.788 0-18.617 15.139-33.763 33.747-33.763 18.619 0 33.765 15.145 33.765 33.763 0 18.632-15.148 33.788-33.765 33.788zM909.225 465.151h-794.481c-5.308 0-9.601 4.295-9.601 9.603s4.293 9.603 9.601 9.603h794.481c5.307 0 9.601-4.296 9.601-9.603s-4.295-9.603-9.601-9.603zM909.225 452.18h-794.481c-12.445 0-22.572 10.125-22.572 22.572s10.125 22.572 22.572 22.572h794.481c12.447 0 22.572-10.125 22.572-22.572s-10.125-22.572-22.572-22.572zM664.596 177.876h-305.187c-121.771 0-228.839 86.399-254.568 205.449l-34.508 159.711c-3.825 17.741 7.503 35.295 25.244 39.177 2.4 0.469 4.707 0.731 6.977 0.731h818.896c18.175 0 32.972-14.777 32.972-32.969 0-2.401-0.28-4.801-0.805-7.089l-34.489-159.56c-25.713-119.051-132.761-205.449-254.532-205.449zM102.555 563.741c-1.012 0-2.025-0.112-3.039-0.337-7.276-1.576-12.021-8.927-10.428-16.316l34.508-159.712c23.855-110.253 123.027-190.295 235.815-190.295h305.187c112.787 0 211.941 80.024 235.775 190.295l34.508 159.712c0.227 1.051 0.34 1.949 0.34 2.888 0 7.577-6.171 13.765-13.768 13.765h-818.897zM664.596 164.905h-305.187c-127.843 0-240.236 90.708-267.247 215.681l-34.507 159.711c-5.325 24.695 10.443 49.18 35.148 54.587l0.287 0.059c3.349 0.655 6.445 0.972 9.463 0.972h818.896c25.333 0 45.941-20.609 45.941-45.94 0-3.316-0.375-6.644-1.113-9.892l-34.473-159.497c-26.993-124.972-139.369-215.68-267.208-215.68zM102.555 550.771c-0.063 0-0.136-0.009-0.223-0.028-0.327-0.071-0.655-0.508-0.565-0.92l34.507-159.707c22.575-104.335 116.417-180.064 223.137-180.064h305.187c106.719 0 200.547 75.728 223.097 180.064l34.507 159.712c0.017 0.075 0.032 0.145 0.044 0.216-0.036 0.396-0.392 0.728-0.795 0.728h-818.896zM659.279 348.292h-46.717c-5.325 0-9.601 4.295-9.601 9.604 0 5.305 4.276 9.601 9.601 9.601h46.717c5.308 0 9.604-4.296 9.604-9.601 0-5.311-4.296-9.604-9.604-9.604zM659.279 335.323h-46.717c-12.445 0-22.572 10.127-22.572 22.573s10.127 22.571 22.572 22.571h46.717c12.447 0 22.573-10.124 22.573-22.571s-10.127-22.573-22.573-22.573zM511.993 52.673c-29.951 0-59.901 7.611-86.607 22.841-47.56 27.156-106.599 27.156-154.121 0-53.168-30.305-118.415-25.223-166.199 12.959l-43.323 34.639c-4.125 3.321-4.8 9.361-1.5 13.504 3.337 4.107 9.339 4.801 13.503 1.501l43.323-34.639c41.577-33.252 98.364-37.677 144.668-11.271 53.412 30.492 119.764 30.492 173.176 0 47.56-27.139 106.635-27.119 154.159 0 53.373 30.492 119.745 30.492 173.157 0 46.32-26.444 103.073-22.001 144.631 11.271l43.361 34.639c4.163 3.26 10.221 2.625 13.503-1.501 3.319-4.143 2.625-10.201-1.5-13.504l-43.36-34.639c-47.767-38.221-112.976-43.321-166.161-12.959-47.523 27.156-106.599 27.156-154.12 0-26.688-15.231-56.657-22.841-86.589-22.841zM511.993 39.703c-32.705 0-64.875 8.487-93.031 24.545-21.387 12.211-45.815 18.661-70.651 18.661-24.833 0-49.251-6.451-70.611-18.656-24.516-13.973-52.216-21.357-80.12-21.359-36.273-0.001-72.003 12.587-100.611 35.445l-43.325 34.64c-9.693 7.804-11.269 22.019-3.547 31.715 4.408 5.424 10.819 8.477 17.669 8.477 5.069 0 10.053-1.737 14.033-4.892l43.367-34.673c20.605-16.48 46.317-25.556 72.401-25.556 20.087 0 40.053 5.333 57.743 15.42 28.157 16.073 60.321 24.571 93.013 24.571s64.856-8.497 93.019-24.573c21.371-12.195 45.8-18.64 70.648-18.64 24.851 0 49.281 6.447 70.653 18.641 28.137 16.075 60.296 24.572 92.991 24.572s64.861-8.497 93.025-24.573c17.691-10.1 37.655-15.439 57.733-15.439 26.065 0 51.764 9.081 72.361 25.572l43.372 34.647c4.077 3.195 9.055 4.913 14.113 4.913 6.921 0 13.349-3.087 17.633-8.473 3.748-4.677 5.456-10.581 4.781-16.587-0.672-5.988-3.628-11.357-8.325-15.116l-43.369-34.647c-28.589-22.879-64.308-35.481-100.568-35.481-27.901 0-55.605 7.397-80.12 21.393-21.364 12.208-45.788 18.659-70.631 18.659-24.844 0-49.264-6.451-70.624-18.656-28.149-16.063-60.315-24.551-93.025-24.551z" />
<glyph unicode="&#xe93c;" glyph-name="his-route" d="M183.266 413.237l-131.937 131.892c-9.059 9.059-9.059 23.733 0 32.792 9.057 9.059 23.732 9.059 32.792 0l99.145-99.1 99.144 99.1c9.059 9.059 23.733 9.059 32.793 0 9.057-9.059 9.057-23.733 0-32.792l-131.937-131.892zM558.785 677.928v0c12.864 0 23.192-10.419 23.192-23.191v-262.833c0-12.819-10.327-23.189-23.192-23.189v0c-12.771 0-23.188 10.369-23.188 23.189v262.833c0.001 12.772 10.417 23.191 23.188 23.191zM722.474 323.56v0c-4.348-12.049-17.663-18.3-29.712-13.86l-137.96 50.183c-12.049 4.393-18.3 17.711-13.861 29.712v0c4.349 12.048 17.665 18.299 29.712 13.86l137.963-50.184c12.047-4.393 18.297-17.708 13.859-29.711zM569.747 38.308c-128.903 0-247.66 58.88-325.925 161.469-7.791 10.191-5.843 24.773 4.348 32.519 10.236 7.792 24.775 5.797 32.52-4.349 69.388-91.036 174.784-143.26 289.057-143.26 200.327 0 363.337 162.964 363.337 363.337 0 200.284-163.011 363.292-363.337 363.292-200.329 0-363.292-163.008-363.292-363.292 0-12.864-10.372-23.189-23.189-23.189s-23.191 10.325-23.191 23.189c0 225.873 183.752 409.671 409.671 409.671s409.717-183.797 409.717-409.671c0.001-225.92-183.797-409.716-409.716-409.716z" />
<glyph unicode="&#xe93d;" glyph-name="folder" d="M838.613 557.679h-38.647v141.433c0 20.204-16.432 36.641-36.631 36.641h-486.115v38.647h486.115c41.509 0 75.277-33.775 75.277-75.288v-141.433zM875.265 36.145h-727.592c-56.947 0-103.277 46.329-103.277 103.277v615.655c0 56.947 46.329 103.277 103.277 103.277h94.351c22.235 0 41.699-15.793 46.281-37.555l51.069-242.287h535.891c56.948 0 103.277-46.327 103.277-103.268v-335.821c0-56.949-46.329-103.279-103.277-103.279zM147.673 819.707c-35.637 0-64.629-28.992-64.629-64.629v-615.655c0-35.637 28.992-64.631 64.629-64.631h727.592c35.637 0 64.631 28.993 64.631 64.631v335.821c0 35.632-28.993 64.621-64.631 64.621h-567.24l-57.536 272.965c-0.839 3.987-4.399 6.876-8.465 6.876h-94.351z" />
<glyph unicode="&#xe93e;" glyph-name="typhoon" d="M868.647 847.207c-17.325 17.325-36.76 32.937-57.771 46.408l-0.915 0.585-0.753 0.78c-3.88 4.008-8.951 7.028-14.664 8.731l-0.996 0.297-0.487 0.273c-1.724 0.488-6.639 1.007-8.337 1.047-10.145 0-28.707-1.684-38.195-12.956-5.751-6.831-7.531-16.839-5.297-29.748 0.952-5.583 8.805-18.067 11.713-21.915 29.124-17.237 50.004-44.733 58.804-77.54 8.927-33.284 4.355-68.049-12.88-97.889-16.247-28.131-42.535-48.896-74.023-58.471l-7.613-2.315-3.489 7.152c-44.657 91.528-126.596 158.831-224.808 184.649-29.211 7.667-59.175 11.556-89.057 11.556-158.359 0-296.977-107.131-337.096-260.52-6.149-23.519-9.821-48.185-10.913-73.319l-0.045-1.049-0.277-1.013c-1.484-5.415-1.528-11.348-0.124-17.159l0.241-0.996 0.009-0.543c0.441-1.697 2.469-6.235 3.292-7.725 5.828-9.957 18.132-26.784 34.592-26.784 7.584 0 15.749 3.623 24.268 10.768 4.319 3.653 11.128 16.756 12.971 21.197 0.191 33.872 13.403 65.772 37.299 89.921 24.232 24.488 56.547 38.063 90.989 38.224h0.648c32.548 0 63.732-12.407 87.811-34.936l5.859-5.48-4.537-6.615c-57.671-84.063-75.827-188.617-49.812-286.856 40.499-152.852 179.012-259.607 336.84-259.607 30.411 0 60.676 3.973 89.957 11.809 23.581 6.255 46.849 15.231 69.18 26.683l0.973 0.5 1.064 0.26c5.433 1.332 10.452 4.132 14.917 8.323l0.721 0.677 0.441 0.267c1.255 1.223 4.221 5.249 5.076 6.647 5.197 8.967 12.987 25.764 8.028 39.58-3.020 8.413-10.792 14.989-23.1 19.548-0.924 0.352-4.397 1.403-13.575 1.403-4.943 0-9.308-0.335-11.285-0.563-19.189-10.731-40.875-16.395-62.827-16.395-46.108 0-88.977 24.808-111.88 64.744-16.873 29.313-21.356 63.744-12.615 96.935l1.984 7.531 7.765-0.604c8.001-0.623 16.548-0.937 25.404-0.937 93.145 0 180.664 36.195 246.432 101.917 66.043 65.941 102.415 153.605 102.415 246.847-0.005 93.195-36.341 180.797-102.323 246.675zM838.931 383.339c-29.311-29.267-63.417-51.885-101.364-67.228-36.801-14.877-75.643-22.42-115.449-22.42-7.285 0-14.828 0.285-22.42 0.848l-42.415 3.065-10.825-41.112c-11.596-43.887-5.648-89.519 16.745-128.497 15.175-26.515 37.255-48.5 63.864-63.593 12.92-7.327 26.872-12.969 41.469-16.767l48.48-12.617-49.771-5.689c-11.856-1.355-23.751-2.041-35.359-2.041-33.484 0-66.587 5.5-98.391 16.348-31.387 10.677-60.665 26.251-87.016 46.288-26.557 20.143-49.544 44.369-68.311 71.999-19.329 28.581-33.655 60.128-42.588 93.779-11.645 44.048-13.445 88.849-5.353 133.168 7.704 42.348 24.727 83.577 49.228 119.223l24.928 36.313-32.169 30.124c-31.863 29.843-73.232 46.277-116.487 46.277h-0.873c-23.045-0.117-45.417-4.764-66.492-13.811-20.312-8.7-38.52-21.115-54.125-36.901-0.251-0.251-0.452-0.459-0.653-0.667l-0.664-0.679-34.048-34.303 18.827 44.513c7.653 18.095 17.093 35.516 28.060 51.78 18.624 27.635 41.603 51.956 68.297 72.289 26.425 20.127 55.76 35.768 87.192 46.487 31.883 10.893 65.068 16.417 98.628 16.417 26.295 0 52.671-3.435 78.397-10.211 43.949-11.553 83.779-32.061 118.376-60.952 32.971-27.543 60.431-62.641 79.417-101.505l19.175-39.304 41.807 12.729c41.709 12.695 76.556 40.256 98.124 77.608 11.557 19.989 18.833 41.64 21.627 64.356 2.731 21.781 1.236 43.708-4.439 65.199-0.224 0.711-0.456 1.475-0.655 2.333l-10.059 43.355 26.629-35.66c15.688-21.007 28.565-43.833 38.277-67.844 14.909-36.765 22.469-75.624 22.469-115.491 0-39.924-7.577-78.817-22.521-115.6-15.453-38.091-38.188-72.277-67.571-101.607z" />
<glyph unicode="&#xe93f;" glyph-name="remove" d="M510.929 913.963c-257.445 0-466.892-209.447-466.892-466.892 0-257.443 209.447-466.888 466.892-466.888 257.443 0 466.888 209.445 466.888 466.888 0 257.445-209.445 466.892-466.888 466.892zM813.625 144.373c-80.757-80.759-188.257-125.233-302.695-125.233-114.439 0-221.937 44.473-302.696 125.233-80.759 80.756-125.236 188.256-125.236 302.696 0 114.439 44.476 221.939 125.236 302.697 80.757 80.759 188.257 125.233 302.695 125.233s221.937-44.475 302.695-125.232c80.76-80.759 125.237-188.259 125.237-302.697s-44.476-221.94-125.236-302.697zM734.635 466.548h-447.412c-12.032 0-19.481-10.111-19.481-19.477 0-12.031 10.112-19.477 19.481-19.477h447.412c12.017 0 19.483 7.464 19.483 19.477 0 12.031-10.113 19.477-19.483 19.477z" />
<glyph unicode="&#xe940;" glyph-name="pre_doub" d="M556.909-20.653l-468.276 468.32 468.276 468.32zM935.367-20.653l-468.271 468.32 468.271 468.32z" />
<glyph unicode="&#xe941;" glyph-name="next_doub" d="M467.091 915.987l468.276-468.32-468.276-468.32zM88.633 915.987l468.271-468.32-468.271-468.32z" />
<glyph unicode="&#xe942;" glyph-name="question" d="M538.625 400.029c-22.656-14.417-32.956-29.524-34.329-54.925l-2.747-52.865h-19.224l-3.433 89.94c-0.687 23.344 6.179 38.448 53.552 70.029 58.359 39.135 69.344 96.119 42.568 139.372-21.972 35.015-65.224 44.627-81.015 28.836-20.597-20.597-47.373-17.164-52.865 4.12-4.119 15.104 9.612 34.328 36.388 34.328 83.761 0 155.849-56.985 155.849-135.253 0-47.372-22.656-78.268-94.744-123.581zM495.371 185.821c-20.597 0-37.761 16.477-37.761 37.075s17.164 37.76 37.761 37.76c20.597 0 37.761-17.164 37.761-37.76s-17.163-37.075-37.761-37.075zM509.613 903.011c-252.101 0-457.2-205.1-457.2-457.203 0-252.1 205.099-457.197 457.2-457.197 252.103 0 457.204 205.099 457.204 457.2s-205.101 457.2-457.204 457.2zM509.613 29.207c-229.716 0-416.603 186.887-416.603 416.603 0 229.717 186.888 416.605 416.603 416.605 229.717 0 416.605-186.888 416.605-416.605s-186.888-416.603-416.605-416.603z" />
<glyph unicode="&#xe943;" glyph-name="dengchuan" d="M705.745 21.882h-468.065l-192.547 219.501h932.409l-271.797-219.501zM252.78 55.215h441.187l189.248 152.835h-764.501l134.067-152.835zM427.129 322.987h-296.404l296.404 395.208v-395.208zM197.392 356.32h196.404v261.875l-196.404-261.875zM883.106 317.534h-325.044v554.501l325.044-554.501zM591.396 350.867h233.533l-233.533 398.391v-398.391z" />
<glyph unicode="&#xe944;" glyph-name="gongji" d="M43.806 916h230.476v-34.923h-230.476v34.923zM43.806 916h34.923v-230.476h-34.923v230.476zM43.806-18.667h230.476v34.923h-230.476v-34.923zM43.806-18.667h34.923v230.576h-34.923v-230.576zM978.47 916h-230.664v-34.923h230.664v34.923zM978.47 916h-34.923v-230.476h34.923v230.476zM978.47-18.667h-230.664v34.923h230.664v-34.923zM978.47-18.667h-34.923v230.576h34.923v-230.576zM511.046 157.335c-77.801 0-150.941 30.308-205.948 85.341-55 55.027-85.289 128.184-85.289 205.995 0 77.808 30.289 150.963 85.289 205.988 55.008 55.033 128.148 85.341 205.948 85.341 77.803 0 150.944-30.308 205.952-85.341 55-55.025 85.291-128.18 85.291-205.988 0-77.811-30.291-150.968-85.291-205.995-55.008-55.033-128.151-85.341-205.952-85.341zM511.046 705.076c-141.333 0-256.315-115.024-256.315-256.407 0-141.387 114.983-256.412 256.315-256.412 141.335 0 256.319 115.027 256.319 256.412 0 141.383-114.985 256.407-256.319 256.407zM493.584 916h34.924v-191.368h-34.924v191.368zM493.584 172.7h34.924v-191.367h-34.924v191.367zM511.046 313.871c-74.325 0-134.793 60.471-134.793 134.799 0 74.377 60.468 134.888 134.793 134.888 74.328 0 134.8-60.511 134.8-134.888-0.001-74.328-60.472-134.799-134.8-134.799zM511.046 548.634c-55.069 0-99.871-44.844-99.871-99.964 0-55.071 44.801-99.876 99.871-99.876 55.073 0 99.876 44.805 99.876 99.876 0 55.12-44.804 99.964-99.876 99.964zM787.102 466.131h191.367v-34.923h-191.367v34.923zM43.806 466.131h191.371v-34.923h-191.371v34.923z" />
<glyph unicode="&#xe945;" glyph-name="haidao" d="M134.609 295.756c-49.963 0-90.609 40.647-90.609 90.607 0 49.964 40.647 90.611 90.609 90.611s90.609-40.647 90.609-90.611c0-49.96-40.647-90.607-90.609-90.607zM134.609 440.648c-29.933 0-54.284-24.352-54.284-54.285 0-29.931 24.352-54.283 54.284-54.283s54.284 24.352 54.284 54.283c0 29.935-24.351 54.285-54.284 54.285zM585.313 175.061c-81.015 0-146.924 65.912-146.924 146.925s65.911 146.924 146.924 146.924c81.092 0 147.067-65.911 147.067-146.924s-65.973-146.925-147.067-146.925zM585.313 432.587c-60.985 0-110.6-49.616-110.6-110.6s49.613-110.6 110.6-110.6c61.064 0 110.741 49.615 110.741 110.6s-49.677 110.6-110.741 110.6zM964.805 47.672c-90.491 37.435-185.247 95.871-276.124 170.932l23.132 28.008c88.087-72.756 179.732-129.323 266.879-165.373l-13.887-33.567zM481.681 423.195c-65.681 74.759-165.828 210.597-297.655 403.744l30.003 20.477c130.997-191.931 230.231-326.592 294.941-400.245l-27.289-23.976z" />
<glyph unicode="&#xe946;" glyph-name="haidaojunyan" d="M704.972 634.684c1.369 4.46 0.916 9.189-1.28 13.319-3.025 5.741-8.931 9.284-15.439 9.284-2.864 0-5.609-0.688-8.157-2.043l-364.087-192.865c-4.123-2.176-7.137-5.816-8.503-10.257-1.371-4.459-0.917-9.188 1.279-13.319 3.025-5.743 8.92-9.287 15.409-9.287 2.879 0 5.628 0.689 8.172 2.043l364.104 192.864c4.12 2.176 7.136 5.819 8.501 10.261zM333.549 624.432l364.095-192.861c2.565-1.365 5.313-2.055 8.191-2.055 6.495 0 12.392 3.543 15.389 9.243 2.219 4.175 2.672 8.904 1.3 13.365-1.364 4.441-4.376 8.081-8.48 10.248l-364.096 192.864c-2.568 1.36-5.321 2.051-8.183 2.051-6.477 0-12.388-3.555-15.423-9.275-2.2-4.136-2.653-8.867-1.283-13.327 1.365-4.444 4.381-8.087 8.489-10.253zM99.187-20.165c13.676 0 24.803 11.128 24.803 24.805v884.672c0 13.677-11.127 24.804-24.803 24.804-13.679 0-24.807-11.127-24.807-24.804v-884.672c0-13.677 11.128-24.805 24.807-24.805zM896.244 268.38l55.341-14.78v622.324l-64.785 17.527c-52.252 14.056-106.416 21.185-160.953 21.185-77.241 0-152.676-14.019-224.209-41.669-71.339-27.585-146.591-41.573-223.659-41.573-58.417 0-116.245 8.173-171.88 24.295l-31.719 9.175v-621.583l31.779-9.8c55.736-17.224 113.639-25.957 172.111-25.957 72.312 0 143.071 13.224 210.312 39.308 75.756 29.237 155.535 44.056 237.153 44.056 57.772 0 115.14-7.572 170.509-22.507zM470.707 293.077c-61.437-23.803-126.265-35.875-192.659-35.875-0.004 0 0.003 0-0.001 0-47.743 0-95.121 6.361-140.821 18.908l-13.236 3.633v519.556l21.581-4.379c43.345-8.793 87.864-13.252 132.323-13.251 83.156 0.001 164.451 15.163 241.628 45.059 65.641 25.412 134.975 38.296 206.081 38.296 50.204 0 100.085-6.549 148.26-19.467l28.116-7.632v-519.425l-21.965 4.955c-50.432 11.373-102.373 17.141-154.379 17.141-87.684 0-173.452-15.988-254.928-47.52z" />
<glyph unicode="&#xe947;" glyph-name="jiaohuo" d="M606.232 226.594l-313.463 173.824 260.769 470.471 230.169 40.929 83.347-214.535-260.823-470.688zM338.846 413.626l254.172-140.944 236.685 427.134-67.498 173.75-186.844-33.223-236.514-426.716zM470.393-18.455l-313.447 173.817 68.799 124.296 313.588-173.826-68.941-124.287zM203.005 168.579l254.187-140.955 36.054 65-254.27 140.94-35.971-64.985z" />
<glyph unicode="&#xe948;" glyph-name="jiechi" d="M904.597 900.46l-8.588 12.236-0.504 0.515c-1.725 1.76-4.020 2.729-6.459 2.729-2.404 0-4.671-0.944-6.415-2.689l-535.064-540.501-16.615 11.395c-9.953 6.825-22.417 10.584-35.096 10.584-16.844 0-32.668-6.417-43.416-17.605l-25.959-27.025c-10.228-10.621-15.113-24.093-13.755-37.941 1.404-14.301 9.6-27.653 22.561-36.683l13.22-9.009c-17.588-18.475-67.909-71.063-142.12-148.62-10.511-10.991-15.303-24.723-13.485-38.727 1.919-14.019 9.837-26.439 22.291-34.973l75.387-51.753c10.657-7.259 23.38-11.097 36.791-11.097 2.056 0 4 0 6.265 0.228 15.588 1.265 29.676 7.776 39.637 18.299l144.339 150.468c2.211-1.513 4.932-3.385 7.92-5.439l5.047-3.469c10.572-7.277 23.273-11.125 36.733-11.125 0.967 0 1.993 0.052 3.033 0.108 0.747 0.040 1.504 0.084 2.24 0.084l0.771 0.032c15.531 1.361 29.585 7.863 39.58 18.312l23.549 24.636c10.807 11.413 15.968 25.871 14.172 39.693-1.453 13.979-9.393 26.651-22.425 35.727l-14.771 10.132 318.777 314.893c26.861 26.524 63.147 81.643 83.66 144.976 16.803 51.46 28.485 124.737-11.303 181.612zM385.221 172.632l-142.42-148.557c-3.151-3.359-7.717-5.445-13.215-6.040-5.511-0.409-10.704 0.895-14.796 3.757l-75.46 51.811c-3.636 2.424-5.849 5.831-6.388 9.749-0.451 3.628 0.863 7.217 3.769 10.18l144.323 150.451c15.568-10.584 59.512-40.709 104.187-71.351zM503.7 219.468c4.045-2.779 6.503-6.577 6.919-10.695 0.381-3.757-1.032-7.511-3.999-10.588l-23.937-25.008c-3.304-3.272-8.095-5.416-13.145-5.887-5.365-0.495-10.513 0.764-14.592 3.551l-19.139 13.192-176.265 121.016c-3.88 2.693-6.239 6.365-6.643 10.34-0.375 3.675 0.94 7.201 3.785 10.189l26.063 27.236c3.063 3.203 7.98 5.115 13.152 5.115 3.971 0 7.831-1.135 10.823-3.163l196.979-135.299zM384.376 354.607l498.157 503.463c16.091-42.145 6.356-92.451-5.341-128.567-18.772-57.788-51.031-107.18-74.68-130.499l-319.848-315.871-98.288 71.473z" />
<glyph unicode="&#xe949;" glyph-name="junyan" d="M512.001 363.851l-118.561-62.316 22.688 131.957-95.955 93.509 132.584 19.261 59.244 120.1 59.317-120.1 132.509-19.261-95.951-93.509 22.688-131.957zM900.255 502.139l80.672 190.331h-145.071v66.861l-8.855 5.711c-77.488 49.983-183.459 75.327-314.963 75.327-131.479 0-237.471-25.341-315.032-75.323l-8.861-5.709v-66.868h-145.061l80.672-190.331h64.389v-51.68h-51.396l51.396-117.645v-155.293l323.893-132.876 323.816 132.877v161.048l51.795 118.556h-51.795v45.013h64.4zM797.189 203.451l-285.151-117.013-285.225 117.015v534.599c70.473 42.244 166.359 63.651 285.227 63.651 118.888 0 214.745-21.405 285.151-63.645v-534.605z" />
<glyph unicode="&#xe94a;" glyph-name="keyi" d="M559.895 778.083c0 26.411-21.487 47.897-47.899 47.897-26.407 0-47.891-21.487-47.891-47.897v-449.004c0-26.408 21.484-47.891 47.891-47.891 26.412 0 47.899 21.483 47.899 47.891v449.004zM511.997 225.292c-41.336 0-74.967-33.633-74.967-74.972 0-41.336 33.629-74.965 74.967-74.965 41.34 0 74.972 33.629 74.972 74.965 0 41.339-33.632 74.972-74.972 74.972z" />
<glyph unicode="&#xe94b;" glyph-name="chufa" d="M558.667 45.413c0.825 0.144 84.221 15.343 166.331 78.695 104.776 80.844 160.263 199.404 165.117 352.64l-64.232-61.779 22.408-19.167-1.529-5.689c-0.641-2.384-16.229-59.083-61.072-119.069-26.401-35.317-57.501-64.369-92.436-86.348-43.715-27.503-93.5-43.901-147.973-48.739l-10.159-0.903v323.253h170.399c11.795 0 21.391 9.595 21.391 21.389s-9.596 21.387-21.391 21.387h-170.4v108.355c0 11.793-9.611 21.388-21.424 21.388s-21.425-9.595-21.425-21.388v-108.355h-177.143c-11.813 0-21.424-9.593-21.424-21.387 0-11.795 9.611-21.389 21.424-21.389h177.141v-323.46l-10.072 0.801c-55.12 4.377-105.492 20.507-149.715 47.936-35.345 21.923-66.805 51.044-93.505 86.555-45.348 60.311-61.088 117.567-61.737 119.973l-1.529 5.685 22.376 19.167-64.201 61.777c4.867-153.563 60.575-272.297 165.769-353.136 82.111-63.097 164.852-78.049 165.677-78.193l3.144-0.547 43.493-47.673 0.031 0.035 0.029-0.033 43.491 47.672 3.147 0.547zM512 905.733c-81.997 0-148.705-66.709-148.705-148.705s66.708-148.705 148.705-148.705c81.996 0 148.705 66.709 148.705 148.705s-66.709 148.705-148.705 148.705zM512 648.695c-59.732 0-108.327 48.597-108.327 108.333 0 59.753 48.595 108.367 108.327 108.367 59.755 0 108.369-48.613 108.369-108.367 0-59.735-48.615-108.333-108.369-108.333z" />
<glyph unicode="&#xe94c;" glyph-name="lishi" d="M80.477 82.704h263.521c-7.967 14.535-15.137 29.769-21.441 45.56h-242.080c-12.561 0-22.78-10.217-22.78-22.777-0.001-12.563 10.219-22.783 22.78-22.783zM669.223 615.655c-163.811 0-297.080-133.251-297.080-297.037 0-163.811 133.269-297.081 297.080-297.081s297.081 133.269 297.081 297.081c0 163.787-133.271 297.037-297.081 297.037zM669.223 67.012c-138.736 0-251.605 112.869-251.605 251.605s112.869 251.605 251.605 251.605 251.605-112.869 251.605-251.605-112.869-251.605-251.605-251.605zM80.477 580.348h298.373c12.459 16.177 26.069 31.392 40.707 45.519h-339.080c-12.561 0-22.78-10.221-22.78-22.783-0.001-12.537 10.219-22.736 22.78-22.736zM80.477 331.547h213.649c0.976 15.456 2.764 30.663 5.347 45.476h-218.996c-12.561 0-22.78-10.221-22.78-22.784-0.001-12.512 10.219-22.692 22.78-22.692zM80.477 829.191h799.185c12.563 0 22.784 10.199 22.784 22.735 0 12.54-10.221 22.741-22.784 22.741h-799.185c-12.561 0-22.78-10.201-22.78-22.741-0.001-12.536 10.219-22.735 22.78-22.735zM724.048 384.297h-86.957v114.408c0 12.539-10.22 22.741-22.783 22.741-12.56 0-22.777-10.201-22.777-22.741v-137.107c0-12.563 10.217-22.784 22.777-22.784h109.74c12.516 0 22.697 10.221 22.697 22.784 0.001 12.516-10.181 22.699-22.697 22.699z" />
<glyph unicode="&#xe94d;" glyph-name="qixiang" d="M785.943 467.265l-11.512 1.415-4.491 10.695c-31.58 75.223-104.779 123.828-186.48 123.828-111.345 0-201.96-90.493-202.215-201.827 0.028-0.184 0.059-0.365 0.088-0.547 0.199-1.248 0.5-3.132 0.568-5.361l0.489-16.028-15.537-3.963c-70.032-17.863-118.944-80.508-118.944-152.341 0-87.004 70.811-157.787 157.848-157.787h355.633c111.503 0 202.217 90.715 202.217 202.217 0.001 101.405-76.379 187.256-177.665 199.699zM761.392 114.253h-355.633c-60.072 0-108.944 48.845-108.944 108.883s48.872 108.883 108.944 108.883c13.251 0 23.996 11.032 24.463 25.116 0.157 5.261 0.291 8.857 0.392 11.584 0.135 3.612 0.201 5.424 0.201 7.737 0 2.3-0.084 5.253-0.236 10.619-0.096 3.389-0.219 7.684-0.361 13.319l-0.007 0.508c0 64.416 41.056 122.336 102.165 144.128l0.816 0.272 8.109 2.5c15.405 4.389 28.801 6.435 42.159 6.435 49.509 0 96.255-24.26 125.043-64.895l13.645-19.26-21.24-10.299c-0.552-0.268-0.552-0.268-1.231-0.616-8.327-4.211-13.441-12.577-13.441-21.879 0-13.436 10.904-24.368 24.305-24.368 1.331 0 2.695 0.125 4.055 0.369l0.78 0.125c0.164 0.023 0.327 0.043 0.489 0.067 1.549 0.521 3.148 1.013 4.695 1.444 13.604 3.967 27.292 5.976 40.684 5.976 84.629 0 153.48-68.785 153.48-153.333 0.001-84.539-68.784-153.315-153.332-153.315zM307.273 414.485c2.619 48.368 17.852 94.988 44.397 135.549 25.713 39.291 60.953 71.441 102.436 93.584-27.412 35.511-69.384 56.381-114.473 56.381-79.9 0-144.904-64.995-144.904-144.884 0-67.257 47.607-125.729 112.544-140.631zM174.335 406.079l-31.495-31.496c-4.468-4.477-4.472-11.765 0-16.237 2.168-2.169 5.069-3.363 8.168-3.363 3.113 0 6.040 1.203 8.243 3.389l31.389 31.305c4.435 4.511 4.459 11.893-0.020 16.384-2.191 2.185-5.103 3.399-8.183 3.399-3.059 0-5.937-1.203-8.103-3.381zM72.881 543.568h44.452c6.413 0 11.632 5.18 11.632 11.548s-5.219 11.549-11.632 11.549h-44.452c-6.368 0-11.548-5.181-11.548-11.549s5.18-11.548 11.548-11.548zM159.224 751.827c-2.199 2.199-5.116 3.409-8.216 3.409-3.084 0-5.975-1.2-8.14-3.381-4.489-4.533-4.505-11.871-0.028-16.349l31.468-31.468c2.168-2.168 5.056-3.361 8.129-3.361 3.093 0 6.016 1.207 8.228 3.399 4.464 4.464 4.452 11.825-0.064 16.373l-31.377 31.379zM339.633 765.784c6.368 0 11.549 5.181 11.549 11.549v44.452c0 6.368-5.181 11.548-11.549 11.548-6.379 0-11.569-5.18-11.569-11.548v-44.452c0-6.368 5.189-11.549 11.569-11.549zM536.369 751.861c-2.165 2.16-5.088 3.373-8.188 3.373-3.080 0-5.968-1.2-8.133-3.383l-31.501-31.439c-4.481-4.513-4.493-11.875 0.007-16.375 2.168-2.168 5.077-3.363 8.192-3.363s6.024 1.195 8.192 3.361l31.469 31.468c4.476 4.477 4.46 11.816-0.037 16.356z" />
<glyph unicode="&#xe94e;" glyph-name="yuji" d="M512.038-17.976c-62.911 0-123.947 12.323-181.415 36.625-55.499 23.471-105.335 57.067-148.127 99.853-42.791 42.788-76.389 92.617-99.861 148.107-24.305 57.457-36.628 118.48-36.628 181.375 0 62.903 12.323 123.933 36.627 181.395 23.472 55.493 57.069 105.327 99.861 148.116s92.628 76.385 148.127 99.856c57.468 24.304 118.504 36.627 181.416 36.627 62.895 0 123.917-12.323 181.373-36.627 55.488-23.471 105.317-57.067 148.104-99.856s76.38-92.623 99.851-148.116c24.304-57.463 36.625-118.492 36.625-181.395 0-153.769-75.796-297.54-202.756-384.585-77.752-53.239-168.76-81.375-263.197-81.375zM512.038 875.728c-235.879 0-427.781-191.885-427.781-427.744 0-235.84 191.903-427.711 427.781-427.711 86.692 0 170.228 25.823 241.579 74.677 116.543 79.905 186.127 211.883 186.127 353.033-0.001 235.859-191.868 427.744-427.705 427.744zM447.759 609.733h38.249v-281.968h-38.249v281.968zM447.759 366.014h281.969v-38.249h-281.969v38.249z" />
<glyph unicode="&#xe94f;" glyph-name="broadcast" d="M540.101 773.557c0 16.585-11.805 26.439-22.483 30.123-19.672-0.132-28.751-2.523-30.976-3.868l-247.271-179.709h-161.059c-15.312 0-20.871-29.111-20.871-48.679v-276.264c0-9.191 1.156-14.861 3.536-17.336 2.399-2.496 8.231-3.761 17.335-3.761h160.899l247.34-176.743c5.393-3.463 24.76-6.955 32.68-6.955 5.708 0 20.869 0 20.869 33.212v649.98zM498.569 135.712l-234.828 178.199h-164.557v266.229h164.617l234.768 181.408v-625.836zM740.457 448.605c0 80.509-58.268 149.169-140.252 167.52v-41.409c57.477-17.632 96.921-68.428 96.921-126.204 0-57.748-39.448-108.552-96.921-126.22v-41.365c81.988 18.539 140.252 87.263 140.252 167.679zM832.609 728.093c-5.871 0-11.356-2.145-15.441-6.041l-68.547-65.005c-3.937-3.76-6.113-8.731-6.1-13.975 0.012-5.191 2.175-10.088 6.089-13.791 4.133-3.917 9.643-6.071 15.524-6.071 5.861 0 11.328 2.141 15.395 6.029l68.6 65.020c3.979 3.772 6.165 8.728 6.155 13.957-0.011 5.187-2.185 10.081-6.124 13.783-4.157 3.941-9.669 6.093-15.551 6.093zM815.325 173.988c4.133-3.92 9.64-6.079 15.519-6.079 5.859 0 11.324 2.145 15.391 6.039 4.041 3.813 6.231 8.756 6.223 13.972-0.008 5.181-2.189 10.073-6.139 13.776l-68.608 65.009c-4.131 3.92-9.639 6.077-15.516 6.077-5.86 0-11.325-2.144-15.392-6.039-4.040-3.812-6.231-8.755-6.221-13.972 0.008-5.183 2.189-10.075 6.139-13.777l68.605-65.007zM944.893 427.621c11.945 0 21.664 8.955 21.664 19.961-0.075 10.985-9.793 19.981-21.664 19.981h-96.923c-11.947 0-21.667-8.964-21.667-19.981 0-11.007 9.72-19.961 21.667-19.961h96.923z" />
</font>
</defs>
</svg>
