<?xml version="1.0" encoding="UTF-8"?>
<svg width="16px" height="16px" viewBox="0 0 16 16" version="1.1" xmlns="http://www.w3.org/2000/svg" xmlns:xlink="http://www.w3.org/1999/xlink">
    <!-- Generator: Sketch 50.2 (55047) - http://www.bohemiancoding.com/sketch -->
    <title>dengchuan</title>
    <desc>Created with Sketch.</desc>
    <defs></defs>
    <g id="7/19" stroke="none" stroke-width="1" fill-rule="evenodd">
        <g id="dengchuan">
            <g id="Oval-9">
                <circle cx="8" cy="8" r="8"></circle>
            </g>
            <path d="M7.91586914,6.60454247 L12.7837891,7.88623192 L10.2422852,12.8907241 L7.99189453,12.563478 L5.70644531,12.8907241 L3.2,7.88623192 L7.91586914,6.60454247 Z M6.32817383,3.77148583 L9.51582031,3.77148583 L9.51582031,4.64758442 L11.1302734,4.64758442 L11.1302734,6.24074269 L11.899707,7.29228661 L7.94750977,6.1695327 L4.08549805,7.29228661 L4.73129883,6.3785659 L4.73129883,6.24602196 L4.73129883,4.66172599 L6.32817383,4.64758442 L6.32817383,3.77148583 Z M5.78802459,5.16854267 L5.78802459,5.99375988 L7.43845901,5.99375988 L7.43845901,5.16854267 L5.78802459,5.16854267 Z M8.53874862,5.16854267 L8.53874862,5.99375988 L10.189183,5.99375988 L10.189183,5.16854267 L8.53874862,5.16854267 Z M7.88551882,2.4 L9.58208965,2.4 L7.88551882,3.51855614 L7.88551882,2.4 Z" id="Combined-Shape" fill="#FFFFFF"></path>
        </g>
    </g>
</svg>