<?xml version="1.0" encoding="UTF-8"?>
<svg width="18px" height="18px" viewBox="0 0 18 18" version="1.1" xmlns="http://www.w3.org/2000/svg" xmlns:xlink="http://www.w3.org/1999/xlink">
    <!-- Generator: Sketch 50.2 (55047) - http://www.bohemiancoding.com/sketch -->
    <title>chuanbosousuo-01</title>
    <desc>Created with Sketch.</desc>
    <defs></defs>
    <g id="7/19" stroke="none" stroke-width="1"  fill-rule="evenodd">
        <g id="chuanbosousuo-01">
            <path d="M8.5,11.75 C7.25735931,11.75 6.25,10.7426407 6.25,9.5 C6.25,8.25735931 7.25735931,7.25 8.5,7.25 C9.74264069,7.25 10.75,8.25735931 10.75,9.5 C10.75,10.7426407 9.74264069,11.75 8.5,11.75 Z M8.5,10.25 C8.91421356,10.25 9.25,9.91421356 9.25,9.5 C9.25,9.08578644 8.91421356,8.75 8.5,8.75 C8.08578644,8.75 7.75,9.08578644 7.75,9.5 C7.75,9.91421356 8.08578644,10.25 8.5,10.25 Z" id="Oval-25-Copy-2" fill-rule="nonzero"></path>
            <path d="M8.54545455,16.0909091 C4.93049982,16.0909091 2,13.1604093 2,9.54545455 C2,5.93049982 4.93049982,3 8.54545455,3 C12.1604093,3 15.0909091,5.93049982 15.0909091,9.54545455 C15.0909091,13.1604093 12.1604093,16.0909091 8.54545455,16.0909091 Z M8.56207137,14.0337691 C11.0473527,14.0337691 13.0620714,12.0190505 13.0620714,9.53376909 C13.0620714,7.04848771 11.0473527,5.03376909 8.56207137,5.03376909 C6.07678999,5.03376909 4.06207137,7.04848771 4.06207137,9.53376909 C4.06207137,12.0190505 6.07678999,14.0337691 8.56207137,14.0337691 Z" id="Oval-25-Copy" fill-rule="nonzero"></path>
            <path d="M8.36233733,0.244634971 C8.38436905,0.244634971 8.40639417,0.245397982 8.42837307,0.246922632 C8.95412166,0.283393163 9.35075989,0.739161809 9.31428936,1.26491039 L8.87166374,7.64567275 C8.85660013,7.86282528 8.67605103,8.0312838 8.45837665,8.0312838 C8.23928123,8.0312838 8.0561624,7.86457695 8.03564994,7.64644387 L7.43536128,1.2628701 C7.43263642,1.23389347 7.43127175,1.20480502 7.43127175,1.17570056 C7.43127175,0.661487233 7.84812401,0.244634971 8.36233733,0.244634971 Z M8.45566399,18.4984805 C8.43036839,18.4984805 8.40508301,18.4974634 8.37986914,18.4954316 C7.86040174,18.4535712 7.47322471,17.9985252 7.51508505,17.4790578 L8.06120593,10.7019511 C8.07874243,10.4843314 8.26046632,10.3166623 8.47879146,10.3166623 C8.69678952,10.3166623 8.87792253,10.4847308 8.89421142,10.7021195 L9.40197273,17.4786122 C9.40374064,17.5022065 9.40462552,17.5258586 9.40462552,17.549519 C9.40462552,18.073616 8.97976097,18.4984805 8.45566399,18.4984805 Z" id="Combined-Shape" transform="translate(8.417949, 9.371558) rotate(-30.000000) translate(-8.417949, -9.371558) "></path>
            <path d="M8.68632307,1.26005952 C8.71245955,1.26005952 8.73858469,1.26114859 8.76463049,1.26332389 C9.2824566,1.30657188 9.66717818,1.76141231 9.62393019,2.27923842 L9.08190432,8.76913891 C9.06371936,8.986875 8.88168977,9.15433553 8.6631956,9.15433553 C8.44503939,9.15433553 8.26362078,8.98645948 8.24672983,8.76895815 L7.74278142,2.27971667 C7.74088817,2.25533769 7.73994048,2.2308945 7.73994048,2.20644211 C7.73994048,1.68376944 8.1636504,1.26005952 8.68632307,1.26005952 Z M8.70989842,18.6560112 C8.68367415,18.6560112 8.65746135,18.6549145 8.63132874,18.6527239 C8.11367453,18.6093311 7.72920974,18.1545126 7.77260258,17.6368584 L8.31419953,11.175886 C8.33245247,10.9581378 8.51451404,10.7906992 8.73302589,10.7906992 C8.95119865,10.7906992 9.13264715,10.958555 9.14960121,11.176068 L9.65315023,17.6363766 C9.65505684,17.6608375 9.65601122,17.6853633 9.65601122,17.7098984 C9.65601122,18.2324221 9.2324221,18.6560112 8.70989842,18.6560112 Z" id="Combined-Shape" transform="translate(8.697976, 9.958035) rotate(90.000000) translate(-8.697976, -9.958035) "></path>
            <path d="M8.6873867,0.237765033 C8.71357678,0.237765033 8.73975543,0.238858777 8.76585423,0.241043406 C9.28357541,0.28437983 9.66814023,0.739206876 9.6248038,1.25692805 L9.06728325,7.91738059 C9.04905679,8.13512405 8.86700768,8.30257121 8.64850272,8.30257121 C8.43055497,8.30257121 8.24951278,8.13444173 8.23341496,7.91708929 L7.74019901,1.25769878 C7.73847008,1.23435481 7.73760473,1.21095491 7.73760473,1.187547 C7.73760473,0.662996905 8.1628366,0.237765033 8.6873867,0.237765033 Z M8.43850653,18.4686196 C8.41054728,18.4686196 8.3826021,18.4673653 8.35475528,18.4648605 C7.84052039,18.418606 7.46114737,17.9642396 7.50740191,17.4500047 L8.11279861,10.7195063 C8.13240576,10.5015238 8.31510238,10.3345228 8.53396493,10.3345228 C8.75147024,10.3345228 8.9317147,10.503183 8.94614197,10.7202093 L9.39339559,17.4481447 C9.39480027,17.4692749 9.39550319,17.490446 9.39550319,17.5116229 C9.39550319,18.0401576 8.96704119,18.4686196 8.43850653,18.4686196 Z" id="Combined-Shape" transform="translate(8.565859, 9.353192) rotate(30.000000) translate(-8.565859, -9.353192) "></path>
        </g>
    </g>
</svg>
