<?xml version="1.0" encoding="UTF-8"?>
<svg width="20px" height="20px" viewBox="0 0 20 20" version="1.1" xmlns="http://www.w3.org/2000/svg" xmlns:xlink="http://www.w3.org/1999/xlink">
    <!-- Generator: Sketch 50.2 (55047) - http://www.bohemiancoding.com/sketch -->
    <title>chuanbodangan</title>
    <desc>Created with Sketch.</desc>
    <defs></defs>
    <g id="7/19" stroke="none" stroke-width="1"  fill-rule="evenodd">
        <g id="chuanbodangan" transform="translate(0.000000, 4.000000)" >
            <path d="M1.15615845,1.33956909 C3.94266196,2.00435964 6.5099137,3.57989625 8.85791366,6.06617894 C10.6490698,8.10474419 13.8663853,8.89009154 18.5098602,8.422221 L18.5098581,8.42220053 C18.6192338,8.41117998 18.7170048,8.49049082 18.7287802,8.59978779 C18.9191309,10.3665959 17.8288375,11.25 15.4578999,11.25 C13.0001489,11.25 7.89541129,11.25 0.143687004,11.25 C-0.0478956681,10.6733618 -0.0478956681,10.3335821 0.143687004,10.230661 C0.978537663,10.230661 2.51562825,7.4741363 0.685714216,3.24144351 C0.5696123,2.76659965 0.141424508,2.14953187 0.153213173,1.8524656 C0.166714526,1.51224076 0.501029617,1.34127526 1.15615845,1.33956909 Z" id="Path-37"></path>
            <path d="M9.97959767,1.40010376 L9.97959767,2.29148741 C9.97959767,2.40194436 10.0691407,2.49148741 10.1795977,2.49148741 L12.5675656,2.49148741 C12.7127823,2.49148741 12.8562567,2.5231149 12.9880142,2.58417105 L16.2463032,4.09405568 L16.2463032,5.46707153 L12.9905403,3.93207069 C12.8571684,3.86918958 12.711541,3.8365812 12.564089,3.8365812 L9.60401877,3.83647546 C9.49350342,3.83647546 9.40391303,3.92606585 9.40391303,4.0365812 C9.40391303,4.04977188 9.40521729,4.06293024 9.40780677,4.07586425 C9.48321571,4.45251885 9.59615605,4.7510132 9.74662781,4.97134729 C10.2784729,5.75012207 11.0788966,6.39369965 11.5120435,6.59096053 C12.3266062,6.96192331 13.4312873,7.36023289 16.4042047,7.42007251 C17.3805415,7.42007251 18.1190982,7.33705933 18.619875,7.17103298 L18.619901,7.17111153 C18.7017602,7.14397212 18.757019,7.0674351 18.757019,6.9811943 L18.757019,2.8019938 C18.757019,2.50382582 18.9399419,2.23619581 19.2177511,2.12790808 L19.5511185,1.99796417 C19.6279159,1.96802914 19.6784831,1.89404559 19.6784831,1.81162013 L19.6784831,1.06128235 C19.6784831,0.950825399 19.58894,0.861282349 19.4784831,0.861282349 L16.8529711,0.861282349 C16.7425142,0.861282349 16.6529711,0.950825399 16.6529711,1.06128235 L16.6529711,3.13015442 C16.6529711,3.24061137 16.5634281,3.33015442 16.4529711,3.33015442 L15.8022263,3.33015442 C15.6917693,3.33015442 15.6022263,3.24061137 15.6022263,3.13015442 L15.6022263,2.61976355 C15.6022263,2.54159444 15.5566851,2.47058959 15.485639,2.43798809 L12.9865828,1.29122649 C12.8557412,1.23118618 12.7134787,1.20010376 12.5695191,1.20010376 L10.1795977,1.20010376 C10.0691407,1.20010376 9.97959767,1.28964681 9.97959767,1.40010376 Z" id="Path-38"></path>
        </g>
    </g>
</svg>
