<?xml version="1.0" encoding="UTF-8"?>
<svg width="12px" height="12px" viewBox="0 0 12 12" version="1.1" xmlns="http://www.w3.org/2000/svg" xmlns:xlink="http://www.w3.org/1999/xlink">
    <!-- Generator: Sketch 50.2 (55047) - http://www.bohemiancoding.com/sketch -->
    <title>guanbi</title>
    <desc>Created with Sketch.</desc>
    <defs></defs>
    <g id="7/19" stroke="none" stroke-width="1" fill-rule="evenodd">
        <path d="M6,7.35056854 L2.64694254,10.703626 C2.26108982,11.0894787 1.64595932,11.0999391 1.27301012,10.7269899 C0.900060916,10.3540407 0.910521283,9.73891018 1.296374,9.35305746 L4.64943146,6 L1.296374,2.64694254 C0.910521283,2.26108982 0.900060916,1.64595932 1.27301012,1.27301012 C1.64595932,0.900060916 2.26108982,0.910521283 2.64694254,1.296374 L6,4.64943146 L9.35305746,1.296374 C9.73891018,0.910521283 10.3540407,0.900060916 10.7269899,1.27301012 C11.0999391,1.64595932 11.0894787,2.26108982 10.703626,2.64694254 L7.35056854,6 L10.703626,9.35305746 C11.0894787,9.73891018 11.0999391,10.3540407 10.7269899,10.7269899 C10.3540407,11.0999391 9.73891018,11.0894787 9.35305746,10.703626 L6,7.35056854 Z" id="guanbi" fill-rule="nonzero"></path>
    </g>
</svg>