<?xml version="1.0" encoding="UTF-8"?>
<svg width="14px" height="14px" viewBox="0 0 14 14" version="1.1" xmlns="http://www.w3.org/2000/svg" xmlns:xlink="http://www.w3.org/1999/xlink">
    <!-- Generator: Sketch 50.2 (55047) - http://www.bohemiancoding.com/sketch -->
    <title>fangda</title>
    <desc>Created with Sketch.</desc>
    <defs></defs>
    <g id="7/19" stroke="none" stroke-width="1" fill="none" fill-rule="evenodd">
        <path d="M6.01873779,5.98510742 L6.01873779,3 C6.01873779,2.44771525 6.46645304,2 7.01873779,2 C7.57102254,2 8.01873779,2.44771525 8.01873779,3 L8.01873779,5.98510742 L11,5.98510742 C11.5522847,5.98510742 12,6.43282267 12,6.98510742 C12,7.53739217 11.5522847,7.98510742 11,7.98510742 L8.01873779,7.98510742 L8.01873779,11 C8.01873779,11.5522847 7.57102254,12 7.01873779,12 C6.46645304,12 6.01873779,11.5522847 6.01873779,11 L6.01873779,7.98510742 L3,7.98510742 C2.44771525,7.98510742 2,7.53739217 2,6.98510742 C2,6.43282267 2.44771525,5.98510742 3,5.98510742 L6.01873779,5.98510742 Z" id="fangda" fill="#000000"></path>
    </g>
</svg>