<?xml version="1.0" encoding="UTF-8"?>
<svg width="16px" height="16px" viewBox="0 0 16 16" version="1.1" xmlns="http://www.w3.org/2000/svg" xmlns:xlink="http://www.w3.org/1999/xlink">
    <!-- Generator: Sketch 50.2 (55047) - http://www.bohemiancoding.com/sketch -->
    <title>jiaohuo</title>
    <desc>Created with Sketch.</desc>
    <defs></defs>
    <g id="7/19" stroke="none" stroke-width="1" fill-rule="evenodd">
        <g id="jiaohuo">
            <g id="Oval-5">
                <circle cx="8" cy="8" r="8"></circle>
            </g>
            <path d="M8.84965969,2.33493805 C7.6470708,3.10377653 6.99330658,4.03940432 6.88836702,5.14182143 C6.73095767,6.79544709 7.37564684,6.86469956 7.37564684,7.55640034 C7.37564684,8.01753418 7.21322023,8.47931881 6.88836702,8.94175422 C6.00637101,8.6010115 5.56537301,7.89686937 5.56537301,6.82932785 C5.56537301,5.76178632 5.64939997,5.19928418 5.8174539,5.14182143 C3.70502753,6.82932785 3.08669943,8.62765467 3.96246961,10.5368019 C5.27612486,13.4005227 8.2700157,13.3861298 9.49962856,13.0656598 C10.7292414,12.7451897 12.1308559,11.4864663 12.3692602,9.37247375 C12.5281964,7.9631454 12.070814,6.85374066 10.9971132,6.04425953 C11.2331398,6.95704977 11.2331398,7.5975496 10.9971132,7.96575903 C10.5234136,8.7047465 9.94991525,8.94175422 9.94991525,8.94175422 C9.94991525,8.94175422 10.5738887,7.06092465 8.84965969,5.70225639 C7.70017368,4.79647756 7.70017368,3.67403811 8.84965969,2.33493805 Z" id="Path-18" fill="#FFFFFF"></path>
        </g>
    </g>
</svg>