<?xml version="1.0" encoding="UTF-8"?>
<svg width="16px" height="16px" viewBox="0 0 16 16" version="1.1" xmlns="http://www.w3.org/2000/svg" xmlns:xlink="http://www.w3.org/1999/xlink">
    <!-- Generator: Sketch 50.2 (55047) - http://www.bohemiancoding.com/sketch -->
    <title>fujindechuan</title>
    <desc>Created with Sketch.</desc>
    <defs></defs>
    <g id="7/19" stroke="none" stroke-width="1" fill="none" fill-rule="evenodd">
        <g id="fujindechuan">
            <circle id="Oval-27-Copy" fill="#000000" cx="8" cy="8" r="8"></circle>
            <g id="Group-16-Copy-2" transform="translate(1.000000, 1.000000)" fill="#FFFFFF">
                <path d="M4.66666667,7.19255744 C5.09622147,7.19255744 5.44444444,6.84433447 5.44444444,6.41477966 C5.44444444,5.98522486 5.09622147,5.63700189 4.66666667,5.63700189 C4.23711186,5.63700189 3.88888889,5.98522486 3.88888889,6.41477966 C3.88888889,6.84433447 4.23711186,7.19255744 4.66666667,7.19255744 Z" id="Oval-2"></path>
                <path d="M9.33333333,7.18827311 C9.76288814,7.18827311 10.1111111,6.84005014 10.1111111,6.41049533 C10.1111111,5.98094053 9.76288814,5.63271756 9.33333333,5.63271756 C8.90377853,5.63271756 8.55555556,5.98094053 8.55555556,6.41049533 C8.55555556,6.84005014 8.90377853,7.18827311 9.33333333,7.18827311 Z" id="Oval-2-Copy"></path>
                <path d="M7.09493883,4.70210107 C5.94082317,4.70210107 5.00173948,3.76289684 5.00173948,2.60847479 C5.00173948,1.45436924 5.94082317,0.515323257 7.09493883,0.515323257 C8.24921272,0.515323257 9.18829641,1.45436924 9.18829641,2.60847479 C9.18845463,3.76289684 8.24921272,4.70210107 7.09493883,4.70210107 Z M7.0963345,3.87344219 C7.78889883,3.87344219 8.35244398,3.30991965 8.35234905,2.61726642 C8.35234905,1.92480309 7.78889883,1.36137551 7.0963345,1.36137551 C6.4038651,1.36137551 5.84041489,1.92480309 5.84041489,2.61726642 C5.84041489,3.30991965 6.4038651,3.87344219 7.0963345,3.87344219 Z" id="Combined-Shape" fill-rule="nonzero"></path>
                <rect id="Rectangle-6" x="4.37860082" y="6.02813247" width="5.47890175" height="1" rx="0.5"></rect>
                <path d="M6.59241985,3.88460414 C6.45081959,6.96785821 6.3034313,8.68170859 6.15025499,9.02615526 C5.93079291,9.34336175 5.450236,9.89679972 4.33828057,9.68149143 C3.59697695,9.53795256 2.78665726,8.9112498 1.90732151,7.80138312 L1.65524631,7.80138312 C2.45846897,9.55159675 3.16005452,10.6962958 3.76000298,11.2354804 C4.65992567,12.0442573 5.78244358,12.2397461 7.01091851,12.2397461 C7.02293085,11.8443263 7.02453352,8.92289966 7.01572654,4.01101905 C6.84844632,4.01879544 6.70420329,3.96607802 6.59241985,3.88460414 Z" id="Combined-Shape"></path>
                <path d="M11.9371735,3.88888889 C11.7955733,6.97214296 11.648185,8.68599334 11.4950087,9.03044001 C11.2755466,9.3476465 10.7949897,9.90108447 9.68303426,9.68577618 C8.94173064,9.54223731 8.13141095,8.91553455 7.2520752,7.80566787 L7,7.80566787 C7.80322266,9.5558815 8.50480821,10.7005806 9.10475667,11.2397652 C10.0046794,12.048542 11.1271973,12.2440308 12.3556722,12.2440308 C12.3676845,11.8486111 12.3692872,8.92718441 12.3604802,4.0153038 C12.1932,4.02308019 12.048957,3.97036277 11.9371735,3.88888889 Z" id="Combined-Shape" transform="translate(9.683034, 8.066460) scale(-1, 1) translate(-9.683034, -8.066460) "></path>
                <polygon id="Triangle" transform="translate(12.231428, 7.704742) rotate(25.000000) translate(-12.231428, -7.704742) " points="12.2314275 6.53807523 13.3980942 8.87140856 12.2314275 8.24029487 11.0647608 8.87140856"></polygon>
                <polygon id="Triangle" transform="translate(1.785995, 7.666147) scale(-1, 1) rotate(25.000000) translate(-1.785995, -7.666147) " points="1.78599463 6.49948066 2.9526613 8.832814 1.78599463 8.20170031 0.619327966 8.832814"></polygon>
                <polygon id="Triangle-8" transform="translate(6.998125, 12.592651) rotate(180.000000) translate(-6.998125, -12.592651) " points="6.98708767 12.2037625 7.63308377 12.9815403 6.36316596 12.9815403"></polygon>
            </g>
        </g>
    </g>
</svg>