<?xml version="1.0" encoding="UTF-8"?>
<svg width="18px" height="18px" viewBox="0 0 18 18" version="1.1" xmlns="http://www.w3.org/2000/svg" xmlns:xlink="http://www.w3.org/1999/xlink">
    <!-- Generator: Sketch 50.2 (55047) - http://www.bohemiancoding.com/sketch -->
    <title>gangkouchaxun-01</title>
    <desc>Created with Sketch.</desc>
    <defs></defs>
    <g id="7/19" stroke="none" stroke-width="1"  fill-rule="evenodd">
        <g id="gangkouchaxun-01" >
            <path d="M6,9.24757385 C6.55228475,9.24757385 7,8.7998586 7,8.24757385 C7,7.6952891 6.55228475,7.24757385 6,7.24757385 C5.44771525,7.24757385 5,7.6952891 5,8.24757385 C5,8.7998586 5.44771525,9.24757385 6,9.24757385 Z" id="Oval-2"></path>
            <path d="M12,9.24206543 C12.5522847,9.24206543 13,8.79435018 13,8.24206543 C13,7.68978068 12.5522847,7.24206543 12,7.24206543 C11.4477153,7.24206543 11,7.68978068 11,8.24206543 C11,8.79435018 11.4477153,9.24206543 12,9.24206543 Z" id="Oval-2-Copy"></path>
            <path d="M9.12206421,6.04555851 C7.63820122,6.04555851 6.4308079,4.83801022 6.4308079,3.3537533 C6.4308079,1.86990331 7.63820122,0.662558473 9.12206421,0.662558473 C10.6061306,0.662558473 11.813524,1.86990331 11.813524,3.3537533 C11.8137274,4.83801022 10.6061306,6.04555851 9.12206421,6.04555851 Z M9.12385864,4.98013996 C10.0142985,4.98013996 10.7388565,4.25561098 10.7387345,3.36505683 C10.7387345,2.47474684 10.0142985,1.75033994 9.12385864,1.75033994 C8.23354085,1.75033994 7.50910486,2.47474684 7.50910486,3.36505683 C7.50910486,4.25561098 8.23354085,4.98013996 9.12385864,4.98013996 Z" id="Combined-Shape" fill-rule="nonzero"></path>
            <rect id="Rectangle-6" x="5.62962963" y="7.75045603" width="7.04430226" height="1" rx="0.5"></rect>
            <path d="M8.47596838,4.99449104 C8.2939109,8.95867485 8.10441167,11.1621968 7.9074707,11.6050568 C7.62530518,12.0128937 7.00744629,12.7244568 5.57778931,12.4476318 C4.62468465,12.2630819 3.58284505,11.4573212 2.45227051,10.0303497 L2.12817383,10.0303497 C3.16088867,12.2806244 4.06292725,13.7523804 4.83428955,14.4456177 C5.99133301,15.4854736 7.43457031,15.7368164 9.01403809,15.7368164 C9.02948252,15.2284196 9.0315431,11.4722996 9.02021984,5.15702449 C8.80514526,5.16702271 8.61968994,5.09924316 8.47596838,4.99449104 Z" id="Combined-Shape"></path>
            <path d="M15.3477946,5 C15.1657371,8.96418381 14.9762378,11.1677057 14.7792969,11.6105657 C14.4971313,12.0184026 13.8792725,12.7299658 12.4496155,12.4531408 C11.4965108,12.2685908 10.4546712,11.4628301 9.32409668,10.0358587 L9,10.0358587 C10.0327148,12.2861334 10.9347534,13.7578893 11.7061157,14.4511266 C12.8631592,15.4909826 14.3063965,15.7423254 15.8858643,15.7423254 C15.9013087,15.2339285 15.9033693,11.4778085 15.892046,5.16253346 C15.6769714,5.17253167 15.4915161,5.10475213 15.3477946,5 Z" id="Combined-Shape" transform="translate(12.449615, 10.371163) scale(-1, 1) translate(-12.449615, -10.371163) "></path>
            <polygon id="Triangle" transform="translate(15.726121, 9.906097) rotate(25.000000) translate(-15.726121, -9.906097) " points="15.7261211 8.40609672 17.2261211 11.4060967 15.7261211 10.5946648 14.2261211 11.4060967"></polygon>
            <polygon id="Triangle" transform="translate(2.296279, 9.856475) scale(-1, 1) rotate(25.000000) translate(-2.296279, -9.856475) " points="2.29627881 8.35647514 3.79627881 11.3564751 2.29627881 10.5450433 0.796278814 11.3564751"></polygon>
            <polygon id="Triangle-8" transform="translate(8.997589, 16.190552) rotate(180.000000) translate(-8.997589, -16.190552) " points="8.98339844 15.6905518 9.81396484 16.6905518 8.18121338 16.6905518"></polygon>
        </g>
    </g>
</svg>
