<?xml version="1.0" encoding="UTF-8"?>
<svg width="18px" height="18px" viewBox="0 0 18 18" version="1.1" xmlns="http://www.w3.org/2000/svg" xmlns:xlink="http://www.w3.org/1999/xlink">
    <!-- Generator: Sketch 50.2 (55047) - http://www.bohemiancoding.com/sketch -->
    <title>guanzhu</title>
    <desc>Created with Sketch.</desc>
    <defs></defs>
    <g id="7/19" stroke="none" stroke-width="1"  fill-rule="evenodd">
        <path d="M2.2117987,9.67159879 C1.45956869,8.8568183 1,7.76779245 1,6.57142857 C1,4.04669829 3.04669829,2 5.57142857,2 C6.97612882,2 8.23285204,2.63356498 9.07142857,3.63052529 C9.9100051,2.63356498 11.1667283,2 12.5714286,2 C15.0961589,2 17.1428571,4.04669829 17.1428571,6.57142857 C17.1428571,7.80768447 16.6521294,8.92932477 15.8548405,9.75218292 L15.8448681,9.76244316 C15.8177424,9.79026506 15.7902651,9.81774243 15.7624432,9.84486808 L9.88953786,15.7177734 C9.50393895,16.1033723 8.88049936,16.1089427 8.48807201,15.7302953 L2.56547361,10.0156681 C2.45098001,9.91566101 2.34151923,9.8100389 2.23751975,9.69923024 L2.20974731,9.67243304 L2.2117987,9.67159879 Z" id="guanzhu" ></path>
    </g>
</svg>
