<?xml version="1.0" encoding="UTF-8"?>
<svg width="20px" height="20px" viewBox="0 0 20 20" version="1.1" xmlns="http://www.w3.org/2000/svg" xmlns:xlink="http://www.w3.org/1999/xlink">
    <!-- Generator: Sketch 50.2 (55047) - http://www.bohemiancoding.com/sketch -->
    <title>haidao</title>
    <desc>Created with Sketch.</desc>
    <defs></defs>
    <g id="7/19" stroke="none" stroke-width="1" fill="none" fill-rule="evenodd">
        <g id="0首页-船盘详情-小屏显示" transform="translate(-1327.000000, -600.000000)">
            <g id="haidao" transform="translate(1327.000000, 600.000000)">
                <circle id="Oval-27-Copy-2" fill="#FF5C4A" cx="10" cy="10" r="10"></circle>
                <g id="Group-6" transform="translate(5.000000, 3.000000)" fill="#FFFFFF">
                    <path d="M4.9128201,0 C6.60158246,0.0289594894 7.83399415,0.425018906 8.61005517,1.18817825 C9.38611619,1.95133759 9.72057011,3.00954196 9.61341691,4.36279135 C9.34970288,4.88718969 9.21784586,5.25996991 9.21784586,5.48113203 C9.21784586,5.81287521 9.9387748,6.30458988 9.77609585,6.85871169 C9.66764322,7.22812623 9.17071028,7.4128335 8.28529702,7.4128335 C8.0176209,7.62823745 7.79581778,7.93127091 7.61988767,8.32193389 C7.35599251,8.90792834 6.28022283,9.33334304 5.7370101,9.33334304 C5.37486828,9.33334304 5.10013828,9.33334304 4.9128201,9.33334304 C4.70769579,9.33334304 4.42406272,9.33334304 4.0619209,9.33334304 C3.51870817,9.33334304 2.4429385,8.90792834 2.17904333,8.32193389 C2.00311322,7.93127091 1.7813101,7.62823745 1.51363398,7.4128335 C0.62822072,7.4128335 0.131287777,7.22812623 0.0228351482,6.85871169 C-0.139843795,6.30458988 0.620001347,5.81287521 0.620001347,5.48113203 C0.620001347,5.25996991 0.475172262,4.88718969 0.185514091,4.36279135 C0.0783608949,3.00954196 0.412814808,1.95133759 1.18887583,1.18817825 C1.96493685,0.425018906 3.20625161,0.0289627258 4.9128201,9.70931918e-06 Z M2.54057617,5.68117676 C2.87677399,5.68117676 4.10976562,4.87282715 4.10976562,4.15983887 C4.10976562,3.44685059 3.49008789,2.93125 2.80769043,3.18195801 C2.12529297,3.43266602 1.87526855,4.68911133 1.87526855,5.20505371 C1.87526855,5.72099609 2.20437836,5.68117676 2.54057617,5.68117676 Z M7.28155518,5.68117676 C7.61775299,5.68117676 7.94686279,5.72099609 7.94686279,5.20505371 C7.94686279,4.68911133 7.69683838,3.43266602 7.01444092,3.18195801 C6.33204346,2.93125 5.71236572,3.44685059 5.71236572,4.15983887 C5.71236572,4.87282715 6.94535736,5.68117676 7.28155518,5.68117676 Z M5.11562534,5.6 C4.57447548,5.6 4.0700687,7.61587524 4.23011508,7.70559692 C4.39016147,7.7953186 4.71636386,7.53841553 5.11562534,7.44155884 C5.42636142,7.46715088 5.71466708,7.80599976 5.86698032,7.70559692 C6.01006503,7.66069336 5.65677519,5.6 5.11562534,5.6 Z" id="Combined-Shape"></path>
                    <path d="M4.9,11.924671 C4.06340402,12.2290253 3.084713,12.5938915 1.96392696,13.0192697 C1.68957129,13.4993231 1.37801564,13.7481173 1.02926001,13.7656524 C0.506126564,13.7919551 0.33528422,13.2996932 0.40631928,13.0995026 C0.477354341,12.8993121 -0.111255101,12.9523091 0.0188479147,12.2363075 C0.105583258,11.7589731 0.675580912,11.817051 1.72884087,12.410541 L3.95832705,11.5863807 C2.51197657,11.0744231 1.63564,10.8052092 1.32931735,10.778739 C0.548024728,10.7112254 0.0299270044,10.5702878 0.00105011272,10.1202392 C-0.027826779,9.6701906 0.548443402,9.70119387 0.548443402,9.60662871 C0.548443402,9.51206354 0.518112781,9.1 1.00265842,9.1 C1.32568884,9.1 1.61622785,9.45150203 1.87427544,10.1545061 L4.85302655,11.2556426 L7.9244751,10.1202392 C8.18335566,9.44007973 8.47431116,9.1 8.79734158,9.1 C9.28188722,9.1 9.2515566,9.51206354 9.2515566,9.60662871 C9.2515566,9.70119387 9.82782678,9.6701906 9.79894989,10.1202392 C9.770073,10.5702878 9.25197527,10.7112254 8.47068265,10.778739 C8.16098797,10.8055006 7.26866076,11.0803795 5.79370102,11.6033759 L8.06990967,12.4448079 C9.1240026,11.8284733 9.69441674,11.7589731 9.78115209,12.2363075 C9.9112551,12.9523091 9.32264566,12.8993121 9.39368072,13.0995026 C9.46471578,13.2996932 9.29387344,13.7919551 8.77073999,13.7656524 C8.42198436,13.7481173 8.11042871,13.4993231 7.83607304,13.0192697 C6.715287,12.5938915 5.73659598,12.2290253 4.9,11.924671 Z" id="Combined-Shape"></path>
                </g>
            </g>
        </g>
    </g>
</svg>