<?xml version="1.0" encoding="UTF-8"?>
<svg width="18px" height="18px" viewBox="0 0 18 18" version="1.1" xmlns="http://www.w3.org/2000/svg" xmlns:xlink="http://www.w3.org/1999/xlink">
    <!-- Generator: Sketch 50.2 (55047) - http://www.bohemiancoding.com/sketch -->
    <title>hangxianhangsu-01</title>
    <desc>Created with Sketch.</desc>
    <defs></defs>
    <g id="7/19" stroke="none" stroke-width="1" fill-rule="evenodd">
        <g id="hangxianhangsu-01" transform="translate(1.000000, 1.000000)">
            <path d="M8,3.2 C7.70544813,3.2 7.46666667,2.96121853 7.46666667,2.66666667 C7.46666667,2.3721148 7.70544813,2.13333333 8,2.13333333 C8.29455187,2.13333333 8.53333333,2.3721148 8.53333333,2.66666667 C8.53333333,2.96121853 8.29455187,3.2 8,3.2 Z M8,13.8666667 C7.70544813,13.8666667 7.46666667,13.6278852 7.46666667,13.3333333 C7.46666667,13.0387815 7.70544813,12.8 8,12.8 C8.29455187,12.8 8.53333333,13.0387815 8.53333333,13.3333333 C8.53333333,13.6278852 8.29455187,13.8666667 8,13.8666667 Z" id="Combined-Shape"></path>
            <path d="M8,3.2 C7.70544813,3.2 7.46666667,2.96121853 7.46666667,2.66666667 C7.46666667,2.3721148 7.70544813,2.13333333 8,2.13333333 C8.29455187,2.13333333 8.53333333,2.3721148 8.53333333,2.66666667 C8.53333333,2.96121853 8.29455187,3.2 8,3.2 Z M8,13.8666667 C7.70544813,13.8666667 7.46666667,13.6278852 7.46666667,13.3333333 C7.46666667,13.0387815 7.70544813,12.8 8,12.8 C8.29455187,12.8 8.53333333,13.0387815 8.53333333,13.3333333 C8.53333333,13.6278852 8.29455187,13.8666667 8,13.8666667 Z" id="Combined-Shape" transform="translate(8.000000, 8.000000) rotate(-45.000000) translate(-8.000000, -8.000000) "></path>
            <path d="M8,3.2 C7.70544813,3.2 7.46666667,2.96121853 7.46666667,2.66666667 C7.46666667,2.3721148 7.70544813,2.13333333 8,2.13333333 C8.29455187,2.13333333 8.53333333,2.3721148 8.53333333,2.66666667 C8.53333333,2.96121853 8.29455187,3.2 8,3.2 Z M8,13.8666667 C7.70544813,13.8666667 7.46666667,13.6278852 7.46666667,13.3333333 C7.46666667,13.0387815 7.70544813,12.8 8,12.8 C8.29455187,12.8 8.53333333,13.0387815 8.53333333,13.3333333 C8.53333333,13.6278852 8.29455187,13.8666667 8,13.8666667 Z" id="Combined-Shape" transform="translate(8.000000, 8.000000) rotate(45.000000) translate(-8.000000, -8.000000) "></path>
            <path d="M8,3.2 C7.70544813,3.2 7.46666667,2.96121853 7.46666667,2.66666667 C7.46666667,2.3721148 7.70544813,2.13333333 8,2.13333333 C8.29455187,2.13333333 8.53333333,2.3721148 8.53333333,2.66666667 C8.53333333,2.96121853 8.29455187,3.2 8,3.2 Z M8,13.8666667 C7.70544813,13.8666667 7.46666667,13.6278852 7.46666667,13.3333333 C7.46666667,13.0387815 7.70544813,12.8 8,12.8 C8.29455187,12.8 8.53333333,13.0387815 8.53333333,13.3333333 C8.53333333,13.6278852 8.29455187,13.8666667 8,13.8666667 Z" id="Combined-Shape" transform="translate(8.000000, 8.000000) rotate(90.000000) translate(-8.000000, -8.000000) "></path>
            <path d="M8,14.5 C11.5898509,14.5 14.5,11.5898509 14.5,8 C14.5,4.41014913 11.5898509,1.5 8,1.5 C4.41014913,1.5 1.5,4.41014913 1.5,8 C1.5,11.5898509 4.41014913,14.5 8,14.5 Z M8,16 C3.581722,16 0,12.418278 0,8 C0,3.581722 3.581722,0 8,0 C12.418278,0 16,3.581722 16,8 C16,12.418278 12.418278,16 8,16 Z" id="Oval-25" fill-rule="nonzero"></path>
            <path d="M8,10.1 C6.84020203,10.1 5.9,9.15979797 5.9,8 C5.9,6.84020203 6.84020203,5.9 8,5.9 C9.15979797,5.9 10.1,6.84020203 10.1,8 C10.1,9.15979797 9.15979797,10.1 8,10.1 Z M8,9.1 C8.60751322,9.1 9.1,8.60751322 9.1,8 C9.1,7.39248678 8.60751322,6.9 8,6.9 C7.39248678,6.9 6.9,7.39248678 6.9,8 C6.9,8.60751322 7.39248678,9.1 8,9.1 Z" id="Oval-26" fill-rule="nonzero"></path>
            <polygon id="Triangle-7" transform="translate(11.466457, 6.586973) rotate(68.000000) translate(-11.466457, -6.586973) " points="11.4720129 4.1919207 12.9516154 8.96258106 9.98129933 8.98202618"></polygon>
        </g>
    </g>
</svg>
