<?xml version="1.0" encoding="UTF-8"?>
<svg width="12px" height="12px" viewBox="0 0 12 12" version="1.1" xmlns="http://www.w3.org/2000/svg" xmlns:xlink="http://www.w3.org/1999/xlink">
    <!-- Generator: Sketch 50.2 (55047) - http://www.bohemiancoding.com/sketch -->
    <title>laiyuan</title>
    <desc>Created with Sketch.</desc>
    <defs></defs>
    <g id="7/19" stroke="none" stroke-width="1" fill="none" fill-rule="evenodd">
        <path d="M4,1 L11,1 L11,3 L4,3 L4,1 Z M4,5 L11,5 L11,7 L4,7 L4,5 Z M4,9 L11,9 L11,11 L4,11 L4,9 Z M2,3 C1.44771525,3 1,2.55228475 1,2 C1,1.44771525 1.44771525,1 2,1 C2.55228475,1 3,1.44771525 3,2 C3,2.55228475 2.55228475,3 2,3 Z M2,7 C1.44771525,7 1,6.55228475 1,6 C1,5.44771525 1.44771525,5 2,5 C2.55228475,5 3,5.44771525 3,6 C3,6.55228475 2.55228475,7 2,7 Z M2,11 C1.44771525,11 1,10.5522847 1,10 C1,9.44771525 1.44771525,9 2,9 C2.55228475,9 3,9.44771525 3,10 C3,10.5522847 2.55228475,11 2,11 Z" id="laiyuan" fill="#000000"></path>
    </g>
</svg>