<?xml version="1.0" encoding="UTF-8"?>
<svg width="18px" height="18px" viewBox="0 0 18 18" version="1.1" xmlns="http://www.w3.org/2000/svg" xmlns:xlink="http://www.w3.org/1999/xlink">
    <!-- Generator: Sketch 50.2 (55047) - http://www.bohemiancoding.com/sketch -->
    <title>lishishuju</title>
    <desc>Created with Sketch.</desc>
    <defs></defs>
    <g id="7/19" stroke="none" stroke-width="1" fill="none" fill-rule="evenodd">
        <path d="M15.5579911,16.4735163 L2.40013337,16.4735163 L2.40013337,16.4735163 C1.62686106,16.4735163 1,15.8466552 1,15.0733829 L1,15.0390625 L1,2.40933639 L1,2.40013337 C1,1.62686106 1.62686106,1 2.40013337,1 L15.5579911,1 L15.5906636,1 C16.3690186,1 17,1.6309814 17,2.40933639 L17,15.0390625 L17,15.0390625 C17,15.8312895 16.3577732,16.4735163 15.5655462,16.4735163 L15.5579911,16.4735163 Z M15.5579911,2.40933639 L2.40013337,2.40933639 L2.40013337,15.0179443 L15.5579911,15.0179443 L15.5579911,2.40933639 Z M6.01715088,6.51953125 L4.48352051,6.51953125 L4.48352051,5.00054932 L6.01715088,5.00054932 L6.01715088,6.51953125 Z M6.00190735,9.5035553 L4.4982605,9.5035553 L4.4982605,8.00193787 L6.00190735,8.00193787 L6.00190735,9.5035553 Z M5.99995422,12.4786682 L4.51116943,12.4786682 L4.51116943,11.0018463 L5.99995422,11.0018463 L5.99995422,12.4786682 Z M13.0036469,11.000885 L13.0036469,12.4872284 L7.00196838,12.4872284 L7.00196838,11.000885 L13.0036469,11.000885 Z M7.00366211,8.00396729 L13.0097046,8.00396729 L13.0097046,9.51989746 L7.00366211,9.51989746 L7.00366211,8.00396729 Z M7.01745605,5.01501465 L13.0112915,5.01501465 L13.0112915,6.52392578 L7.01745605,6.52392578 L7.01745605,5.01501465 Z" id="lishishuju" fill="#000000" fill-rule="nonzero"></path>
    </g>
</svg>