<?xml version="1.0" encoding="UTF-8"?>
<svg width="18px" height="18px" viewBox="0 0 18 18" version="1.1" xmlns="http://www.w3.org/2000/svg" xmlns:xlink="http://www.w3.org/1999/xlink">
    <!-- Generator: Sketch 50.2 (55047) - http://www.bohemiancoding.com/sketch -->
    <title>lishihangxian-01</title>
    <desc>Created with Sketch.</desc>
    <defs></defs>
    <g id="7/19" stroke="none" stroke-width="1"  fill-rule="evenodd">
        <g id="lishihangxian-01" transform="translate(1.000000, 1.000000)" >
            <path d="M1.46719787,15.1053797 C1.20991419,15.0050816 1.08265225,14.7152042 1.18295039,14.4579205 C1.28324852,14.2006368 1.57312586,14.0733749 1.83040955,14.173673 C2.48204547,14.4277034 3.09112896,14.6047409 3.6570916,14.7055245 C3.92895711,14.7539368 4.11010169,15.0135733 4.06168933,15.2854388 C4.01327698,15.5573043 3.75364047,15.7384489 3.48177496,15.6900366 C2.84843044,15.577254 2.17709422,15.382122 1.46719787,15.1053797 Z M5.69268122,15.7229084 C5.42082275,15.7713603 5.16115991,15.5902535 5.11270802,15.318395 C5.06425614,15.0465365 5.24536296,14.7868737 5.51722143,14.7384218 C6.12186192,14.63066 6.65438337,14.3933386 7.12186851,14.0241482 C7.33858014,13.853003 7.65300023,13.8899419 7.82414544,14.1066535 C7.99529064,14.3233651 7.95835176,14.6377852 7.74164013,14.8089304 C7.14390965,15.2809804 6.45856243,15.5864095 5.69268122,15.7229084 Z M9.1616883,13.1007439 C9.03727252,13.3472704 8.73656437,13.4462607 8.49003785,13.3218449 C8.24351133,13.1974292 8.14452102,12.896721 8.2689368,12.6501945 C8.4406455,12.3099583 8.55316836,11.9627958 8.66460994,11.4740534 C8.68809184,11.3710702 8.7067392,11.2848345 8.74585351,11.1004638 C8.7719376,10.9774792 8.7719376,10.9774792 8.79897607,10.8523677 C8.85783887,10.5825719 9.12426932,10.4115769 9.39406514,10.4704397 C9.66386095,10.5293025 9.83485595,10.7957329 9.77599315,11.0655287 C9.749988,11.1858567 9.749988,11.1858567 9.72408185,11.3079952 C9.68393672,11.4972249 9.66454866,11.5868861 9.63958573,11.6963644 C9.51164615,12.2574611 9.37588588,12.6763172 9.1616883,13.1007439 Z M10.4398627,9.32605146 C10.2875647,9.55639889 9.97736935,9.61967047 9.74702192,9.46737249 C9.51667449,9.31507452 9.45340291,9.00487913 9.60570088,8.7745317 C9.67189239,8.67441847 9.74256016,8.57550444 9.81912192,8.47611596 C10.221684,7.95749175 10.7224212,7.56206573 11.3286198,7.28162408 C11.5792423,7.16568026 11.876403,7.2748589 11.9923469,7.5254814 C12.1082907,7.77610391 11.9991121,8.07326463 11.7484895,8.18920846 C11.2863142,8.40302157 10.9128212,8.69796446 10.6102078,9.08781824 C10.5494469,9.16669929 10.4927702,9.24602995 10.4398627,9.32605146 Z M13.6055451,7.78151737 C13.3297141,7.79462573 13.0954824,7.58164688 13.082374,7.3058158 C13.0692657,7.02998473 13.2822445,6.79575304 13.5580756,6.78264469 C14.1696765,6.75357951 14.8380992,6.78874472 15.5638468,6.887366 C15.8374744,6.92454904 16.0291505,7.1765108 15.9919675,7.45013834 C15.9547845,7.72376589 15.7028227,7.91544203 15.4291952,7.878259 C14.7611836,7.78748341 14.1531326,7.75549432 13.6055451,7.78151737 Z" id="Path-33" fill-rule="nonzero"></path>
            <path d="M4.27089638,13.8446095 C4.26462014,13.8518613 4.25782979,13.8586517 4.25057802,13.864928 C4.16715921,13.9371256 4.04100719,13.9280289 3.96880962,13.8446101 L3.96862638,13.8447687 C1.32287546,10.7878043 0,8.57570847 0,7.20848113 C0,5.11897194 1.84444916,3.42509006 4.1196925,3.42509006 C6.39493585,3.42509006 8.23938501,5.11897194 8.23938501,7.20848113 C8.23938501,8.57568474 6.91655547,10.7877275 4.27089638,13.8446095 Z M4.08638933,9.23626066 C5.18510678,9.23626066 6.07579326,8.34557418 6.07579326,7.24685674 C6.07579326,6.14813929 5.18510678,5.25745281 4.08638933,5.25745281 C2.98767189,5.25745281 2.09698541,6.14813929 2.09698541,7.24685674 C2.09698541,8.34557418 2.98767189,9.23626066 4.08638933,9.23626066 Z" id="Combined-Shape"></path>
            <path d="M12.5370004,6.17055085 C12.5290743,6.18011097 12.5202741,6.18891123 12.510714,6.19683738 C12.4257747,6.26725955 12.2998293,6.25549107 12.2294072,6.17055174 L12.2292382,6.17069184 C10.7430794,4.37816936 10,3.07779933 10,2.26958175 C10,1.01612636 11.0669327,0 12.3830608,0 C13.699189,0 14.7661217,1.01612636 14.7661217,2.26958175 C14.7661217,3.07777814 14.0230813,4.37810117 12.5370004,6.17055085 Z M12.3438619,3.50921126 C13.001926,3.50921126 13.5353923,2.97574492 13.5353923,2.31768084 C13.5353923,1.65961676 13.001926,1.12615042 12.3438619,1.12615042 C11.6857979,1.12615042 11.1523315,1.65961676 11.1523315,2.31768084 C11.1523315,2.97574492 11.6857979,3.50921126 12.3438619,3.50921126 Z" id="Combined-Shape-Copy"></path>
        </g>
    </g>
</svg>
