<?xml version="1.0" encoding="UTF-8"?>
<svg width="12px" height="12px" viewBox="0 0 12 12" version="1.1" xmlns="http://www.w3.org/2000/svg" xmlns:xlink="http://www.w3.org/1999/xlink">
    <!-- Generator: Sketch 50.2 (55047) - http://www.bohemiancoding.com/sketch -->
    <title>liulancishu</title>
    <desc>Created with Sketch.</desc>
    <defs></defs>
    <g id="7/19" stroke="none" stroke-width="1" fill="none" fill-rule="evenodd">
        <path d="M5.85211161,10 C4.08667411,10 2.17496601,8.77380416 0.116987303,6.32141249 C-0.0389956525,6.1355353 -0.0389957811,5.86449278 0.116986998,5.67861544 L0.116973426,5.67860405 C2.17495741,3.22620135 4.08667014,2 5.85211161,2 C7.61754911,2 9.52925721,3.22619584 11.5872359,5.67858751 C11.7432189,5.8644647 11.743219,6.13550722 11.5872362,6.32138456 L11.5872498,6.32139595 C9.5292658,8.77379865 7.61755308,10 5.85211161,10 Z M5.85211161,8 C6.95668111,8 7.85211161,7.1045695 7.85211161,6 C7.85211161,4.8954305 6.95668111,4 5.85211161,4 C4.74754211,4 3.85211161,4.8954305 3.85211161,6 C3.85211161,7.1045695 4.74754211,8 5.85211161,8 Z M5.85211161,7 C5.29982686,7 4.85211161,6.55228475 4.85211161,6 C4.85211161,5.44771525 5.29982686,5 5.85211161,5 C6.40439636,5 6.85211161,5.44771525 6.85211161,6 C6.85211161,6.55228475 6.40439636,7 5.85211161,7 Z" id="liulancishu" fill="#000000"></path>
    </g>
</svg>