<?xml version="1.0" encoding="UTF-8"?>
<svg width="16px" height="16px" viewBox="0 0 16 16" version="1.1" xmlns="http://www.w3.org/2000/svg" xmlns:xlink="http://www.w3.org/1999/xlink">
    <!-- Generator: Sketch 50.2 (55047) - http://www.bohemiancoding.com/sketch -->
    <title>junyan</title>
    <desc>Created with Sketch.</desc>
    <defs></defs>
    <g id="7/19" stroke="none" stroke-width="1" fill-rule="evenodd">
        <g id="junyan">
            <circle id="Oval-23"  transform="translate(8.000000, 8.000000) scale(-1, 1) translate(-8.000000, -8.000000) " cx="8" cy="8" r="8"></circle>
            <g id="Group-11" transform="translate(3.200000, 4.000000)" fill="#FFFFFF">
                <path d="M7.62978516,1.6 L9.51815799,1.6 L9.51815799,3.22324219 L8.33056033,3.22324219 L7.62978516,1.6 Z M8.44653483,3.75893415 L9.51424567,3.75893415 L9.51424567,5.42929688 L8.99530643,5.42929688 L8.44653483,3.75893415 Z" id="Combined-Shape" transform="translate(8.573972, 3.514648) scale(-1, 1) translate(-8.573972, -3.514648) "></path>
                <path d="M0.14878537,1.6 L2.0371582,1.6 L2.0371582,3.24423828 L0.847949219,3.24423828 L0.14878537,1.6 Z M0.967152444,3.75893415 L2.03486328,3.75893415 L2.03486328,5.42929688 L1.51592404,5.42929688 L0.967152444,3.75893415 Z" id="Combined-Shape"></path>
                <path d="M2.03571442,0.640457765 C2.72256111,0.640457765 3.65589444,0.640457765 4.83571442,0.640457765 C6.0155344,0.640457765 6.94886774,0.640457765 7.63571442,0.640457765 L7.63571442,7.57941166 L4.83571442,9.75364221 L2.03571442,7.57941166 L2.03571442,0.640457765 Z M4.89519648,5.25496406 L6.15473633,5.87299805 L5.91418562,4.56398105 L6.93317476,3.63693007 L5.5249664,3.44594706 L4.89519648,2.25496406 L4.26542656,3.44594706 L2.8572182,3.63693007 L3.87620734,4.56398105 L3.63565663,5.87299805 L4.89519648,5.25496406 Z" id="Combined-Shape"></path>
            </g>
        </g>
    </g>
</svg>