<?xml version="1.0" encoding="UTF-8"?>
<svg width="20px" height="20px" viewBox="0 0 20 20" version="1.1" xmlns="http://www.w3.org/2000/svg" xmlns:xlink="http://www.w3.org/1999/xlink">
    <!-- Generator: Sketch 50.2 (55047) - http://www.bohemiancoding.com/sketch -->
    <title>qixiang</title>
    <desc>Created with Sketch.</desc>
    <defs></defs>
    <g id="7/19" stroke="none" stroke-width="1" fill="none" fill-rule="evenodd">
        <g id="0首页-船盘详情-小屏显示" transform="translate(-1327.000000, -535.000000)">
            <g id="qixiang" transform="translate(1327.000000, 535.000000)">
                <circle id="Oval-27-Copy" fill="#9E76AD" cx="10" cy="10" r="10"></circle>
                <path d="M8.97437612,6.71167138 C9.72721318,6.90871392 10.6880073,7.54393885 11.0959088,8.09050233 C11.5309632,7.82175401 12.0453519,7.65093551 12.5925926,7.66666667 C13.66226,7.69741566 14.0000406,8.01276279 14.3834342,8.29739471 C14.3833734,8.29786281 14.3833124,8.29833087 14.3832512,8.2987989 C15.019817,8.81296506 15.4307188,9.59538214 15.4441071,10.4742005 C16.3610015,10.8738557 17,11.7880274 17,12.8518519 C17,14.2807877 15.8393868,15.4444444 14.4076978,15.4444444 L5.59230218,15.4444444 C4.15758957,15.4444444 3,14.2837012 3,12.8518519 C3,11.7884383 3.64278602,10.8719451 4.56172417,10.4726498 C4.5576307,10.4020422 4.55555556,10.330893 4.55555556,10.2592593 C4.55555556,8.25467007 6.18059599,6.62962963 8.18518519,6.62962963 C8.45560762,6.62962963 8.71912285,6.65920287 8.97267319,6.71529165 C8.97324002,6.71408443 8.97380766,6.71287768 8.97437612,6.71167138 Z M9.26073814,6.23243159 C9.78016467,5.52973667 10.6146472,5.07407407 11.5555556,5.07407407 C13.0593521,5.07407407 14.2912981,6.23800429 14.399662,7.71413331 C13.4225455,6.9226145 11.9502104,7.08247639 11.2507629,7.4255266 C10.9627045,7.10925135 10.0119357,6.4440693 9.26073814,6.23243159 Z M11.5555556,3 C11.4123706,3 11.2962963,3.11187172 11.2962963,3.25686836 L11.2962963,4.29868719 C11.2962963,4.44055167 11.4165582,4.55555556 11.5555556,4.55555556 C11.6987405,4.55555556 11.8148148,4.44368384 11.8148148,4.29868719 L11.8148148,3.25686836 C11.8148148,3.11500388 11.694553,3 11.5555556,3 L11.5555556,3 Z M15.0467674,4.4461073 C14.9455204,4.34486026 14.7843382,4.34188857 14.6818101,4.44441668 L13.9451329,5.18109384 C13.8448196,5.28140718 13.8485375,5.44776518 13.9468235,5.54605118 C14.0480706,5.64729822 14.2092528,5.65026991 14.3117809,5.5477418 L15.048458,4.81106464 C15.1487714,4.71075131 15.1450534,4.5443933 15.0467674,4.4461073 L15.0467674,4.4461073 Z M16.4928747,7.93731916 C16.4928747,7.79413422 16.381003,7.6780599 16.2360063,7.6780599 L15.1941875,7.6780599 C15.052323,7.6780599 14.9373192,7.79832176 14.9373192,7.93731916 C14.9373192,8.08050409 15.0491909,8.19657841 15.1941875,8.19657841 L16.2360063,8.19657841 C16.3778708,8.19657841 16.4928747,8.07631655 16.4928747,7.93731916 L16.4928747,7.93731916 Z M8.0643437,4.4461073 C7.96309666,4.54735434 7.96012497,4.70853653 8.06265308,4.81106464 L8.79933024,5.5477418 C8.89964358,5.64805514 9.06600158,5.64433718 9.16428758,5.54605118 C9.26553462,5.44480414 9.26850631,5.28362195 9.1659782,5.18109384 L8.42930104,4.44441668 C8.32898771,4.34410334 8.1626297,4.3478213 8.0643437,4.4461073 L8.0643437,4.4461073 Z" id="cloud-sun" fill="#FFFFFF"></path>
            </g>
        </g>
    </g>
</svg>