<?xml version="1.0" encoding="UTF-8"?>
<svg width="14px" height="14px" viewBox="0 0 14 14" version="1.1" xmlns="http://www.w3.org/2000/svg" xmlns:xlink="http://www.w3.org/1999/xlink">
    <!-- Generator: Sketch 50.2 (55047) - http://www.bohemiancoding.com/sketch -->
    <title>suolvetufangda</title>
    <desc>Created with Sketch.</desc>
    <defs></defs>
    <g id="7/19" stroke="none" stroke-width="1" fill="none" fill-rule="evenodd">
        <g id="suolvetufangda">
            <path d="M2,0.75 C1.30964406,0.75 0.75,1.30964406 0.75,2 L0.75,11.7641602 C0.75,12.4545161 1.30964406,13.0141602 2,13.0141602 L11.7363892,13.0141602 C12.4267451,13.0141602 12.9863892,12.4545161 12.9863892,11.7641602 L12.9863892,2 C12.9863892,1.30964406 12.4267451,0.75 11.7363892,0.75 L2,0.75 Z" id="Rectangle-50" stroke="#fff" stroke-width="1.5"></path>
            <path d="M4.38137719,5.61031325 L4.38137719,6.79913518 C4.38137719,7.21334874 4.04559075,7.54913518 3.63137719,7.54913518 C3.21716363,7.54913518 2.88137719,7.21334874 2.88137719,6.79913518 L2.88137719,3.79913518 C2.88137719,3.38492161 3.21716363,3.04913518 3.63137719,3.04913518 L6.63137719,3.04913518 C7.04559075,3.04913518 7.38137719,3.38492161 7.38137719,3.79913518 C7.38137719,4.21334874 7.04559075,4.54913518 6.63137719,4.54913518 L5.44151946,4.54913518 L9.41691109,8.52452681 L9.41691109,7.33466908 C9.41691109,6.92045552 9.75269753,6.58466908 10.1669111,6.58466908 C10.5811247,6.58466908 10.9169111,6.92045552 10.9169111,7.33466908 L10.9169111,10.3346691 C10.9169111,10.7488826 10.5811247,11.0846691 10.1669111,11.0846691 L7.16691109,11.0846691 C6.75269753,11.0846691 6.41691109,10.7488826 6.41691109,10.3346691 C6.41691109,9.92045552 6.75269753,9.58466908 7.16691109,9.58466908 L8.35573302,9.58466908 L4.38137719,5.61031325 Z" id="Combined-Shape" fill="#fff" fill-rule="nonzero" transform="translate(6.899144, 7.066902) rotate(90.000000) translate(-6.899144, -7.066902) "></path>
        </g>
    </g>
</svg>