<?xml version="1.0" encoding="UTF-8"?>
<svg width="10px" height="10px" viewBox="0 0 10 10" version="1.1" xmlns="http://www.w3.org/2000/svg" xmlns:xlink="http://www.w3.org/1999/xlink">
    <!-- Generator: Sketch 50.2 (55047) - http://www.bohemiancoding.com/sketch -->
    <title>rili</title>
    <desc>Created with Sketch.</desc>
    <defs></defs>
    <g id="7/19" stroke="none" stroke-width="1" fill="none" fill-rule="evenodd">
        <path d="M9.34704339,1.01290203 C9.70701377,1.01290203 10,1.30902055 10,1.67285156 L10,9.34006267 C10,9.70388147 9.70701377,10 9.34704339,10 L0.652956615,10 C0.292889607,10 0,9.70388147 0,9.34006267 L0,1.67285156 C0,1.30902055 0.292889607,1.01290203 0.652956615,1.01290203 L2.01342773,1.01290203 L2.01342773,0 L2.99517822,0 L2.99517822,1.01290203 L7.01867676,1.01290203 L7.01867676,0 L7.99865723,0 L7.99865723,1.01290203 L9.34704339,1.01290203 Z M8.99773297,8.9105835 L8.99773297,2.10263683 C8.99773297,2.05056157 8.95593128,2.00836182 8.90441895,2.00836182 L7.99822998,2.00836182 L7.99822998,3.0178833 L7.00866699,3.0178833 L7.00866699,2.00836182 L2.99957275,2.00836182 L2.99957275,3.0178833 L2.00592041,3.0178833 L2.00592041,2.00836182 L1.1494751,2.00836182 C1.09805938,2.00836182 1.05620938,2.0506104 1.05620938,2.10263683 L1.05620938,4.003479 L8.99688752,4.003479 L8.99688752,5.02828859 L1.05620938,5.02828859 L1.05620938,8.9105835 C1.05620938,8.96264655 1.09805938,9.00484631 1.1494751,9.00484631 L8.90441895,9.00484631 C8.95593128,9.00484631 8.99773297,8.96264655 8.99773297,8.9105835 Z M1.96568179,5.99987793 C1.96568179,5.69570275 2.20964374,5.4490838 2.5106014,5.4490838 C2.81155905,5.4490838 3.05556931,5.69570275 3.05556931,5.99987793 C3.05556931,6.30405311 2.81155905,6.55062323 2.5106014,6.55062323 C2.20964374,6.55062323 1.96568179,6.30405311 1.96568179,5.99987793 Z M4.45509851,6.01940918 C4.45509851,5.715234 4.69910877,5.46861505 5.00006643,5.46861505 C5.30102409,5.46861505 5.54499811,5.715234 5.54499811,6.01940918 C5.54499811,6.32358436 5.30102409,6.57015448 5.00006643,6.57015448 C4.69910877,6.57015448 4.45509851,6.32358436 4.45509851,6.01940918 Z M6.944479,6.01098633 C6.944479,5.70681115 7.18844095,5.4601922 7.4893986,5.4601922 C7.79035626,5.4601922 8.03431821,5.70681115 8.03431821,6.01098633 C8.03431821,6.3151615 7.79035626,6.56173163 7.4893986,6.56173163 C7.18844095,6.56173163 6.944479,6.3151615 6.944479,6.01098633 Z M1.96568179,7.65109577 C1.96568179,7.34692059 2.20964374,7.10035046 2.5106014,7.10035046 C2.81155905,7.10035046 3.05556931,7.34692059 3.05556931,7.65109577 C3.05556931,7.95527094 2.81155905,8.20188989 2.5106014,8.20188989 C2.20964374,8.20188989 1.96568179,7.95527094 1.96568179,7.65109577 Z M4.45509851,7.65109577 C4.45509851,7.34692059 4.69910877,7.10035046 5.00006643,7.10035046 C5.30102409,7.10035046 5.54499811,7.34692059 5.54499811,7.65109577 C5.54499811,7.95527094 5.30102409,8.20188989 5.00006643,8.20188989 C4.69910877,8.20188989 4.45509851,7.95527094 4.45509851,7.65109577 Z M6.944479,7.65109577 C6.944479,7.34692059 7.18844095,7.10035046 7.4893986,7.10035046 C7.79035626,7.10035046 8.03431821,7.34692059 8.03431821,7.65109577 C8.03431821,7.95527094 7.79035626,8.20188989 7.4893986,8.20188989 C7.18844095,8.20188989 6.944479,7.95527094 6.944479,7.65109577 Z" id="rili" fill="#000000"></path>
    </g>
</svg>