<svg id="图层_1" data-name="图层 1" xmlns="http://www.w3.org/2000/svg" viewBox="0 0 1024 1024"><defs><style></style></defs><title>图标制作模版</title><path class="cls-1" d="M956.3,457.18c.78,6.48,1.34,13,1.91,19.57.92,11.67,1.79,23.34,1.79,35.25s-.87,23.58-1.79,35.25c-.57,6.53-1.13,13.09-1.91,19.55h0a451.24,451.24,0,0,1-9.19,50.2c-42.35,10.47-82.65,39.38-108.25,83.73s-30.49,93.73-18.41,135.6a446.86,446.86,0,0,1-38.9,32.89l0,0A455.63,455.63,0,0,1,714,911.5a2.37,2.37,0,0,1-.38.19Q696.11,920.6,677.74,928c-1,.4-2,.71-3,1.11C663,933.68,651,937.9,638.83,941.52,608.6,910,563.33,889.45,512,889.45S415.4,910,385.17,941.52C373,937.9,361,933.68,349.28,929.06c-1-.4-2-.71-3-1.11q-18.32-7.36-35.82-16.27a1.73,1.73,0,0,1-.38-.19,455.69,455.69,0,0,1-67.58-42.32l0,0a442.74,442.74,0,0,1-38.93-32.87c12.09-41.87,7.22-91.25-18.39-135.6S119.2,627.47,76.87,617a452.49,452.49,0,0,1-9.2-50.18h0c-.78-6.49-1.34-13-1.93-19.57C64.87,535.58,64,523.91,64,512s.87-23.58,1.77-35.25c.59-6.55,1.15-13.09,1.93-19.57h0A451.43,451.43,0,0,1,76.87,407c42.33-10.47,82.62-39.38,108.23-83.73s30.49-93.7,18.41-135.6a451.3,451.3,0,0,1,38.9-32.89.26.26,0,0,1,0,.07A458.74,458.74,0,0,1,310,112.48a2.35,2.35,0,0,0,.35-.17Q327.9,103.4,346.26,96c1-.4,2-.7,3-1.11C361,90.31,373,86.09,385.19,82.48c30.23,31.53,75.5,52,126.81,52s96.58-20.51,126.81-52C651,86.09,663,90.31,674.75,94.94c1,.4,2,.71,3,1.11q18.36,7.36,35.87,16.27a2.12,2.12,0,0,0,.35.17,460,460,0,0,1,67.6,42.37v0a443.91,443.91,0,0,1,38.93,32.87c-12.07,41.9-7.19,91.25,18.42,135.6S904.8,396.53,947.1,407a439.06,439.06,0,0,1,9.2,50.18Zm-49.45-13.56c-43.2-17.92-82.31-51-108.75-96.81-26.31-45.58-35.46-95.75-29.57-141.94A400.55,400.55,0,0,0,650,136.06c-37.09,28.34-85.21,45.58-138,45.58S411.13,164.4,374,136.06a401.07,401.07,0,0,0-118.6,68.8c5.92,46.19-3.25,96.36-29.57,141.94-26.41,45.79-65.53,78.9-108.73,96.81a393.54,393.54,0,0,0,0,136.76c43.2,17.9,82.32,51,108.77,96.79,26.31,45.58,35.46,95.78,29.54,142A401.3,401.3,0,0,0,374,887.94c37.09-28.34,85.24-45.6,138-45.6s100.89,17.26,138,45.6a401.58,401.58,0,0,0,118.55-68.78c-5.94-46.22,3.23-96.42,29.54-142,26.43-45.77,65.55-78.9,108.77-96.81a393.13,393.13,0,0,0,0-136.74ZM512,676.82A164.83,164.83,0,1,1,676.82,512,164.84,164.84,0,0,1,512,676.82Zm0-282.43A117.6,117.6,0,1,0,629.59,512,117.58,117.58,0,0,0,512,394.39Zm0,0"/></svg>
