<?xml version="1.0" encoding="UTF-8"?>
<svg width="12px" height="12px" viewBox="0 0 12 12" version="1.1" xmlns="http://www.w3.org/2000/svg" xmlns:xlink="http://www.w3.org/1999/xlink">
    <!-- Generator: Sketch 50.2 (55047) - http://www.bohemiancoding.com/sketch -->
    <title>shengming</title>
    <desc>Created with Sketch.</desc>
    <defs></defs>
    <g id="7/19" stroke="none" stroke-width="1" fill="none" fill-rule="evenodd">
        <path d="M6,11 C3.23857625,11 1,8.76142375 1,6 C1,3.23857625 3.23857625,1 6,1 C8.76142375,1 11,3.23857625 11,6 C11,8.76142375 8.76142375,11 6,11 Z M6.38421631,3 L5.58343506,3 L5.66937256,7.328125 L6.29437256,7.328125 L6.38421631,3 Z M5.49230957,8.640625 C5.49230957,8.77083398 5.54048617,8.88476514 5.63684082,8.98242188 C5.73319547,9.08007861 5.85949629,9.12890625 6.01574707,9.12890625 C6.14335188,9.12890625 6.25532992,9.08007861 6.35168457,8.98242188 C6.44803922,8.88476514 6.49621582,8.77083398 6.49621582,8.640625 C6.49621582,8.50781184 6.44673715,8.39192758 6.34777832,8.29296875 C6.24881949,8.19400992 6.13163316,8.14453125 5.99621582,8.14453125 C5.8581943,8.14453125 5.7397059,8.19205682 5.64074707,8.28710938 C5.54178824,8.38216193 5.49230957,8.4999993 5.49230957,8.640625 Z" id="shengming" fill="#000000"></path>
    </g>
</svg>