<?xml version="1.0" encoding="UTF-8"?>
<svg width="14px" height="14px" viewBox="0 0 14 14" version="1.1" xmlns="http://www.w3.org/2000/svg" xmlns:xlink="http://www.w3.org/1999/xlink">
    <!-- Generator: Sketch 50.2 (55047) - http://www.bohemiancoding.com/sketch -->
    <title>shezhi</title>
    <desc>Created with Sketch.</desc>
    <defs></defs>
    <g id="7/19" stroke="none" stroke-width="1" fill="none" fill-rule="evenodd">
        <path d="M12.8225563,8.93647803 L11.5616205,8.19475111 C11.6357932,7.89806034 11.6357932,7.52719688 11.6357932,7.23050612 C11.6357932,6.85964266 11.5616205,6.56295189 11.5616205,6.26626112 L12.8225563,5.5245342 C12.9709017,5.45036151 13.0450744,5.22784344 12.9709017,5.07949805 L11.8583113,3.15100806 C11.7841386,3.00266268 11.5616205,3.00266268 11.4132752,3.07683537 L10.1523394,3.7443896 C9.63313056,3.29935345 9.11392172,2.92848999 8.44636749,2.7801446 L8.3721948,1.29669077 C8.3721948,1.14834538 8.22384942,1 8.07550403,1 L5.92449597,1 C5.77615058,1 5.6278052,1.14834538 5.6278052,1.29669077 L5.55363251,2.7801446 C4.88607828,3.00266268 4.29269675,3.29935345 3.8476606,3.7443896 L2.58672484,3.07683537 C2.43837945,3.00266268 2.21586138,3.00266268 2.14168868,3.15100806 L1.02909831,5.07949805 C0.954925615,5.22784344 1.02909831,5.37618882 1.17744369,5.5245342 L2.43837945,6.26626112 C2.36420676,6.56295189 2.36420676,6.93381535 2.36420676,7.23050612 C2.36420676,7.60136957 2.43837945,7.89806034 2.43837945,8.19475111 L1.17744369,8.93647803 C1.02909831,9.01065072 0.954925615,9.23316879 1.02909831,9.38151418 L2.14168868,11.3100042 C2.21586138,11.4583496 2.43837945,11.4583496 2.58672484,11.3841769 L3.8476606,10.7166226 C4.36686944,11.1616588 4.88607828,11.5325222 5.55363251,11.6808676 L5.6278052,13.1643215 C5.6278052,13.3126668 5.77615058,13.4610122 5.92449597,13.4610122 L8.07550403,13.4610122 C8.22384942,13.4610122 8.3721948,13.3126668 8.3721948,13.1643215 L8.44636749,11.6808676 C9.11392172,11.4583496 9.70730325,11.1616588 10.1523394,10.7166226 L11.4132752,11.3841769 C11.5616205,11.4583496 11.7841386,11.4583496 11.8583113,11.3100042 L12.9709017,9.38151418 C13.0450744,9.23316879 12.9709017,9.01065072 12.8225563,8.93647803 Z M7.03708635,9.23316879 C5.92449597,9.23316879 4.96025097,8.34309649 4.96025097,7.15633342 C4.96025097,6.04374305 5.85032328,5.07949805 7.03708635,5.07949805 C8.14967672,5.07949805 9.11392172,5.96957035 9.11392172,7.15633342 C9.03974903,8.2689238 8.14967672,9.23316879 7.03708635,9.23316879 Z" id="shezhi" fill="#000000" fill-rule="nonzero"></path>
    </g>
</svg>