<?xml version="1.0" encoding="UTF-8"?>
<svg width="18px" height="18px" viewBox="0 0 18 18" version="1.1" xmlns="http://www.w3.org/2000/svg" xmlns:xlink="http://www.w3.org/1999/xlink">
    <!-- Generator: Sketch 50.2 (55047) - http://www.bohemiancoding.com/sketch -->
    <title>shezhi-big</title>
    <desc>Created with Sketch.</desc>
    <defs></defs>
    <g id="7/19" stroke="none" stroke-width="1" fill="none" fill-rule="evenodd">
        <path d="M16.7634084,11.5819707 L15.0821607,10.5930015 C15.1810577,10.1974138 15.1810577,9.70292918 15.1810577,9.30734149 C15.1810577,8.81285687 15.0821607,8.41726918 15.0821607,8.02168149 L16.7634084,7.03271227 C16.9612023,6.93381535 17.0600992,6.63712458 16.9612023,6.43933074 L15.4777484,3.86801075 C15.3788515,3.67021691 15.0821607,3.67021691 14.8843669,3.76911383 L13.2031192,4.65918613 C12.5108407,4.0658046 11.8185623,3.57131998 10.92849,3.37352614 L10.8295931,1.39558769 C10.8295931,1.19779384 10.6317992,1 10.4340054,1 L7.56599462,1 C7.36820078,1 7.17040693,1.19779384 7.17040693,1.39558769 L7.07151001,3.37352614 C6.18143771,3.67021691 5.39026233,4.0658046 4.7968808,4.65918613 L3.11563311,3.76911383 C2.91783927,3.67021691 2.6211485,3.67021691 2.52225158,3.86801075 L1.03879774,6.43933074 C0.939900819,6.63712458 1.03879774,6.83491843 1.23659159,7.03271227 L2.91783927,8.02168149 C2.81894235,8.41726918 2.81894235,8.9117538 2.81894235,9.30734149 C2.81894235,9.8018261 2.91783927,10.1974138 2.91783927,10.5930015 L1.23659159,11.5819707 C1.03879774,11.6808676 0.939900819,11.9775584 1.03879774,12.1753522 L2.52225158,14.7466722 C2.6211485,14.9444661 2.91783927,14.9444661 3.11563311,14.8455691 L4.7968808,13.9554968 C5.48915925,14.5488784 6.18143771,15.043363 7.07151001,15.2411568 L7.17040693,17.2190953 C7.17040693,17.4168891 7.36820078,17.614683 7.56599462,17.614683 L10.4340054,17.614683 C10.6317992,17.614683 10.8295931,17.4168891 10.8295931,17.2190953 L10.92849,15.2411568 C11.8185623,14.9444661 12.6097377,14.5488784 13.2031192,13.9554968 L14.8843669,14.8455691 C15.0821607,14.9444661 15.3788515,14.9444661 15.4777484,14.7466722 L16.9612023,12.1753522 C17.0600992,11.9775584 16.9612023,11.6808676 16.7634084,11.5819707 Z M9.02099609,14.34375 C6.34242467,14.34375 4.02099609,12.2008929 4.02099609,9.34375 C4.02099609,6.66517857 6.16385324,4.34375 9.02099609,4.34375 C11.6995675,4.34375 14.0209961,6.48660714 14.0209961,9.34375 C13.8424247,12.0223214 11.6995675,14.34375 9.02099609,14.34375 Z" id="shezhi-big" fill="#000000" fill-rule="nonzero"></path>
    </g>
</svg>