<?xml version="1.0" encoding="UTF-8"?>
<svg width="12px" height="12px" viewBox="0 0 12 12" version="1.1" xmlns="http://www.w3.org/2000/svg" xmlns:xlink="http://www.w3.org/1999/xlink">
    <!-- Generator: Sketch 50.2 (55047) - http://www.bohemiancoding.com/sketch -->
    <title>shijian</title>
    <desc>Created with Sketch.</desc>
    <defs></defs>
    <g id="7/19" stroke="none" stroke-width="1" fill="none" fill-rule="evenodd">
        <path d="M6.48864746,5.50878906 L6.48864746,2.5 C6.48864746,2.22385763 6.26478984,2 5.98864746,2 C5.71250509,2 5.48864746,2.22385763 5.48864746,2.5 L5.48864746,6.49853516 L6.48797607,6.49853516 L6.48797607,5.50878906 L6.48864746,5.50878906 Z M6,11 C3.23857625,11 1,8.76142375 1,6 C1,3.23857625 3.23857625,1 6,1 C8.76142375,1 11,3.23857625 11,6 C11,8.76142375 8.76142375,11 6,11 Z M6.48864746,5.50878906 L6.48864746,6.49853516 L6.48797607,6.49853516 L6.48797607,6.50878906 L8.0625,6.50878906 C8.33864237,6.50878906 8.5625,6.28493144 8.5625,6.00878906 C8.5625,5.73264669 8.33864237,5.50878906 8.0625,5.50878906 L6.48864746,5.50878906 Z" id="shijian" fill="#000000"></path>
    </g>
</svg>