<?xml version="1.0" encoding="UTF-8"?>
<svg width="18px" height="18px" viewBox="0 0 18 18" version="1.1" xmlns="http://www.w3.org/2000/svg" xmlns:xlink="http://www.w3.org/1999/xlink">
    <!-- Generator: Sketch 50.2 (55047) - http://www.bohemiancoding.com/sketch -->
    <title>sousuo</title>
    <desc>Created with Sketch.</desc>
    <defs></defs>
    <g id="7/19" stroke="none" stroke-width="1"  fill-rule="evenodd">
        <path d="M9,13.5 C12.0375661,13.5 14.5,11.0375661 14.5,8 C14.5,4.96243388 12.0375661,2.5 9,2.5 C5.96243388,2.5 3.5,4.96243388 3.5,8 C3.5,11.0375661 5.96243388,13.5 9,13.5 Z M14.0978142,12.797142 L16.6519485,15.1828272 C16.9546535,15.4655683 16.9708374,15.9401662 16.6880962,16.2428712 C16.4053551,16.5455762 15.9307572,16.5617601 15.6280522,16.279019 L12.9514068,13.7789024 C11.8268672,14.5493025 10.4660666,15 9,15 C5.13400675,15 2,11.8659932 2,8 C2,4.13400675 5.13400675,1 9,1 C12.8659932,1 16,4.13400675 16,8 C16,9.85651877 15.2772694,11.5442348 14.0978142,12.797142 Z" id="sousuo"  fill-rule="nonzero"></path>
    </g>
</svg>
