<?xml version="1.0" encoding="UTF-8"?>
<svg width="16px" height="16px" viewBox="0 0 16 16" version="1.1" xmlns="http://www.w3.org/2000/svg" xmlns:xlink="http://www.w3.org/1999/xlink">
    <!-- Generator: Sketch 50.2 (55047) - http://www.bohemiancoding.com/sketch -->
    <title>haidao-red</title>
    <desc>Created with Sketch.</desc>
    <defs></defs>
    <g id="7/19" stroke="none" stroke-width="1" fill-rule="evenodd">
        <g id="haidao">
            <g id="Group-10">
                <g>
                    <circle id="Oval-5" cx="8" cy="8" r="8"></circle>
                </g>
            </g>
            <path d="M8.01544784,9.02405182 L8.01544784,9.01793521 C8.01496529,9.01838093 8.01448295,9.01882658 8.0140008,9.01927217 L8.01046539,2.4 C9.38904691,2.43139088 10.3950973,2.86079519 11.0286165,3.68821295 C11.6621357,4.51563072 11.9351593,5.66293645 11.8476873,7.13013015 C11.6324105,7.6986831 11.5247721,8.10285162 11.5247721,8.3426357 C11.5247721,8.70231183 12.1132855,9.23542914 11.9804864,9.83620829 C11.8919537,10.2367277 11.4862941,10.4369874 10.7635078,10.4369874 C10.5449967,10.6705285 10.3639329,10.9990776 10.2203165,11.4226346 C10.0048918,12.0579701 9.66149631,12.8728516 8.68886719,12.8728516 C8.04044777,12.8728516 7.81617838,12.8728516 8.01605902,12.8728516 L8.01479358,10.5035941 L8.01544784,10.5035941 L8.01544784,10.5097107 L8.14078085,10.5097107 L8.14078085,10.9148905 C8.64211289,10.9148905 8.89277891,10.7348106 8.89277891,10.3746508 C8.89277891,10.0144911 8.60033522,9.56429143 8.01544784,9.02405182 Z M8.01046539,9.0225417 C7.42889964,9.56073447 7.13811677,10.0093986 7.13811677,10.3685342 C7.13811677,10.728694 7.38878279,10.9087738 7.89011483,10.9087738 L7.89011483,10.5035941 L8.01046539,10.5035941 L8.01046539,12.8490234 C8.21909662,12.8490234 7.98755942,12.8490234 7.3158538,12.8490234 C6.30829536,12.8490234 5.99423551,12.0579701 5.77881088,11.4226346 C5.63519447,10.9990776 5.4541307,10.6705285 5.23561957,10.4369874 C4.51283324,10.4369874 4.1071737,10.2367277 4.01864094,9.83620829 C3.8858418,9.23542914 4.50612355,8.70231183 4.50612355,8.3426357 C4.50612355,8.10285162 4.38789572,7.6986831 4.15144007,7.13013015 C4.06396808,5.66293645 4.33699168,4.51563072 4.97051088,3.68821295 C5.60403008,2.86079519 6.61734825,2.43139088 8.01046539,2.4 L8.01046539,9.0225417 Z M7.38878279,8.0725159 C7.22167211,7.53227629 6.80389541,7.26215648 6.13545268,7.26215648 C5.1327886,7.26215648 4.88212258,8.0725159 4.88212258,8.3426357 C4.88212258,8.61275551 4.88212258,9.55817482 6.2607857,9.55817482 C7.17989444,9.55817482 7.55589347,9.06295518 7.38878279,8.0725159 Z M8.55534389,8.0725159 C8.38823321,9.06295518 8.76423224,9.55817482 9.68334098,9.55817482 C11.0620041,9.55817482 11.0620041,8.61275551 11.0620041,8.3426357 C11.0620041,8.0725159 10.8113381,7.26215648 9.80867399,7.26215648 C9.14023127,7.26215648 8.72245457,7.53227629 8.55534389,8.0725159 Z" id="Combined-Shape" fill="#FFFFFF"></path>
        </g>
    </g>
</svg>