<?xml version="1.0" encoding="UTF-8"?>
<svg width="16px" height="16px" viewBox="0 0 16 16" version="1.1" xmlns="http://www.w3.org/2000/svg" xmlns:xlink="http://www.w3.org/1999/xlink">
    <!-- Generator: Sketch 50.2 (55047) - http://www.bohemiancoding.com/sketch -->
    <title>keyichuanzhi</title>
    <desc>Created with Sketch.</desc>
    <defs></defs>
    <g id="7/19" stroke="none" stroke-width="1" fill-rule="evenodd">
        <g id="keyichuanzhi">
            <g id="keyi">
                <circle id="Oval-5" cx="8" cy="8" r="8"></circle>
            </g>
            <path d="M7.1,6.6232 L5.4048,6.332 C5.7168,4.564 6.8816,3.784 8.5352,3.784 C10.2616,3.784 11.3224,4.5952 11.3224,6.1552 C11.3224,7.008 10.9792,7.58 9.9704,8.3184 C9.2632,8.8384 8.9824,9.1504 8.868,9.5768 L7.5472,9.5768 C7.5472,8.9112 7.7864,8.464 8.4936,7.8088 C9.1696,7.1952 9.3984,6.7792 9.3984,6.176 C9.3984,5.5 8.972,5.0632 8.3792,5.0632 C7.5992,5.0632 7.2352,5.6456 7.1,6.6232 Z M8.244,10.3048 C8.7848,10.3048 9.2424,10.7624 9.2424,11.3136 C9.2424,11.8648 8.7848,12.312 8.244,12.312 C7.6928,12.312 7.2352,11.8648 7.2352,11.3136 C7.2352,10.7624 7.6928,10.3048 8.244,10.3048 Z" id="？" fill="#FFFFFF"></path>
        </g>
    </g>
</svg>