<?xml version="1.0" encoding="UTF-8"?>
<svg width="20px" height="20px" viewBox="0 0 20 20" version="1.1" xmlns="http://www.w3.org/2000/svg" xmlns:xlink="http://www.w3.org/1999/xlink">
    <!-- Generator: Sketch 50.2 (55047) - http://www.bohemiancoding.com/sketch -->
    <title>taifeng</title>
    <desc>Created with Sketch.</desc>
    <defs></defs>
    <g id="7/19" stroke="none" stroke-width="1" fill-rule="evenodd">
        <g id="0首页-船盘详情-小屏显示" transform="translate(-1327.000000, -477.000000)">
            <g id="taifeng" transform="translate(1327.000000, 477.000000)">
                <circle id="Oval-27" fill="#F78F2E" cx="10" cy="10" r="10"></circle>
                <path d="M13.1838914,12.604368 C13.111357,12.7069556 13.0344154,12.8061495 12.9533458,12.9016681 C12.948678,12.9150686 12.9439552,12.9284299 12.9391776,12.9417519 C12.9625189,12.9295804 12.967889,12.9293408 12.955288,12.9410332 C12.1494387,15.2639735 9.69231606,16.4121863 6.9676497,16.0861072 C5.15120546,15.8687211 3.49532223,14.715738 2,12.6271579 C2.05749164,12.6921889 2.11521966,12.7561215 2.17318404,12.8189558 C2.11521869,12.7414221 2.05749068,12.6625054 2,12.5822057 C3.35320171,14.0211971 4.72553265,14.9335484 6.1169928,15.3192596 C6.34792467,15.3768733 6.5815952,15.4217611 6.8180044,15.4539229 C7.37793526,15.5300975 7.89977109,15.539524 8.38351189,15.4822024 C9.31581824,15.3436132 10.1484715,14.9274607 10.8814717,14.2337449 C10.6802265,14.2899798 10.4729254,14.331502 10.2607761,14.3570926 C8.50821327,15.253719 5.99606721,14.90839 4.16266053,13.2742072 C2.83146327,12.0876622 2.15496034,10.234504 2.13315174,7.71473259 C2.4816687,10.0459558 3.22312822,11.6672337 4.3575303,12.5785661 C5.20706159,13.2610449 6.20407536,13.609494 7.34857163,13.6239133 C7.23050724,13.5406402 7.11687177,13.4514091 7.00809318,13.356652 C5.42254634,12.8790199 4.05313612,11.513756 3.56856488,9.57059797 C3.15462372,7.91067051 3.6539399,6.05827163 5.06651341,4.01340133 C4.02787218,6.07851359 3.7132521,7.77806902 4.1226532,9.1120676 C4.40187687,10.0218941 4.93814704,10.779328 5.7314637,11.3843693 C5.68716642,11.2382843 5.6504608,11.088851 5.62181116,10.9365382 C4.70981309,9.71214904 4.40101184,7.98988365 5.12283419,5.95020322 C5.7839566,4.08204489 7.73842208,2.7817058 10.9862306,2.04918592 C8.02023457,3.20710885 6.32678265,4.50798219 5.90587487,5.95180595 C5.64427052,6.84917727 5.63047635,7.70515996 5.86449236,8.519754 C5.95586395,8.29628623 6.06557592,8.08240754 6.19173512,7.88002891 C6.37412445,6.24020833 7.29421757,5.08157926 8.19455929,4.37037491 C9.48101029,3.35417237 11.4550308,3.09822267 13.3279693,3.63336553 C14.0267368,3.83301994 15.0128224,4.34976441 16.2862261,5.18359895 C14.9021989,4.56453798 13.8700548,4.19580335 13.1897937,4.07739508 C11.4837701,3.78043947 9.7208099,4.14518842 8.99725294,4.74690851 C8.39369371,5.24883679 7.95646085,5.81328881 7.68555437,6.44026457 C7.82444303,6.36087738 7.96824556,6.28923023 8.11638682,6.2259037 C9.47707175,5.12078505 11.003177,4.62240337 12.6947025,4.73075868 C14.498361,4.87957506 16.1090158,6.02998277 16.946525,7.87671068 C17.5048644,9.10786261 17.8560228,10.0558976 18,10.7208156 C16.6932456,7.96544446 15.4161217,6.39112223 14.1686282,5.99784897 C12.9592527,5.61659243 11.7461715,5.60494288 10.5293845,5.96290033 C10.6606988,5.98751673 10.7898714,6.01828782 10.9165975,6.05490596 C13.3811779,5.95932937 15.0778597,6.70458566 16.0066429,8.29067483 C16.9969141,9.98176743 17.0270374,12.2083064 16.0970129,14.9702916 C16.6625425,12.0570024 16.4892537,10.0262221 15.5771466,8.87795081 C14.733613,7.81600815 13.7565719,7.20712106 12.6460235,7.05128953 C12.7507429,7.15117909 12.8503834,7.25643703 12.9445131,7.36662721 C15.1649419,8.87721114 16.0356151,10.7003153 15.5565328,12.8359398 C15.0677176,15.0149511 13.5489694,16.7363045 11.0002881,18 C13.6253359,15.9752778 14.9378598,14.1877691 14.9378598,12.6374741 C14.9378598,11.5172667 14.6117821,10.6158635 13.9596266,9.93326468 C13.9628574,10.0015445 13.9644913,10.0702468 13.9644913,10.1393343 C13.9644913,10.2124888 13.9626594,10.2852114 13.9590394,10.3574579 C14.377134,12.2793092 14.1687961,13.8187934 13.3340255,14.9759106 C12.063193,16.7374752 9.68869922,17.6530252 6.43459903,17.2436265 C5.43339765,17.2054347 11.2292137,17.34951 12.4512517,14.8454439 C12.9487067,13.8261137 13.1929199,13.0790884 13.1838914,12.604368 Z M9.76035156,12.3317864 C10.9323493,12.3317864 11.8824412,11.372743 11.8824412,10.189703 C11.8824412,9.006663 10.9323493,8.04761958 9.76035156,8.04761958 C8.58835382,8.04761958 7.63826192,9.006663 7.63826192,10.189703 C7.63826192,11.372743 8.58835382,12.3317864 9.76035156,12.3317864 Z" id="Combined-Shape" fill="#FFFFFF"></path>
            </g>
        </g>
    </g>
</svg>