<?xml version="1.0" encoding="UTF-8"?>
<svg width="18px" height="18px" viewBox="0 0 18 18" version="1.1" xmlns="http://www.w3.org/2000/svg" xmlns:xlink="http://www.w3.org/1999/xlink">
    <!-- Generator: Sketch 50.2 (55047) - http://www.bohemiancoding.com/sketch -->
    <title>tianqi</title>
    <desc>Created with Sketch.</desc>
    <defs></defs>
    <g id="7/19" stroke="none" stroke-width="1"  fill-rule="evenodd">
        <path d="M7.68134073,5.77214892 C8.64927409,6.02548932 9.88458079,6.84220709 10.4090256,7.54493157 C10.9683813,7.19939801 11.6297382,6.97977423 12.3333333,7 C13.70862,7.03953443 14.1429094,7.44498073 14.635844,7.81093606 C14.6357657,7.8115379 14.6356873,7.81213969 14.6356087,7.81274144 C15.4540504,8.47381223 15.9823528,9.47977703 15.9995662,10.6096863 C17.1784304,11.1235288 18,12.2988924 18,13.6666667 C18,15.5038699 16.507783,17 14.6670401,17 L3.33295995,17 C1.48832945,17 0,15.5076158 0,13.6666667 C0,12.2994207 0.826439171,11.1210723 2.00793107,10.6076925 C2.00266805,10.5169113 2,10.4254339 2,10.3333333 C2,7.75600437 4.08933771,5.66666667 6.66666667,5.66666667 C7.01435265,5.66666667 7.35315795,5.7046894 7.67915125,5.77680355 C7.67988002,5.77525141 7.68060985,5.77369987 7.68134073,5.77214892 Z M8.04952046,5.15598347 C8.71735457,4.25251857 9.79026072,3.66666667 11,3.66666667 C12.9334528,3.66666667 14.5173833,5.16314837 14.6567083,7.06102855 C13.4004157,6.04336151 11.5074133,6.24889822 10.6081238,6.68996277 C10.237763,6.28332316 9.01534587,5.4280891 8.04952046,5.15598347 Z M11,1 C10.8159051,1 10.6666667,1.14383507 10.6666667,1.33025932 L10.6666667,2.66974068 C10.6666667,2.85213786 10.8212891,3 11,3 C11.1840949,3 11.3333333,2.85616493 11.3333333,2.66974068 L11.3333333,1.33025932 C11.3333333,1.14786214 11.1787109,1 11,1 L11,1 Z M15.488701,2.85928081 C15.3585262,2.72910605 15.1512919,2.72528531 15.0194701,2.85710716 L14.0723137,3.80426351 C13.9433395,3.9332378 13.9481197,4.14712666 14.0744874,4.27349438 C14.2046622,4.40366914 14.4118964,4.40748988 14.5437183,4.27566803 L15.4908746,3.32851168 C15.6198489,3.19953739 15.6150687,2.98564853 15.488701,2.85928081 L15.488701,2.85928081 Z M17.3479818,7.34798177 C17.3479818,7.16388685 17.2041467,7.01464844 17.0177224,7.01464844 L15.6782411,7.01464844 C15.4958439,7.01464844 15.3479818,7.16927083 15.3479818,7.34798177 C15.3479818,7.53207669 15.4918168,7.6813151 15.6782411,7.6813151 L17.0177224,7.6813151 C17.2001196,7.6813151 17.3479818,7.52669271 17.3479818,7.34798177 L17.3479818,7.34798177 Z M6.51129904,2.85928081 C6.38112428,2.98945558 6.37730353,3.19668983 6.50912539,3.32851168 L7.45628174,4.27566803 C7.58525603,4.40464232 7.79914489,4.39986209 7.92551261,4.27349438 C8.05568737,4.14331961 8.05950811,3.93608536 7.92768626,3.80426351 L6.98052991,2.85710716 C6.85155562,2.72813287 6.63766676,2.7329131 6.51129904,2.85928081 L6.51129904,2.85928081 Z" id="tianqi" ></path>
    </g>
</svg>
