<?xml version="1.0" encoding="UTF-8"?>
<svg width="16px" height="16px" viewBox="0 0 16 16" version="1.1" xmlns="http://www.w3.org/2000/svg" xmlns:xlink="http://www.w3.org/1999/xlink">
    <!-- Generator: Sketch 50.2 (55047) - http://www.bohemiancoding.com/sketch -->
    <title>wenhao</title>
    <desc>Created with Sketch.</desc>
    <defs></defs>
    <g id="7/19" stroke="none" stroke-width="1" fill="none" fill-rule="evenodd">
        <g id="wenhao" transform="translate(1.000000, 1.000000)" fill="#000000">
            <path d="M6.849,2.992 C7.553,2.992 8.114,3.179 8.543,3.575 C8.95,3.949 9.159,4.466 9.159,5.126 C9.159,5.621 9.016,6.05 8.741,6.413 C8.631,6.545 8.334,6.831 7.85,7.26 C7.608,7.469 7.443,7.667 7.333,7.865 C7.19,8.107 7.124,8.371 7.124,8.668 L7.124,8.921 L6.244,8.921 L6.244,8.668 C6.244,8.305 6.31,7.986 6.442,7.711 C6.596,7.381 6.959,6.963 7.553,6.435 C7.729,6.259 7.861,6.127 7.927,6.039 C8.147,5.764 8.257,5.478 8.257,5.17 C8.257,4.73 8.125,4.389 7.883,4.147 C7.63,3.883 7.267,3.762 6.805,3.762 C6.255,3.762 5.848,3.938 5.584,4.301 C5.342,4.609 5.221,5.027 5.221,5.566 L4.352,5.566 C4.352,4.796 4.561,4.18 5.001,3.718 C5.441,3.234 6.057,2.992 6.849,2.992 Z M6.684,9.691 C6.871,9.691 7.036,9.746 7.168,9.878 C7.289,9.999 7.355,10.153 7.355,10.34 C7.355,10.538 7.289,10.692 7.157,10.813 C7.025,10.934 6.871,11 6.684,11 C6.497,11 6.343,10.934 6.211,10.813 C6.079,10.681 6.024,10.527 6.024,10.34 C6.024,10.153 6.079,9.999 6.211,9.878 C6.343,9.746 6.497,9.691 6.684,9.691 Z" id="？"></path>
            <path d="M7,12.5 C10.0375661,12.5 12.5,10.0375661 12.5,7 C12.5,3.96243388 10.0375661,1.5 7,1.5 C3.96243388,1.5 1.5,3.96243388 1.5,7 C1.5,10.0375661 3.96243388,12.5 7,12.5 Z M7,14 C3.13400675,14 0,10.8659932 0,7 C0,3.13400675 3.13400675,0 7,0 C10.8659932,0 14,3.13400675 14,7 C14,10.8659932 10.8659932,14 7,14 Z" id="Oval-5" fill-rule="nonzero"></path>
        </g>
    </g>
</svg>