<?xml version="1.0" encoding="UTF-8"?>
<svg width="18px" height="18px" viewBox="0 0 18 18" version="1.1" xmlns="http://www.w3.org/2000/svg" xmlns:xlink="http://www.w3.org/1999/xlink">
    <!-- Generator: Sketch 50.2 (55047) - http://www.bohemiancoding.com/sketch -->
    <title>wodechuandui-01</title>
    <desc>Created with Sketch.</desc>
    <defs></defs>
    <g id="7/19" stroke="none" stroke-width="1"  fill-rule="evenodd">
        <g id="wodechuandui-01" transform="translate(1.000000, 2.000000)" >
            <path d="M9.30040141,5 L12.4330932,5.00000095 C12.5987787,5.000001 12.7330932,5.13431561 12.7330932,5.30000104 C12.7330932,5.30033026 12.7330926,5.30065947 12.7330915,5.30098869 L12.7236214,8.21776053 C12.7231203,8.36997667 12.6087505,8.49771445 12.4575149,8.5149708 C10.6481481,8.72142381 9.49564315,8.66154294 9,8.33532819 C9.00244326,7.99981461 9.00257712,6.98813813 9.00040156,5.30029873 L9.00048952,5.30029862 C9.00027602,5.13466191 9.13437803,5.00021375 9.30001474,5.00000025 C9.30014363,5.00000008 9.30027252,5 9.30040141,5 Z" id="Rectangle-2"></path>
            <path d="M0.80254721,1 C3.2082637,1.91816175 5.35032192,3.37175569 7.22872189,5.36078184 C8.65458911,6.98360148 11.1985448,7.83293205 14.8605889,7.90877355 L14.8605869,7.90887062 C14.9709665,7.9111566 15.0585938,8.00249015 15.0563078,8.11286981 C15.0562421,8.11604239 15.0561009,8.11921295 15.0558842,8.12237881 C14.9301529,9.95965687 14.4137221,10.8782959 13.5065918,10.8782959 C12.5655111,10.8782959 8.14909399,10.8782959 0.257340563,10.8782959 C0.257340563,10.4834493 0.257340563,9.94007367 0.257340563,9.24816895 C0.92522109,9.24816895 2.18847656,6.30603027 0.426191825,2.52149953 C0.333310292,2.14162444 -0.0092399416,1.64797022 0.000190990326,1.4103172 C0.0109920726,1.13813734 0.278444146,1.00136494 0.80254721,1 Z M4.91342163,4.42993164 C4.02055868,3.47664388 3.26161702,3 2.63659668,3 C2.0907039,3 2.68368384,4.68952166 2.73742676,6.07769775 C2.79431152,7.54702759 2.79431152,7.92633057 2,8.74682617 C2.01477051,8.73187256 3.1427002,8.4241333 3.45355225,6.16326904 C3.66078695,4.6560262 4.14741007,4.07824707 4.91342163,4.42993164 Z" id="Combined-Shape"></path>
            <path d="M1.31221182,14.4158812 C1.09652092,14.588311 0.781886903,14.553241 0.609457074,14.3375501 C0.437027245,14.1218592 0.472097274,13.8072251 0.687788176,13.6347953 L1.33658226,13.1161297 C2.16217826,12.4561233 3.30701029,12.3669521 4.22484516,12.8911623 C4.83068652,13.2371812 5.57430245,13.2371812 6.18014381,12.8911623 C7.09332049,12.3696126 8.21416297,12.3696126 9.12733965,12.8911623 C9.733181,13.2371812 10.4767969,13.2371812 11.0826383,12.8911623 C12.0004732,12.3669521 13.1453052,12.4561233 13.9709012,13.1161297 L14.6196953,13.6347953 C14.8353862,13.8072251 14.8704562,14.1218592 14.6980264,14.3375501 C14.5255966,14.553241 14.2109625,14.588311 13.9952716,14.4158812 L13.3464775,13.8972156 C12.8411345,13.4932291 12.1403888,13.4386479 11.5785869,13.7595142 C10.6654102,14.2810639 9.54456773,14.2810639 8.63139105,13.7595142 C8.02554969,13.4134953 7.28193376,13.4134953 6.67609241,13.7595142 C5.76291573,14.2810639 4.64207324,14.2810639 3.72889656,13.7595142 C3.16709463,13.4386479 2.46634891,13.4932291 1.96100591,13.8972156 L1.31221182,14.4158812 Z" id="Line-7-Copy-5" fill-rule="nonzero" transform="translate(7.653742, 13.512678) scale(1, -1) translate(-7.653742, -13.512678) "></path>
            <path d="M11.0106812,0 L11.6509747,0 C12.2404698,0.351954142 12.7308553,0.433802287 13.1221313,0.245544434 C13.7090454,-0.0368423462 14.3826294,0.0235214233 14.7330933,0.147155762 C14.7317505,0.490580241 14.7317505,1.18623861 14.7330933,2.23413086 C14.2777303,2.12430827 13.8806763,2.12430827 13.5419312,2.23413086 C13.0338135,2.39886475 12.4654846,2.65557861 11.8316956,2.37133789 C11.8315328,2.73616536 11.8404643,4.10392253 11.85849,6.47460938 L11,6.47821045 L11.0106812,0 Z" id="Path-40"></path>
        </g>
    </g>
</svg>
