<?xml version="1.0" encoding="UTF-8"?>
<svg width="11px" height="11px" viewBox="0 0 11 11" version="1.1" xmlns="http://www.w3.org/2000/svg" xmlns:xlink="http://www.w3.org/1999/xlink">
    <!-- Generator: Sketch 50.2 (55047) - http://www.bohemiancoding.com/sketch -->
    <title>youjiantou</title>
    <desc>Created with Sketch.</desc>
    <defs></defs>
    <g id="7/19" stroke="none" stroke-width="1" fill="none" fill-rule="evenodd">
        <path d="M5,4.43431458 L5,1.4 C5,1.2939134 5.04214274,1.19217184 5.11715729,1.11715729 C5.273367,0.960947571 5.526633,0.960947571 5.68284271,1.11715729 L9.24264069,4.67695526 C9.63316498,5.06747955 9.63316498,5.70064453 9.24264069,6.09116882 L5.68284271,9.6509668 C5.60782816,9.72598135 5.5060866,9.76812409 5.4,9.76812409 C5.1790861,9.76812409 5,9.58903799 5,9.36812409 L5,6.33380951 L1.68284271,9.6509668 C1.60782816,9.72598135 1.5060866,9.76812409 1.4,9.76812409 C1.1790861,9.76812409 1,9.58903799 1,9.36812409 L1,1.4 C1,1.2939134 1.04214274,1.19217184 1.11715729,1.11715729 C1.273367,0.960947571 1.526633,0.960947571 1.68284271,1.11715729 L5,4.43431458 Z" id="youjiantou" fill="#000000"></path>
    </g>
</svg>