<?xml version="1.0" encoding="UTF-8"?>
<svg width="16px" height="16px" viewBox="0 0 16 16" version="1.1" xmlns="http://www.w3.org/2000/svg" xmlns:xlink="http://www.w3.org/1999/xlink">
    <!-- Generator: Sketch 50.2 (55047) - http://www.bohemiancoding.com/sketch -->
    <title>yujidaogang</title>
    <desc>Created with Sketch.</desc>
    <defs></defs>
    <g id="7/19" stroke="none" stroke-width="1" fill="none" fill-rule="evenodd">
        <g id="yujidaogang">
            <circle id="Oval-27-Copy-3" fill="#000000" cx="8" cy="8" r="8"></circle>
            <path d="M8.48864746,7.50878906 L8.48864746,4.5 C8.48864746,4.22385763 8.26478984,4 7.98864746,4 C7.71250509,4 7.48864746,4.22385763 7.48864746,4.5 L7.48864746,8.49853516 L8.48797607,8.49853516 L8.48797607,7.50878906 L8.48864746,7.50878906 Z M8,13 C5.23857625,13 3,10.7614237 3,8 C3,5.23857625 5.23857625,3 8,3 C10.7614237,3 13,5.23857625 13,8 C13,10.7614237 10.7614237,13 8,13 Z M8.48864746,7.50878906 L8.48864746,8.49853516 L8.48797607,8.49853516 L8.48797607,8.50878906 L10.0625,8.50878906 C10.3386424,8.50878906 10.5625,8.28493144 10.5625,8.00878906 C10.5625,7.73264669 10.3386424,7.50878906 10.0625,7.50878906 L8.48864746,7.50878906 Z" id="shijian" fill="#FFFFFF"></path>
        </g>
    </g>
</svg>