<?xml version="1.0" encoding="UTF-8"?>
<svg width="11px" height="11px" viewBox="0 0 11 11" version="1.1" xmlns="http://www.w3.org/2000/svg" xmlns:xlink="http://www.w3.org/1999/xlink">
    <!-- Generator: Sketch 50.2 (55047) - http://www.bohemiancoding.com/sketch -->
    <title>zuojiantou</title>
    <desc>Created with Sketch.</desc>
    <defs></defs>
    <g id="7/19" stroke="none" stroke-width="1" fill="none" fill-rule="evenodd">
        <path d="M5.53553391,4.43431458 L8.85269119,1.11715729 C9.00890091,0.960947571 9.2621669,0.960947571 9.41837662,1.11715729 C9.49339117,1.19217184 9.53553391,1.2939134 9.53553391,1.4 L9.53553391,9.36812409 C9.53553391,9.58903799 9.35644781,9.76812409 9.13553391,9.76812409 C9.02944731,9.76812409 8.92770574,9.72598135 8.85269119,9.6509668 L5.53553391,6.33380951 L5.53553391,9.36812409 C5.53553391,9.58903799 5.35644781,9.76812409 5.13553391,9.76812409 C5.02944731,9.76812409 4.92770574,9.72598135 4.85269119,9.6509668 L1.29289322,6.09116882 C0.902368927,5.70064453 0.902368927,5.06747955 1.29289322,4.67695526 L4.85269119,1.11715729 C5.00890091,0.960947571 5.2621669,0.960947571 5.41837662,1.11715729 C5.49339117,1.19217184 5.53553391,1.2939134 5.53553391,1.4 L5.53553391,4.43431458 Z" id="zuojiantou" fill="#000000"></path>
    </g>
</svg>